<mxfile host="app.diagrams.net" modified="2020-07-26T06:02:54.625Z" agent="5.0 (Windows NT 10.0; Win64; x64) AppleWebKit/537.36 (KHTML, like Gecko) Chrome/84.0.4147.89 Safari/537.36" etag="cNErjM7UBVx1vFPrTtEs" version="13.5.3" type="github">
  <diagram id="emTrUI9VVlg0I2dEMmoF" name="Page-1">
    <mxGraphModel dx="1422" dy="794" grid="0" gridSize="10" guides="1" tooltips="1" connect="1" arrows="1" fold="1" page="1" pageScale="1" pageWidth="1169" pageHeight="1654" math="0" shadow="0">
      <root>
        <mxCell id="0" />
        <mxCell id="1" parent="0" />
        <mxCell id="dMMbLSXunH8ZAwewC7_b-31" value="" style="endArrow=none;dashed=1;html=1;" edge="1" parent="1" target="dMMbLSXunH8ZAwewC7_b-30">
          <mxGeometry width="50" height="50" relative="1" as="geometry">
            <mxPoint x="466" y="762" as="sourcePoint" />
            <mxPoint x="466" y="431" as="targetPoint" />
          </mxGeometry>
        </mxCell>
        <mxCell id="dMMbLSXunH8ZAwewC7_b-4" value="" style="shape=image;verticalLabelPosition=bottom;labelBackgroundColor=#ffffff;verticalAlign=top;aspect=fixed;imageAspect=0;image=data:image/png,iVBORw0KGgoAAAANSUhEUgAAAHMAAAB+CAYAAAAX3S44AAAO3klEQVR4Ae2dv4scyRXHpXQC+w+YbBGLL3O0kYMJHAy3yFwwgYzBQoiDS9ZO5ewscHIXGC6xE+NI5oLD6AIrOoFDc8kpUiKwQMi2TnuspP1hKTnafN5UjUs93VX1qmq6Z1rd0PT87KmuT72q9771qudSNW6DqYFLg7mS8UKqEeaAGsEIc4Q5oBoY0KWsWebFP/5ejftu1EG9Ha7BfLo4qJ7Op+O+7XWwOKizXHeA/nXjp9XTw73q6dX9cd/WOjjcq+BU39Ys8/mtG0ur3NYLGcslfOBU39ZgfvfprRHmtjeY+bSCU31bg3nyp99XT2eTsYvdZqCzSQWn+rYG8+XdOyPMbQZJ2WaTCk71bQ0mYcmTH18aLXOLgcIHTvVtDeabx49GmFsMkigDmHCqb2swvz/5dpAwj3/+o2pX9lBYCEw41bdGmENzgID46sP3dmYPwYRPHMyz0+V4OSDhYFAwDZfvz07rhrmuAPGhoalAQ4MJn2iYQ1OBBgVzPq3gEwUT2x2aCjQ0mE3qD9zWHCBe/Pdnvx2UcDAomLOJ8FkbMNtg/ufPn40we/J+aXheb3Y2qeDTtDVa5tAkvV2yzBiYTVIecBthnt3/26BmTgYFcz6t4NO0NcJE95Nsgy2XtbzdkVP2ocFs0mVbLfPNwwf+ftupqNgK7fNzuwQzpp7g07Q1WiYirpy0hArEOXreBebNK9WrvvcIp8oL0/BoEtlbLZOAVBK7CsBEreh7/+5X71ent/rfY/ThIMzFQaNg0AqTN7JhHu5Vz44W1bfffF09/+ejXndE6b53usbTX/9k2Tt4LDQGZlMX64WZrc+aDDJAHp+8qI6Pj3vbX79+3Xb9nb1O11jCMuHStjWOmXy4BEyse4S5rHpgvrx22QuUsT1kmUkwn90+yg9PZhPpZkfLrCq62ZcfXMqDOZ9WcGnbWi2zhD7LjDhj5gizkpydbMv06LIAboVZRNLDMu/fG2FWlWTTlYDZJuV5YSIZYVnePjwkHswm1bMvP6+Ozy96c35wvLbBAfrvXz6tXv7ih3nd7GzSKuV5YdLHl4CJwj/CrKqLP/6menV9mgUTHm3qjx9miZTL2UQmukeYVXX28aIMzIYUS0CytY6ZogLlLlMwKQ4jzGppkciJHsEgGJqQldeQyGVYRsDMkfTmU4lXR5hV0CqB7PVP4DCfZsBk4W0OTPPdEWYVFAyiYHp02WA3i7aaPa85m6SFJkiAeMEFdtsN9XWkawyFJUGYCAZHizTLxJ0vpQI9efJEF5qcvJAgG+GixM7yN0KDvnbxZAPjZRTM20feMKvVAaIViwrE2v5QPOl7fzbR67MnL0RskNAIJyxzf/6zH0iMR5zXxx4KSQAZAxMevs0Ls8jC2xR9FpjffF0sQ3BXMg28RtOywNaF64VZJOXSqBYqffbkhVhzqQVMuwAzJizxSXlA9cIspc9ynhSPdoTp3PGlZbV0tGUWSbmcT2X9vRrm+cU71c0GLdOTYmmBei1TUi5z4kwco/lUHClVN0tWAjBz41zjmA2imz3ca1z6bkEGu1lEXRmUc4CaCVV12sj5xTLbIdebvrovK6atx7itR6/zY+rfJ7IHYZIElW0dVp/V5gCdX5SJc4cCE/WnYel7tGUWSbk0WXpq4eD8Yhnn5or9Q4LpEdmDlskHSiR2cQ5J7NJY5/mFrHYq4dHuwpgZ6mZ9iVzWOr0OEB8SfTZnzOS7KVl6Jy8kS2GEuS+THXAIbUGYRZbEz6f6xC4j6QlMGkTGLpbZ19IEz/yldcZiwpKmGx/W4QZhFlkSnyvpZYAkNBoCzLal7y7QIMwSkh6CeWqWXomlDb0tTTg7rd589UVw+itomRG6LFCDMEtJepKl19MyhT6z817/9Q9FsvKov9AWhIkKtOtZen3CZC4zN8WS+m9bYOsCDsJkjUQJmPT5an1WE8p4PtsnzPPf/TKY/xPqZqn/kPoT1c0y3mTDtCpQT8nQfcKMWcYXAzOk/sTBZOFtrgrTc5ZenzBjsgy8ggGTBYEUS9vVBrtZkfQ4IeGBmYVQH/kuIcI7aJnZiVym3n35siqY2ZKeaV3qaTDPOKiZhenLMvnd0DK+YO6PWbRcBCYFKqICkXJZCI72PH3BZJzLtkzjb8RcQ7CbxYRLqUB9raKOqQjbVZU84oGWgBmj/lDuKJi9ZekVsuS+YBIbhmLMYDcbqf5Ewywh6eGRpUp62m61/vm+YIqUV2BNJvUfs0VZZlFJD48WWa/DvS+YpaQ86j9mi4IpWXoFYk0cKVpZ1zuVgZXk7DGVWf8MyyFCcWZIMCCka7vxYf33omBKll6BxCoKJgJE5nID7TlkecK1y+KM4JCk7PWKi3leYrU0dRajy1KeKJhFsvRSBYcC36P124lg9fH6VFY9x8BzP0PXfvbJR0HL9AowRjCI0WXjYXJjxEI5rN7CFwDXdP5smJ985HKKekyQLyJ7YPVXU3lXrwFzcdD470JNhYiyTILfdxUmoQVjn3ajzrj5otxJ05M6sgLX1JANzBj1h/JFwaTLKCLpNRW4g9dyLBOYOE7aTWAWuPEh9R7rjUfB5EKKwaS14QhpdjN2eFuxp1FkwfwgbmK4DltufBi4VUxQMGj5O+L6b9nn0TCzUy6p7MM9EQ5Ye6nZc+PcLJjXLkdNDNsKtUeR8nIFA5NAbs8ZOkbDLKXPru6lpxANchfeZsGkm/Xce6etgmN0Wcrl7W1a/o647TejYcqS+FzhIEXSK7CKOgcmQX8SzEJZeaGl7y7YaJi5XZ20wESYzLbI9xPHzmSYN6/I3ZtxZrRb11Ie5YuGWerGiEh52owDgZkR52bBvPV+cPVVE2jCmdCMSaibJfcqVspTwWQMyE7sMtM5KTBzvOkcmAT+sXGeC7XLrDz7u9GWWSTl0i68TcgFysl2SIaJlJeg/lC5cuPDgPoTY5ma8ToaJq0z2zLNXaa0lsn8ZM4NpnJgIpanbDJbEoDp9WTNH4VregUVTJmt8ATnocJJht/iQD1mMveZExrlwEyR8oCfnchFPUemWNrGpoOZ4YRY0Fi32jLtKurEabgcmHil2g35LRumUpeljNEwKaCoQIkV+hZM7QIis4paunliXcqgCFNUMOkar08FBkBSddlsmGZIitVlVTD5cM645cJMytIzd+1iNRTlWHm3Fq6n+w/CBJ6R3pjpYJxkQlgzXrnWG6P+BHVZ4yy65w09jrZMTiTjVqYKhHUlwSRTD4vGEz6/kHNI9tvdO8u83tlk6aBRPqzWsdy3YGJ5N68IPKwHiHisklLy8EEyQLeii8A0t0R3zxt6rIJZLOWy1N9j1PRdNFzkLxkOGN8By101nbtaspCHGJCxUOP2hyrSfZ+GYS3dl9lge6vGoyLF0v62CmYpSW9jC2+t5R4fL2dl7t9bwcUrla4zQZqzlRV77EPKo2wqmEWy9MwfYKs9Wm1CtGO1sRBKfY6Gk52VF/gPk6ayqmDSssWT9DgbjV2G+3l7L70EFaie3Bz7XOMRNlWS9rWus/Js+VQwGdiDsFxwTY/NHJ04M1prS/x81zCzs/JMvVHfmk0Hs8TfF1t9NhFMrDW6n+sSJuFMkay8q/tqB00Fs0iWnl0SP1SYJbPylM6aDubZ6f+D9aYuNOY1k9cilmPXnWwYbKeWWQgmoohWtFDBpP9eKS8x4DyfQcVhVZgICMC03ucGwG4aJuen12KMk/HSkydr406v76HMyrPjqhpmkSw9IM+nK8WGuUoECUn2AqZReUo5SZuAidUAj5gSgIgEosdGpFcGpTxlVl4yzJxJ4tbWaHNojQTHbyAsrFkt1ptguSVgAg/rIzxbWZ8R5UMxpbVGe0RebK0L09CpA+2mtswiWXqe7lc0VeAaKY6eQKz2/r1KbkCcYLWpMAEIPLG+jxfL1WP8b3Sk9Vl49WMQZuDviNsgq2GSkCUV7QNS8j0LluPiQHRXZEWN1cbClK7z8SMR3Un7kBsy2RmVQNZAHZjveQxM6lm7qWEiIncK020YdMMW7mwizhg9xcqRarFaH0xxXL76QhYHMf0lMynXLi8X/BQE6MKNgZkyj6qGSbeTnQvkAsp5bMFyvLovVkuLXjlSxkN2YVrrQz+VpKsP31vOcNB1bgieC5LHIZjUL/Ws3dQwi2Tp5QBs+66dw7TzmouD5YzJl5+L10lLF80UeGYesyt4KTBTpufUMGnZW2OZbWB53XbJ9k7QWF6H1lcH6D6PsUzqWbslwextzPTB87xH5bmV2fdjb1jCdSiz8iz0NJiMUSYmDBbMU8ldfXenYJrhohPLxJkoJemNMJ1/4bON3kh5rtNmLS90VFsmJ9yICmQvZgPHbbDM0Di5athmVikErun9JJglUi5Xhd8AvPq5+4DJb0YDdOsgIcXSgk2CWSRLz72ADT/uCmYSvPq1J2TlZcHsXNKrX7Dy+aZgct4iAN3rMQlvFpDmmGSZzGjsUnhSEmZxeC5IHkf8HXEb4CSYRVIu6xexwec5MPnuxgG6156QYmnhJsFENxTLZJpqB2JODczO4QGSOmQ3034puixAk2DyRWYbsFBmLSTuNAWRQrktbQse+2D2As8CrM3ZUp8pYkGWZdov26NMIz1+VDHPKGklLtgtsNw6zM4BWp3Y1gvrX27dEGNAUM8BaBlwTLZM9yT1x6gXdBVYrRUYRJzvCWzn8LA8A1Cu+3BP6oGQTpvYXK9b3/ONwHR/kFZH66MLEbC2ddpxYoc03roY8dZza3127DPBP42a60+R59x6jHm8cZhNhaB1EqsKXHMjhl0KdVYQAWgaJ34DyhhDTcpcZFM9aV/rBaYtpLVaWq9dyCvdEhXUU5e8AtXkuFnrsxPg86kkm1F+/Ia+t15hNl08rVocqdtHyxsW2265r+7Ydpsm54hGR/lKOS1NdZD62tbBdC9EvOSHD6T1k5nXidXWrI/ukyGBRrYN1ufWT/3xVsOsF5bKxJHCOtZCoKZuMfY1m12P03K0EC9cus6E1I16mbt8vlMw3YqR8Zb/2rp7R0SLNatt65at5RmAfA+A6M1ifTsG0K2TnYXpXoR9jDUR24rVYpWuI2XH3qv7ncR8tkxdHv8Hy4b0JTVzxLUAAAAASUVORK5CYII=;" vertex="1" parent="1">
          <mxGeometry x="17" y="536" width="79.41" height="87" as="geometry" />
        </mxCell>
        <mxCell id="dMMbLSXunH8ZAwewC7_b-5" value="" style="shape=image;verticalLabelPosition=bottom;labelBackgroundColor=#ffffff;verticalAlign=top;aspect=fixed;imageAspect=0;image=data:image/png,iVBORw0KGgoAAAANSUhEUgAAAggAAAECCAYAAACbjy+YAAAgAElEQVR4Xuy9B5hex1kv/vvq9t5Xq1WzmntLbOM4JpUUMCGBEMr/hlwuhM4Fnnvv/wIPcCEBcoEEAv8UAklIT3CJnbgkdtyLJFuWbNmSLFnFaquyK2l73/0/M+fMOe/MmXbOt7IF0Xni6NvvmzPzztvnnXfeyVU98ZFF6J5cjn+bWwR4g9wicovBd9HD/lTfVprwtrRNDqBN2E85/o2uI9t3opfF6O2gn2yPgID+a+xJA670fo5BIhDHJwiYcBdPIxiO4Ye9Gn6vhSdAWvgkgZExw5oucuwGLdNhaanworJNNNloGuGk6XSUqXGWDNGqpbQD2JAqIRZcfGLnJUq2rFznN0JEuIjkEvlDnkmIjzq9EDcMh1yqOIMtBvwmGC/iEiG0fjNzz0OnYgQfxryZVC5UeZBRYtA58IvBNJKPKjwCDMJX0UeOB9pZiCgmjAa94ocdPVixVOp6V7nLDAPVAlaOVtWE0DNE50R6KlL6grlEzwTRREFFaHaDqQXRLkumX1VixtRQyS6xt0vsiVaN9baLcYjuEu9TXKifdbKpfJdUZZTbbEbXToS0PJtLOAhE+ITpFQY8NuZkNhrG47+GcHKAFIPnSSOLxOuETkWgPyqokgh1ZjCAOjcfwEMrFplhrr1CWNhnnbKhMkBkslLBC7oS7gE1BOkMAEWFP1ZjZPF31DlKyHX3qnUOTLznQ6cIJK06SfRgauWrEykdaOeyWtPTRceGepyqPYeKJMFfwoENrYQ0WzctRHO7Yk9qPMnueJldPXaNFLPKazxXPnsui7FoSr4RWXJEikxReeklyMyUZtNmNoJ6HrLoZYtMCNmKFF4Cj6EXqbGTkYMZr0A0Kk5PGJV/ZGo7DIvFOvhzsAEpnFWoIZSMIrENSU4Uql5dFFtVUmgiKArN9KVjqkhP/h274SY3Vw9ZNErgIMTECFYY4d98vBxyoTBZh9BQxaTYXErVpEzlqQQD8pW6JibhaSMcqlElhk4B01kGnwVkknKJQzFa0Pib1KsnWtjF8CbxC3BDowY2z9ONMRccth5kUcrWE8WRcSyb9QiWzhG7yFAYX0zwiIt/3ZiMiRvD4G8MIirq7HsgFPFj8UlDExnKEH3RbZjT4MCs6uOYTlK29RZHpx798R3q9iiKQlEVIo1HDFQkxgseIpapbIAOxiT/iVYqDLEF0cu6RTPbVFg4zWjKYtrR8AJRYSg5sguhhhNBliR6NNM1aykmk3bnQEMPQiWq1ZyaxYDA5HviG+Jk84+kg8gbSAbA6U9G/lQ9AgWI+M+kjUmuXtU2Wi5OKypIRhAS6lAYYfJDFKdUxlMVk2DAsFkapWKfiYy61LM2sG+2fmLCyFslTla160RVTaXsjrKHcBTS+ZBJbKQBwaSXzILoj30tHFSeEw3iH2U3wPqSFqA0OHAbhWwtqJFyYs1snYOQehRC95fO9FgzQ2neXnTOLNOGIkdHOAHJF0j4zgqlhZ0Iv/bHlq8mexV4waKubRTiv8mCI6993KSytrDLlGKoLVSvXDaDHpi7olUhEdGJ40TNIvET+PsmgDyYJ9tcktrNYyg7baQthnAfjvtzobcUTDQcRoTIdTQzON463tJDpGoyu8AIUiY5Nz23Gg2OqjSkrim88meLfYp7oLQk4wjfi/dRKXXDDQardFuURsXDSzIiYj0Of9+Al0jebGwSSaWc/8HDhaE10K9U/MTRr5Wdu4M+gm0f8TnOv7GMEM7bm1c17CmhJ+woaaD1MMiqJ72MUX3pXvFRBZMCHh8Voij0gBzhGFEyg/hb2RojoFTCC0Iek32kx3JWOFT2iNBCUU/JTBeFdFCyg5pWX8XdaJhVAiipiUykzoKPaMpqRC4iB+GH0IUIeCbeO4/0NgXVpEA139u5XCJEMqmPIN5I1xQiK/UROQiR9gh74lIcprS56KcOnvDGgwZ6hvCDPBYduqmgo4CfWdOJot+bGovKX6RbMaHSoTkHKkeb/laSOP2wQ7f4g47l+fmJDX3HrcRNDlyS+HEEQzET1BsyOGPeKlMCPhl7jw1h5arFD5sxzydxmVagVPlR8mN0U1KJSdoE9lDR8h7rcR/lI7ch6bFhknOAC51z5IZJgC12PK100OIk3LyUkhqpwFlWOSG769DqklEfvMl9WMyFMi+ppZG1w+RLjXNEF8XRz+HiMPg7xAlxECI6EJy4cKD+Ls9Q/CWg0RkQvWuvck1aOKiUJrBu1dkB39Cd40Q+ayqDIg9m1zF+HOWrO63aiDsIYYtcLlTlIoFHLGIjD1tjHCkPiX109q/wLJMJntloKAko3btMosEkJ3RgHe0zJSWKTkUWdJRmH5KY6hzdZ4XD7YxhR10wJxOjZVFtGsPkST1pD06S94jZkgdXNFpECGCEF69pmCVbr5gEE5ux70eX5Lhximh8QoWvPnzyegzipuVTnc6IFH0sjLIS81UhMSB+eNAzicgtCvrQSWmyd5MqlAybwbmkXjLvJ5I/cspIy6hkc10xqm4XQsaV7BzSyJHdZLrEzJsOBmXofN8QyqT8owaU00QQ/A0g5RXyljIv53yMCJW1Ju8nPupD/AdF8fA/w1HF4CFTWg6+uMia2MlJvkBnaudGH5yYpDDqOXIQBCR0khKyNHMz0Msk1E7sJBroFL2gmept+qAjKe3yCQ1fCOUZ0j3+IHSscIyj24jXCL1dszHIPRmZ5q+qrpEZIAq54rv4IidqR0XKmf9gmlBoSrjzSpeO6rLc5q2LCA857Ekk37JZmFT2Lrro1H4MqhzH8DsjHEJKfAoJBhnJ8fCJhV+c+qtC4UvYdFytx7B5HWjmNq0WsAmA4ohL6xsaPZBw5zZZvniytYtHMek2qtdkmALjFTs6XryYUC7KhiM9HqSqCY6rULtpBstiCN1YlvU6PZqsSSldCpLwPsxwKRoxwmfo8LOXlRPtic48IgmqbCXlRJ2qXQG6eMOibgMnJYyOBEmKUuv4SAtnDUumZgKzGgPngRsf8xmCGEw7OXn/UehUXUh0CXrSfwt7jAoZaOCy6YVwwAiuFABSxROP+mrjRXW3AgzJDpOgYAAbY6888ijl8ijkcsgjhwL7zH/LoYDg++n5WYzMz2AOC7LVDgXUJOFJdKdAqkqPjOoo5lp1qUstlJ1W0TxoXqGYu4BL1TLiezIsw2mW5JZsb8WAyYdtNUlgDhWdZuVuJBPdBqRswDsXWw1uOrjZIOY6FW9ZHCR1PImDbZpeA2jiGJ5i/2LrEL6sIl4xCWmiBqr/YcajKqN6rGXlSZOYSOu6yNCI2hjyaGqpiESuLwXZwFJBj9Rxd3OW3EKvy9JrOP24rB/iICiOAVU63J1IHuXQekpE1tyipirMYFB5KGr6qMbLjgY9Y6WTNBXG+CyxkthkU96axQKflb9d16kAcrAxm1pNh1lh/oKxkvpEPsrGWpfzRdTkS6jl/xXRWKxGW7EGdYUy6vJFNBSqUFcooSpfRDlXwOL8Ap4ZegVPjB3BcH4eyKuJGkLUlNVVOJEYnUbVYLYpaWWWtLfXoPBXl1wmVEUuyWcyJ0H4qNG/dLgIIX748Gulk934Ox1vJFFr5zxvvrSIMu/Dbn+81pO+bOEcStJ2yRlGUwk/eOPAAKA0/0j9EgpHylEzkuoc+CLBoKXsDoJbd2XBhZmXTQJGBE3aXwl5Wz0Jqk7KAiRlU7uM6WCjHSc1XAWkkbY5clVPkkqKoScdDO1hpSJmCsGh9j6EPwsR5cnJPSTrHmRDReVwxeN6bSmoNBYCTxks21TCt2J2C4ZKN0Mds1YCjkq1cr7AnYDWYg2WlRuxoroJy6sa0VOqR3Oxmv/HHIaafJE7Cuzfcq6IYi6PofERfO6Fh/FvA8/iVGMBudoqObIl9vSVScR40DuiPjhKh0U9xux9VPKrhUIKv8WBwPSUrhQHqpqwGwY711UCS/SuqlsjD8yt85Zk/GiKeiXvkrtKYJACJSocvGMaL9ePVNH4qTSTnXOywpH1vTjKpKl7oKpcXbBQIawqiWbuoy3tuj373JJcx/rKVT/50WBnd1HsnYuiFeFQKmzEoaJdRs1CxHgVijBKghkhlSDAqBpNc7RKahDr5c4BTTiz9aUobWHDK5mTgRzm81ku7ZNKgDWuHJ9MjJPWYi36qhqxproZl9V1YV1NG5aXG9FSrEFTkUUKynw7wfYMjJzGZ7Z8D1/a/SRONxWQX9aKXG01se8qYqnzZsaQCxVZ6KIr8iX3k65XgU4Oq9bPIQyXEBuajEfx4F6dqbLtwpVWF0gbg7oe7Lig5kFSnlZ5VU6wCH1E9aqIiAqkqslmGlDTUU2vbPXFbfww6zW+BS/G9yN5DeEwKkmNrPuBHrXymoPU2s6n6fqjOsGl8HW/J0ejqq4ye0fzQlSu95fErPhQyUj7CSIIi8FesDaz2gNXHk20rGSvmCj3GgBNQXd7+9ErGsWaVNqmVaZO9QWwxTB5bDhR+VOOx6ipHunkTk3j0TFYOtZJ1zqpOBhEXeV6XFzTgWsbenBtfQ821LSjgTkE+RKKOZdLIPd56OwgPrXpHnx9x+MYmp9CobcF+b525GrKwXaD9NAa+roYAcWPGdN+rdyUEpwSb0FRpefHw9L2lUlfkDKc8Yk0zf6mZBzd8KtSZ3tD1QOCMmKf1WQ2dX2qXJyFJ2lgKWGlOOr9evVrZeelrL+mwb+LNlbbS++K0ajZrPSIeUKtmhlzh5kv5NC5n7Rk5GmJeekfbup7spHWHOl7V3Gjtjo3Wwo6XgtzEEJTZzu3b3MzqPEjn/1I5RIdHQqzs4qb3El7o67cKqmYGJ1wIzwYwZQSuLi5fI7CJ3QumMEjEmYloxB7BgEz/B2lWlxZ142bGpfjzc2r0F/VjDJPQMxnZof9p0/gH5+6G//+wpM4OzUOlIsoLGtFfllbsN0QOQnUJIlNMo2284AkJSkSPYYSFX4v+FX91wMQNaKjWmH1VJaiyTkc2gQZv7HdBkoDkFYfmNwHOxx0OtqWhuGNKp7qXimxw0zxpeEF0zwlgByyZtBNHjjgWwuqbxopAWWGBnvkpIWDpeRuVbkULyexreOc7BbAVzsqGlI56q/NCcrAKPZXkjPXkTrDsJGESsewNdHjXNUTHw0zDzSmgvKuyUEglMrGQPKU48N5QccBCOlXXTpwszGVRQHynzzIQ/AYnSoKv+P/UNR7dJeUw+ClNCWVdULnNBkaVLCvWNIhyy24qq4bb2zqx5uaVmFNdQvPH1iKZ+/gMfzDk9/FHTs3Y3h6IuiyqhQ4Cb1suyFwEmTHTVU46aifiQyhThGK2L6n6DaM2sRgDzuTOMIuWQezIjaJuA1Ss3TEb9lVvhvT5hYW2dQBrYZiPKMIbgjluaZzut29W1s4CODuXRjCyGYkyiinkxwPvg61VdBSF7mtlGM0MBA86XFiQiRJ0CeRX94HNXiqDvdAmp02OmsaDxLnvclY9KO3mUbEVPHp8QgCH4z+Qnkmg/GqDEj57TRGT6sTNJn16Y2WnnlUIkV877FbkSYspYdXhkm4CL5zM5Hb933WjjkALPGQ5Rbc3LQCNzWuwMaaNn76YCmfF08cwicevwvffWkrxmamYl6tKaPQ04JCbysQJi5SR1+vZvwhy8LHslhTGqmfPRWpqQtq5xX/2e8ko1s9+WNKbkmjSm7ezQCHzShKvylhbbrskxS42WRkxYFidg0Wy7/3LLxIWSQxktoh3XoK+UkYQQ9bZ52IHbumsEayS53J9Mdg3NKNS7usJnR3hsCgGQb6i9n46lq555VeGnPV/DZHNztLXWsgyQqcyaibPZYsLJF6hikYPuXMQ96rxEGwG/eU8IQzTfMWa8uOIm6oacMbm1bg5sYVuLK+G/WFqpRnJ/xo+fSRl/F/H70dD+5/gddDoE+utox8dwvyvW3I1ZWDktcuZrUMmwYPNujNtR/8ZM0Ih2ocE7rMtdfrnqG7hXnmlDf9lKC7Lz8u0R8vDmAgpsUuPNFQleAgNswqsSTO9Vq6VAqHlY94MrGHMJCquJUIuN9ckq383nNziX8/hF9iYkpVpyuJ+lYEh2Ga/n3a8aT2k6sOtxgSEQSz5a5A/bqJSE35Uk3aTyW7YYvh8VODWkQp3rl71GSLeHSh/qgX7mYAv6Cevh+WS9BbbsBNjf14W/NqXFvfi55y/ZJtJ6ijsuqJjx54ER99+FZsOrIHC9GJkbAlC37VhE5CXxtyNewIpNicSrf2WQp+029zUA60w5Sw99S+qYysdiV4i0+EKrl0eMguL3LasR6f/lj2b2mWEck/4BPz69WvlcZ6eJ0C8uvdr5XdwEtXOatNI2azR5AT7OTwKbJvsej5tGI8xKrCU90qDgJR957s4xzHPSfaopLNSicoVnseRxA4TgwFkagcKOO5J2oGkCpDuZUwfOkmZ2otw2geVfd+whUQeFJ1Pn1Z0c3RK4TOvN/0ejvSdyLjIIDP7CDYZpuWdmxL4fK6LtzSui7KM2AFjbRbLUtDOswvzON7e7bhLx+5HdsHDugzjNhEqpiT0Iziio7ASYjw4j9L/5Z2nk5Gv/xNrldBJJ0MijtPyL+Bp5SOyRTVmIqKVFbkGVMu9MOyVyuFuSXRNEVnI3SEIxjQ4zW+ATv6d88tDnRyntBdRgWpaMj4ksJKAgbRaHb9S39NYQjTqXGiNwVnapZJUZ/E/pBDUerp2EqQ4+YvE/VkHLn78RPhRD9hNn2uOjzmqM1MoY6BhnbeDGjNtopVkqyc/FfFNhQkEahylp3TKEwBChwkCX+WSnEqmebZk8pVJZPu3odKmKm+UMabmlbiZzsuwevqe9FWrD1nUQNKz4mZadyxcxM+8cR3sHvwqN2pqiqi0N2Cwqou5KpLYTd+s/Zrpee0JI9QwdF7gkaFToVK53SqIIQdSfBrz0W6Z+hu4XKMTK6qTubcffmptiSSZFyoSkxtb6ap7/jy7IK/ZFyqcuvXs5EeSTWQ0LBetIzPwwYGVLPj4NWPx3TiflQG149Av03n4magZ3S0THHkVdnS4N1lDnTQmHlDdV6oZskwLw+6KDNW3sgFhZL4t7a9KJ1SSnTlCY2zmdMEO3tQ1bP3C4mGqupnQqQpfaiuVohvQ0veCmaKbroUePeUQlUR+SZw6tSTr/vF7kZgWwo/2bYe72+/GOtr2nkSoifI2VEfvjk0MYovb3sIn336fhweHnT3Vy6g0NuGworOoE6C55N2PjpdkTx1Yxe/CDTSmZdRoHqEv6sW7aL3ClAY3NsbnugizZLGX+ZLMaaF43zmr9FB0pUn4TQD/IlCXSLtXImM8kZJXGQz4zJ+k/RT8ePmibS8yHuMapOxmjakGqKVoIqpCv/01Q1x16pmsg3q5yC4saQfQy+XauBRoYlyhFF4W0S0gsFUe+3H0tGrfrKl2hw9R/n1ZW+l5zMZg4GDQCdK5cZzMyk9Q8dAiF3LSLCzxt01uLDCZZLb8LY3nb/E+6PeZvBFPDLVhWH/0p6VTj873eOgI50aDgZ2dpCwQyqfm9iI3YOwvrYNP912MW5pXY8VVU3IL9UmnCeHHx1mVRTvw5e3P4LBiRG/t3idhDYU+tuRqw4SF30ev1ayrqB/VSLKXmMT3SqUVzSvqE4+uVyGe6J05noI0xsEHTbV5EjRhhoEzSw1chi1sskoLWAaDqV9T/1Smqx8rbMXDZSx9KpTB7iKDzNHJkjmsXhLyrQFBnUA0r/9FJAdZnWd5CNz2UuZuXt3cB7pgN5DpKyVTXd4edrG9FR3S2MaPjVhyRc3QZKi54hJI5XGPCVBlftTax4oxtfND4kW7mmZhSiJQNIb/ZGCqToIAiJdFnBCmtROfRSIe4aqeZBAtOiQ6nwRl9d24ec6LsWPtaxBd6n+VXcOGOwvDw3gbx/7Nm7fuRlsu8GbV6tKvCRzQVRcDDWfxeb4dq0lTEyJdDSJFIjNptikXDi0UZ4Z7UgnsT58lU7YZONkEg7Wp58z64fBcFSaZiHlX4gVn3yOPb5rIBxFI9bpZi9YMig5I8Num4keF35zVyCMUaFXsgL1krVKRkIjbslwKVNMdZOjaNJES8uPKvfbrQ5BnFJhVKTuSGraj32NE0pHW1mqKreGMlg+sDCVGZ9icLk6GuT4DOIrbJUeC1PHWSrYgn6S7oIXF4Tcxd/WAZSS4fRzyjZT21sscsCSET/YeQXe3rKGV0dkWw2v9sNOLGw7th8fffjf8cC+55MnGGwAMeZmTgKrk9BPExf1L2WZXfIdm3G0Yy/V+Irdj4JakpOgtQoJIFKNa5iCn1J2c8+SwKJ2EhUyE9GUpZQiU/F3N0ZsPp8bU26zZ+1DTTZQUFIpHdzvm2mQcmFu5We3ejXodUI+a8VEU+TdIid+tDVj0I1bvxFc5j76PTrmSN9wYTb83Q9YRZtFBlfGbtyXX68O25AaS8ltuwBu2UFwdCumqvzL+8g4LfdrdoWnBqxcpGWOwMbadny4+xq8o+UitL9GzgFD2fTcLB54+Tn838e+ja3H9qWjadiaJSuyOgmFlTRxMe7KjV+zMk7yrAu79uJr7gmGjBUOHLOZTsb8VMBSzD85a9VALlHYVEw/lwM7/irESt01iLDMfxDIEuGFpXMQY2q6AuXu+VtVhA95uSMU40Tak1SJ7LiPIwtP+HGbvZU6zTRwUJXLRtFj3GSLgjeoxo/oIYDQdmjic73OsMs3HUidTWbzYRxSwm0CLUSzSHUQ1BA5QUqUEESGdBMwSRA9rwc9yf25la08e5W8bnWrCngsY+FpdnZbIwdDSe81cTLBX1TuloY9VX7yAFFlm+AVN+Zp1/o+9Ey8oqoZv9ZzLX66bSNaSzWvSeRAQDY6PYlvPv84PvnU3dh/5oQHtjRN2Kq6zJyEZhRWd/OoQkL8bApY4XfKlQG/aLbGTOngJKLktfiw67P4ioUQjoA11J7t/JKOk2STLCQu6IMqD2oIgu8pzlNBSHAgDmcQWxjWvAjHi45pm3SHPnaeVMduVlPno8cj/TYcW10ih0OloUMkzxQ3upNiRiDl3AtJV6RVu5E+kifmxofQZMHGTAbVqCVSbAVMJ0kMmA4BsOpKy48mFeKmq5mT6KaVux83z+qlUsiuzmLQLQY6eaVt9smrg8pevzzppUGBtRfTHEmCKuXUmHSKCtH1Q77jH62c5r0dGyEwC65sYOrYiUULfqnzSvxGz7VoKVa7j3T682SmlqfGR/DJJ7+Lf3nmfoyyEsvUDqXokeOhqoji6h4UVnR4FkEzcX3SSMqghFhXXzd05+R6la+U6z+i94Uj63FvicLNKTApz112PVRFJ//qM4gRFzrcmerim4YVt13yEw6yj+2kgcEUxac1TLOjPbstbzY4wmVOiKNkH4IfNeNTh5XUSkorZy5VF2PHr6U0B4vcRKnbSptUeAwrr/JMfWUxmIDDqn9iICg4Zlj8pFDty81FbknTw6SMJPgpOuZo6JdGDlQV4CZEkrpyrTW6tqD+jXuSuhZuePz65f3QjV2TRlFXA8GLcahPpaa6yHJKgsx0SUFzzyfBrAaBY3UO3tO6AX+8/CZ+VfNS4dINob4FE9j9Q8fx0Yduxb+/+BRPAMv68CkX8iiu6kLxoh6FmgaEmORB8u2IVtZe2mUX54SKsIESNY7T94MjtzQDVjXgbvXka8ZV2ZellY5jDjvqFKc+FGwxuCKqFwLOMcw7IUca+f3ptPCbsITuOpc+PCbTTcxdii2Rbuzmws9MGLrTfB3NUOiiCKzwAwEzgjxDUmIwdAC9nsvsHJPQ9hbe9xGLJD9ajqMR2AMLFCBAHPqhvqQUGNOR2ktPWPjZY7my1LrYrhUYrLFUxnUQwjlIWwkaA+d5YsxDzuSwYzJEmR4tzjdUWSU2R2ZnXS0GjbJXpJueyxbyKSEig/vnJqYd1T4KiNU1eEPjcvxR3038ToXXIiFRncX8wgIePvAC/vLhW7H5yF4PfpLdp4Q7wRyENd18m8HXKOoGTV5EpNEa9CuquQz8loi/694XyljxCeLtZNOgyVnYTZYb1W49aW6hU/Y2uTUbB815f96Y9hYbCeZMcfQvSfRAxlEwoipp/q6PU2+pJCFDidyppOsTNqL7MgSZFFWpx7cU8jarOFnD6paGaeTSxkcRDKpIJESEzFwpHSKCCYmdM09k2fWuCn2yU3cLt5yqqsc8iowHcdKH34+rHnM0IV4sVPxsXNCL3FeyZ/POpP/kE56o9lU1bkEbxVyjV2sWUut+ihcr+lNdfggkvnnKREnN/G08zconb6ztwO/1Xo93tlyEmiW+iTE9JYM3Zubn8OVnH8ZfP3o7BsbOZO0mfq9QQHFtLworO/QrHrMlMuyPZhRhRW8b2FX+mm5fJwycHnDbYTNPHSeZvaSfQ3MvksrfRTCtVJlQqjpWfAI55BaDuFKy1kjYkSMZL51BCnaE9ZpDzQqiE1FmqiGXDz10PYqgSRwtUQskacYWE6BRA0+dpOpaXcwknovJkiy9w5qGjsn8rWAWke4PPyQqlKfAkbB+gmP09NV9qx/Ehz985M3YRiKVzGnJY44OCVgKYOMhlqZq4tLBJEgbspzFaBg1hbqWyACcLGRsJD/ujJhcSYEwCRDDfne5jucd/Neuq/hxxvPlGRwfwd889m185unvgUUTKn6KBRQ3LkdhWWuq7RNVMcfUoIT1o486By1rmHiONPZjKXMrv/ddGNe5IG5jqFMvVsUlEK6+KBxxytyJu2RCumgmrEDqmqz290oU/9LQIAAr6suor9QEA3k6WWBxcz/VRqprQS2A7SaZTGRxyLcB8hB3Ei4p76nT8UCamT8S8c1E4rlH917IcfejYxpigaRKimY6yozoBZpgXb3XrbC2d4+6hlYkGIVG7D4tSsURZYGjJVvDkWnkkNgFyePU2QunDQlmofc63WRWSSeGsw3LogVva16DP1p+E9bXtFVEg6V++enDe/HnD34LDx18YWm6LhVQumwl8p1NmR0Eu/OLjw8AACAASURBVJrzA5NT0sKTkaARA6imN/A+aBw1qphoNnt0SH9u0ily3XXS6lqSKBghNiSp0KFmYtUgIieSzJHxtZMKvgxC76SKkkYQsuCBwh5k36vKXrYkcexSyLcHn2j5Q7FgUpFM1egJe0NgodEU6jf5KAoFZD+8mXhRJoRfX2acxagKy41L5BD0F9vq6mjkLhsXICYyW8hpz3ihTJ3sxAWOaViVdYwagf9gcg5iGiVyELj+Cn+XpmA/Rmzl+iTQuml4CI6miRWR0TBmjSzEdpEmP0VaWnMaweAg8FdM96ZLiJQViJ41ghfkufmzDGUKTkrN9Nm1zcwp+MO+N/B6B2yr4Xx52Bn3L297GH/8wNdwenIsE1gJ21EqonT1GuRa6lI4CDLi3PSwe4H8fZME234TtkFKwFdFn2owN6+4W1DnID5wRVSHMP3hv7THoJVKg4QtMosloXnQKMIddY4SU1ZOKPAB9QbJ6a8nIAgIFDgEqoTpWJTKeYybhGxGryoelAk3ghfiKziS5d8jvITj0q4JLyUDk0l+V+0inWk8Fx2lZVfKdKxL5WJvYdc4nJxCvEMFedF3REkTB5yylKQc0jBJIgtFR0Cd8AczNrX2xkda2yiNapJUdsxR3MWgKKGIvMRZSKNUZHhjAOQkr6RSSczToUTsMBm4SOHdoA+1Jwd3aHQEzypXVxQpmUwHSRKXdrZRya1r3VSs4lsLf9x3E0r5QiV8uOTvDoyc5tsLn3vmgYpOL0jKrFxE+Yb15CpoVYGZOFbaoQwbefCtaKlcjRDR12QpDCuVuB4HXTqq6tW+KnHzlpmU1Nwl+3Gr+YgniYEzjSZdrkcacRiEso+z80KRCyGkdSB4MaU4vO6GMgmRLNFpygjHWDKbBT/RkeVZOd8pOQPK6iUimoKDzKcWAnhjXggg01fBZS0TLmE04ey2hIigYboxVnWakEWM44TVhCRXAJj+VZ0B09saf62i55sknwXfmE2Q8gZnLeICs0Vz4pgjkSlFvvy4WWpFWUkt+2BbivsN5U9LDZFI9EmwfVyywzG+cjmc8AkiBeYHvtJKthjB3PxnKBlDx/gsenBVXTe+sPYWLK9qygTtuXqJRQ8e2rcDf/KDb2D78QOZh5GxGZRdLt98CXJ5/0hJUr2ovYZLFiEoGt2Vhi6K9o1P7ol+E0f4Y/mSVbfe0PkiU2fQREwgVjZU+Yue7fya+NWkO7lqiH+M6k5JvhGhBT3qGYXM7ErUV7LiUXR3LdB5iyWp5s5kg03zpYe6vIyOt9IfhPKJzuqFOKQsYk9FSAWO3FiVlKV1VHVsQjlEpqVQzonwUhjiJXqVnIQ0ns7TBYzIgDpZseOG/UqrNsYbVZU6CDoC+vG5eWSepMgnqfSUVI6y0OpVUEyU4H2TiqVepzdfaqOz1rcV6kUnfqSXYkitSlYnA4q9EDJqhsnE6imyoJXOFfmPfjV5jaw9S0b8yIo34/3tl/gj/1VqOTw1gc9t+T4+9tgdmJybSTWq0d7kgHxjLco3bPDojximRGsTts3SoLCIUv2QWI5AbyR1ixS6NPOPy5n0hzwGgcIusmMSyjhFAq13MC0cmK/0wpLKNKof7xrQKx1DyKL71c27OX5Kkxr/WKnHOsJALI8NCOP4BvLKXxuiGFFNDBXuEGJSB8hDCHgTG7cRM0uY2BwxoGOmw78ZkEhzJ7aHKfSCLwgE6gVnAjc61FGmJZ+pPCVH85FTWRr09taXUkmZ1eI7ARb5gn9UDZo45kgQIyJ02sSoFPDqUeRZX8BjnHRMJit96sYEeKEllS1coHKCknPA31QXVp6AmhW4vQP1PZfvXpUr4D1tG/DJ1e9E1Xm2tcAuZ3r26D5e++AH+3dgfrGy0wsRu+dy/D6G0pUrk0ZYw2uqsAaFUzSYXqqSyiZtHOXYiX2KsKF0jbOfavFkQ4INVYJD2aXFPqLWsWLRyb0fhETJhS+kKqksDUzOhSoTT4sHM+yKMvWM9nmNryBReifBnCFPRIqbJCjqgrQZtxeS3KAzQQZrqsiYFw4076gxgeTtCZR9RSTHrhE5LD6k1Hi3Min0Fk823W7DlgU3aq90OvYRg5b8/6XCgATqaIvBgoBKgZbfr7Q311rJTQRVHycgooqf2gXqYZKtGOMiymWtDcZJ/tqNLxVE0xtMxa+tacVn1rwbV9f3+CHqVWw1PDmObzz/OD7x5HdwZGQo9cha3cnkP5/jBZJYFcUsT5J/vdfCfLgkf2miBTrAyIt2LqjkVx+M0FWrzlT44UNSxj7DajfZyPhRh6QzByhuaXKrVJmiulB20Ed2TPnAYFIemkRNwoSVzl/Lz5KFFXDZ8eJJfm2zbHPwtEIpOlf1jf+c4kF0bkUKEKxD+vVDrUcITeAxBDzMHIQEkBm9TNV+CjHRA5rBeoYD+E2cNFajgVGOtQG/JqoRp4B3abpB1k9fSoOb5+Q3WwGyrTU71vjbPdfhD/quR1Wu6M/Pr0JLVutgx/FX8LeP34n79j6LqbnZJRmV44NVUbxsBQrdLan6NCdfKYyYXNpE1iGii0YOSbZXEi4hqwnC0i/cq6PsUmbKO1dB9ePP6MRhKgqEGkRraem4moqJyjieUBoNklmk7ZJrNpN6RDhUjyHdXYkw6Wy0yPDPgH+dUxDgQ6d19JjKbkyFFUnWS3CrWT1tom9VmQx1uqdiDgxo2Ni8YaBDeFKziL7cc/IjYHp+DyiUOMRMKynyJubonAYyMzvT2oVLWTFRx6wxYLqKiSoTx7XDWViFVWNLFZOgHEGieQk2Jt3qsCQjUxDHPjvxjgnrLta5sq4b/7jmHbi0tvM1v4hJhfXMxBhufeFJfHLT3Th45mQFNy8kMYtiAaXr1yFfX+PeWFVsv6wCUogxOYJvnIynFAfNtFZSexKf8omLJ0y/x2xuq5jo5ledCTGe6SLWlL/HgRAySoWNXqwTvhS2dc3HBx96+TJJsXaGRor5jK83KRrpT1gnET1I6jRPVrOC5+7D7AboDWk2bJjrCxAcqdcPk6s6ogMwOnAF6gyedfIVW/KqOj8Zg2ZspcdL+r4UQ0binBRK+RRDKufAbxJCuXmfELB062ZQxaWj20u05pEUUVCPJBALoYk8JJKlvLQxVSJBp7JaMRPLpizSuDbV+SL+x7IfwYe7rwG7mOl8euYW5vHcwAH87WN34r6Xt2F2fr4i8FSVnautQokdcSyZoyZ+4uIAS6nLYjYdST4NepaP1tgcg6i9gV29ZMVD1symRuMBq0hM43or9jdyENRTnQxmcZsOzQsJ09D1xj0dO/mZfB2G5XW1kHNm0Jj8tRar0VysRilXwPTiHM7MTeHs3BT/LHIxY3VCSjuHzg//J1rQaCyZCrhi5LLwhKq5Yp4UkFIO0WskdrdLbaGItmItGgpVKORymFqYxdDcJEbmpjG3uKDNzzWpX633xZFNHSQl855MPkFfFWwN3mymQNA5yWV+ej0LXeKxhLsUQ5jsL2l/ErEPxaGKUMlPMYTvC4/dfENXFkFTExPTmDV5vKyIjJUGUR8ieiDOt6hnOk0epAt81+8J54AGdqh6s89W/dUW2GNtL6/twsdXvx3X1PemI+I5bs2y1I+PncVXtz+Czz79PQyMnq1oxAQGc0ChoxnFK1byrQbToxNlvbrX9KAaN5Jcb6Wias2UxtGfURU8VRnLqslPHaVDrwyS3lwYN9uJ85JuVOL+hMYxvmpPOFI0jyPES0Lzq26UHxQxHrPnXghQSrk8Okt1POfn5sYVuLyuE42FKm4ct40P4NHhQ3hu/ASG5iYwT7wEeuIqQAFlKuWz5DjEc86SaK7ykN34UbOpR345V0BvuQHXNSzDGxv7sa6mjSdHH58Zw5axY3h8+BB2TQ5idH46dhISchHMNxpBAlIHsQFqqv51rGDgH5fOMHOVWfr9Nb0fz5rpJH4x6Q5NPdAQOPaPvpKiP0xEBeg8mJQYd4xrRLeJRyLowjCQpLjJS2mTEgWcOqvsdBCCcSstqayS3TYsW72wyMEfLLuBK6fz6RmfmcbD+1/Ax5+4M/WtjV6Cm8vFtzjmreZa6k7f0vG+qoBULaBbhohRNaIiOEW+i8PguSqS6D9TGYtmxWWX5UiaNAUBneflDIRMzEH6gsiRpoww7TItLmLNYCulrAIdu5PcXrPUl1wOy8qNeE/beryvbSNWVjdLN6XOLs7jpYkhfOvkC7jvzMs4OT+B4NxOgGsZbvpXyAPRV0rtBWXCaeevzsz9vqqAg7+Zc8QcAnac+t2ta9FWrJG6nlmYx7axAXzlxHN4bOQQRhZ1eUeUGr6ayx9i7eETRZlSmVANcdxUbUUFOwm3Wc5856jv0/62SicymxAg6bQsk2VaKIm/XkFJZVXVBODYFZovOtwk90GN2gvhBBd9FQdMW1hDYiwTMZJWwqwI3HNKDKkxQhdVt+KvV74Fb21e7YvuV6Ud21rYeeIwPvnk3bhz92ZMVpiYqDVhhTxKV6xEvqPZO9UkKz0klaDTKiYHQWEVfdEWvRLWEUqLhxQUTb5Px05KoqrsBE9GvGmSLR/HIGEXyZagBaxK9YWs3nUYda4EuDP+jpY1+M2e12F1tT5Blh3lfX5kAJ87vAUPjR7CeGEhup4ywYcSHlXdZcqY9mb7BDVo8FovE3IEge7Gs22F3nI9PtBxKX62/RK0Gy6CY1vPm88cwt8ffALPTp3EXJHRN5llkKBnhAub+Rb2J3g7kis18GGTDeGL8S7UfAOf/AO3vPiIpiRjtPxHmm08bVKparXjHTw+Y3rM0VhNymcGpI28qWAPi7q6XlpBJx6Ta2BZQwR/Ucd9CQDTd+HfsY8hYHcs/GTrenxs5VuNQuqLiqVsx2oeHB0exL888wC++OxDGJocXbLuKQZzdVUoXbkauQZ59WIaLKkI02iTjMp4CR0Ef+4xo9vNV36j+LVKwiG9p3MQuBi7DXTW8XWibzg+YEQi04Grqpt41O7HW9fxyMH8wgwmZk5iem4YNaVW1JQ7kc8VeEGw7x56Hp8++BReLk4C1aXISAYDKC4Y/1Oz8DI4TOcODwrjRrACdfkSbm5awSOXl9R2gFVvnVuYwsT0ScwtTKK23I6qYjNyuQIm5qbx2V2P4cvHtuFMXY5XPZXv8I6xoEe4gWMJeKF9l/S4FD1ws5OOEg6d5ca8u4VbLabvw/yGKnu5mic/qmM1N1RhC8q68Uu6gkjeXWrqL/q/qwo33fiQb17zRGtCQYVGwPN1Ck8chNQtJd0dKmoi8llsb7Kw3v9efhN+ufNKXoP8fHhY3sHgxCi+tv0RfHrL9zLVPFDnYTJq+a5mFC9eHigdyyO/b9C0HsiL+tEJhk6fCv3vvRKw07ASCgfvilrsqmPkp0FTjW+wL1EfagiCgxT+Siom+vKCB/miJgIXcgSUGmU7PvK5HC9n/olVb8cqHj1YxMjkYbx88i6cGd+LjobLsKrjnWioXsbHPDwyhL/fei++M7QHk+21YIm1enkl89fExy1oSTN9w/E9VbuKv2VcsK2VlVXN+FDXlbildT0aCmUsLi7g9Ngu7D91DyZmB9HXchP6Wm9CVbGJF0R7YP8OfHTLXThQnkaxqxm5qnKQs0tudJAnoAqYhvNIE/6rToGy7z2C3Ok1gmo4ZPhSyYlDb/kRVhU2wUfh23TxS8UsscXgN5qjVWUOAu18KRAZKT6+P0rvkNUjKeFZhgBFdzFlAEpl9FikzCJgUny++GE9s+2FL657D/fiz5eHlVO+7YUn8Q9P3Y39p48v7ZFGRREU1y1DfkUHcpoERZO+0B9tVLCncwBsRp6SWfUPFTYMRvJQgBqCZmDNxFjJY8l+vWrxacATNTWSKyLpVY1alvScuWCLH8R6iTC/G0yG/79SRVMlLzOS19X34bMXvZufXGCh9BPDz2DrwX/EyORBNNQsx8aen8OKtregWKgBqwPy0P4d+Kun7sSu3CgKfW3I11ZpVtLiQoVwL1hUaVOAzj5/mWBJs+Z2ktgpqbc1r8avd1+Li2pa+FHcqdkz2HP8Nuw5cTvm5qewquMduKT3F1BfvQwsmvj0kb34w/u/ihdHT6C0rA3Fnlbi1Cu5IFqess/YqGUlfjILMJUJ+USeLkJOLCxhsew0SbpGwq9xz1r1gPTeUKIfoZOEg1AJ8Ml3K+lNj4wsxo1DoU1MVI6ZSUpJeANkROnude+lnsIaNJbha+Ltx/ZdWGZhTXaV87+uvQWsSNL58IxOT+Ke3Vt5tcSdp45gIUM5ZZ1+0OKiXELp0n7kO5r0d15LCFEz1v1EUKKkCpjpb4tSshsnOwVd/OBD/7gPCqS756h14hI0n1HjNvL4xHVQo1+KXo6OZaUbLmqdDe/mKAJzEK6p68En17wTy8oN3LE4PfYSth/+LI4PP4NCroy+1jdgY+/Po6VuHTeiY9OT+LvH78JXdz6B0ZYqFCUngUAo1cPXO0luirkR5Wd8ZNqxyMma6ha+tcC2VtgphsXFeRw7uxnPH/4cTo/vQVWpGWu73oN1XT+FmnI7jyA8sv9F/NkDX8fuwaPI11ajtLwdxd425MpFbR6huYyXnibGuXgiKulg6LQQdXvTOp/p6OEOeujk17xdqh6SifxOtsXgBk01aMErej2nw7hfeFL06d/aDbk1lmGjsUprXQ5QBkCzKaJsThOrlvj/Lr8Rv9NzHc+ofi0f5nWPTE3igb3P4Z8234NtAwfAkhSX4jHNLN/WiOLGPuTqqy3DxKlYQT+G3iy8Iomiza5aJM1MnmyGOi1e3dzh5ly30krp4HCck/lHR5LDfjQgueeRVnHTHu0Cz1uGfMKcc7Z6/sO+m/Cm5pXcAZiZG+Uh9hePfgVTs6f59sL67p/Byo4fQ1WxkQO29eg+fOShb2HziQNY7G5CcZkukkCrcKWdj5sGbjqascy2E97VchF+u/e6yDEamz6OXce+ipdPfIcP3tl4BXeMuhqvRiFfxtTcDL7wzA/wmc33YWD0DG+Tr6tGqb8Tpe4Wy/agYrZNMupyWj2ZxrOZ9wrSv78kzfzfVa203okx9cdzENIqE727IEpv0l8zWFCz7DvApMyiHBHSXapj6y3EVsRvdH/GnzLKCML8uMXPAzQvktUVyvjauvfijU39r2nlRDbjs5NjuH/vc/jc0/dj68A+zMzPec3Bp5GWJPkciis6UVjTDVZJUX1isaEupNnDNsJhUj6K7pLeV1kgFBM9a7kZzt0iHl2nQ2NQTRrW4jgReU1Iu0k3GZAZzYNaWo6rEK7oe73CzK5tgv6SeHQ7BxRj6vstxWr8dNvF+I2e16GtxJJkF3FmfB9eOPpFHDn9KHK5Inqbr8fG3g+grf5i5HNFTMxO4/PP/ACfe/r7GJgZQ6GnFcVlreF2Q1678yTyNTNwr1Eu7LFL1QIEf7NFyNrqVvz+shvwlqZVYNGEuflJHDr9MF448gWMTh1FbbkDF3XdgjWdP8E/s2fv4DF85MFv4cH9OzBNTjKxLZby8o5gu6FaLe5mEDDKc4JtVLZOIzCZ7FE8gEmiMoAg0cr/fZ0QKqWeLTqsYgdBZhV/sF2KP0tPVj5QVx++Vrji7QWqeNJzqk0BuXDYX9WE7136i+gp1buantPfz0yO4c6dW/ClbQ9j+/ED5945YMq+pozi+mX8FkedOpNttGoI3AZRhzAtz5qMJGns5nW96criavq7AKqmdbOIex6a1Apx/Eyyboryj347NzkH/tTWz9CEKVYH4LLaLvxWz+twc/NKXhdgfmEah4YexgtHv8CTFuuqunmofXXHO1FdbuWHE148cQh/89i38eC+HZgqLKLY04Li8g7ka8KcBB0RU/GTTEs/raSxvFE3wW8sevAz7Rfjt3teH+RdLC7g7MR+vHjsyzg89DBPuuxuuhYbe3+BJ2kyh2hydhr/9uyD+Mzm7+HYyGnptlXWK3MSin3tKLHthhrhJHhwmq7Uuek1g2fpMYrL1c1o1M2ypkiGx/h6LeE7t4ocBL3acisSnxbGCVg0nF5uCGObCiJpsM7fqnRJQiYqz8eXPMlVTRqQ3tWyFp9b+xP8yNFr9ZwcPYuvPvcovrnjCbw0eBSzS7StIOajN8o55NsaULyknyiVGAOUT8yU8KNRopWJPy1a2G529JTzUxT+VE8jy3RsiR8tsmmERLd6iYAhUBmiLlY+8Jx+Rkrz3um7qmyy31qKNTyT/1e6r8byqmAbYWzqGHYNfJ1vNywszKG76RpuNDsbLkc+X8LYzBRue+EpfGrTPThw+gQWy0W+ii72d4aRhHBiSsiAjVeVL6KxUEZ9vgwWQWS5R+w7lgvAjjyzrQ+mBlliICtwzMocs4JFUwtzmFiYxRj7b34aY/Mz/DdZaqhSlAnCjjFeWtuBP+u/GVfUdXO8TM+N4ODg97H72DcwNj0QOEPd78Oaznfz0wvs2XzoJXzs0dux6dAezJES6xSvvFT6sjaU+trjSAKtgKuJEPP3iepPEEvlDY0dNfJ59K7awsyNfjzmybDOTQyVK2m/wW96vZk80aFxEHw1HD2C4qdyddPXjWZFpkMJUZ6IUUFEVwOquLxDh7VshE0OIh+xNJJIyyE2JWQ0H7lF/OGym/C7vdfx0qav9sOOMr48NMDDpXfu2oKjo6d5MlIlj1lgZabIFQsorOpCYXWXPgs8PDch80c6mkSqQMf6VNmoG3h0EmEnssj6u4CarrzRq4pRWhi0POmQzaSaEhEFzYuShjcfRasEB34Ut2uAxPjKVJhR3ljbjg93XYO3t6zhdzLML8xiYHgLXjz6RQyO7kQ1T9p7L9Z23cKT9hYWwWXn75+4C/fs2oqx2UnkyiUUultRXtWFXC1bSedQRB7tpRperbG3qoGXdGbHmlmBJnaSgC0M2HjcQcgXUEAuzEUKCvwwJ4E5AdOL85jmDsIcxudnuHMwPDeFwbkJnJgdx9GZURybHsXo/Ax3KtSHTZlFDH6j51r8l84ruDOysDiH02O78eLRL2NgeDOPJixruRGX9n0ILbUXIZfLY2hiFJ966h58dfujOD0xasr+CWpC1JR5FKHU3xEcgaRFacTVxOJbcdCDApol3MaxbGNqvRTp8OMtmBYjmY7XqSXUSl7s5qiKlTRfgghC5SbU7HdlQ6us7Bx9qApe4f9E8pi//pb8TKMh95xiFizfsfFn8cbGFa96giJzDjYf3oN/fvp+PLDvebAtBqaQlvrR4ySHXH0VilesQp4UR0qKsp9wm+SVfa9lBVWK1Y1h6qsaO3BjKp2ySMt99t5T8WLYlU7NSj5Agj3CUaieI18J1PmJYzy6meomQxB8H/9/gEvjfDTWoTHPKipexA1oUFFxERMzp/DS8duw7+R3MDM7gtb6jbhi+a/waAIrHsSuO//Ors345BPfxZ6hY5hfWOSXjTX2deLiyy7Dpc09WF/dhu5yPY9SsHwHdhESixjwSEEux6MFQcQgMHNJvRhIZeAsgBv/ILKwgNnFBe4sjMzP4MzcJE7PTeLQ1Ah2TZ7CrolTeGVmhLdlD9s6uaGhDx9Z8SYsrwoiA+xY476T38VLx2/F5Mwg6qt7cXHvL/LjjcV8FZiO+P7e7fj443fi+YGD/Jinla/YHKpKKC1rR2llFz/doEqgVCZY5/15MItOTwTHGl2aIB5QZ1KcMmNiKNUeuVUDNe9BLYnw8lPVTYh8Jipj1BizHb30SYpU2NRpe1DAMkEnElO/a+lRoymir4i3mR0mWSnFaiUVhSNllPYttmp4+or/xgU2+xzSjcqEnt2twM5zf+6Z+7HlyF6MTU8ZDwak6z1urQqg1E8+j0J/O4pre6XLmSgOYi7NJMpmmtishuIYRH8miONHLb9WPjgzGUadhpUpxt+kWwQqkhVlk6A3OdIfIDWERZxc4H+a8w7cEMZSp9uhkN/XAW/hNPKTixbBiYZWfLj7ary7ZR1qCyUsLM7ixPA2vsI+OboN+VwJ67reiw29H4iS91il0Y8/fhfu37sdfU1teN3ydbi2fy2Wd/eivboercUavlpn5j+4ZsS3/oyfnubOw2LgRDDngTkMzFEYnJ3Agamz2Dp2DNvGj/MIxO/3Xs+PNTLnZGFhFoOjL+CFo/+G4yNbuZuyov1tuKL/V1BX7uJEOXR2EJ/ZfC9u2/EUT2D2XeBzJ2F5J0osklIqJIyfVZz8pp1C5+r5Q3xr1VMeyo/2ky5pVBe2VPwG6mGrchoOzMRxiRyEFJiX4eR/ZXtbNrkxSsh5ds/TC0LRUWAi3eSrhcJ5BaMHN2RJGTdSTTD/GbuUj4nPrqzvxu0b3s+VyKvxsHoGR4aH8N1dT+Orzz+O3aeOYHped/lKZdC48MGTE69cjXxTrXaghNBFZLLTRCfs/A2XUxBBIWdNyXCooJpnaX9Pj9skJ+pUmGB0g6pWOvGCQ20UJvwKvPF/qS6TrjAkODCQxsULLk4L3jdSlvyqB0CM7yPNNfkS3ta8Cr/Tex3W1rTxUSdmBrHv5F14+cRdPKLAjj1e1f9bWNZyA89FYKtqtroenBhBV0Mzuuqb0VbbgKJhy5CF8ZnjwbYw2L8szL+4OMdrjbBaBDzrYHE+uBmRORa5fPAf23zIFXjZZ5Y4yMZmxw/ZZ5N3z3IWmKMwMDuGM7OT/LbK4L4FFh0J5vXSwK2YmRtBc+1aXLb8Q7xyInMWpmZncM9LW/GpTffyhEw2zzRqljsJ7AhkfydyVUGdBFEOWOIJl4WmTrtXQUWTsLs5ICuvUh5LOrSS8BB2tzsIvE96M7ZJHfBk7xTHHJP9+HqsiqhqAFoKBCagiTgn7N2M7eQ9C26aexgg2sRLpWoFxeVd69j25zsuxcdWvo1nFp/rZ2JmGjuOv4Jv7ngc39u7necbLFWNAxWD1rnkcjzvoLi6Wxs9SJI0jYqXRzbyq0XYBHFjw8S+Sc9o6WRF1ZIBNwXfqrcV6nlU5S/t+DomJPZXCg6EU5b6iVY0Glm1iE467+ve7gAAIABJREFUXOhoqMdP0FLfu9eYtPJM2BOL5rFkRXa7IdsKYAb81Ojz2Hn0azgxspX/vbLtbbi074NorOnnb83y48A5FAssUiA/C4vzmJ0b5cmAM/OjmJ4d5vUVWEh/evZs9D07aji3MM2dBeYkiLkxY13Il1DMV6NYqEW52MjrMVSXWnguRHWpNfyuAeViE6/4qOpYnui4sIBiPkiAZPdNnBzdjucP/yuGRl9AqdiANR3vxsXLfpH3yyISewaP4Z+3fA/f2fk0hqfGvaMHki7gkYSOICehuhxHEgivyM6nWwuqnBC/YeMRPZ/YTI0NkoBtxDJThiCxxpQ6EnsJlEvszr7ETzpVmGWLISkcXuLipE4lvSTnRr6hxxtduKOKK73eTswxDa5MStjlHJgQ+5H+N+G/dV/Nk5TO1cOE/fDwIB7Y9xzueHEzth8/yAVe7E0u5bg+/JFrrkPp0hWOwkiq2vfpWTEsOmKpTrtp8pL98zK9qhpYIrQK5yAdDOmxlQRXLxeaSmQOGawEFve75hbud/UkKuUKvCbJ7/Vej8vrglD71OxZ7D91N/YevwPj0wOoLrXhsuW/jJXtb0WpUJfoiEUG2IVHo9PHMD59DKOTxzAxcxzj0yf4vj87RsmjBzyKwKIGIoLAHIMkk/IsBRFJYNGD8L/AcajjjkJdVRfPIaiv6uUnERqq+lBdbtY4UIvcOdk18E3sPXEHj2R0NFyKy5Z9CF08tyIPVkn1O7u24J+3fB8vnToaRQ/M7piZ3ZljUOpjpxs6ka8pB9tdorkaQieOg9VAO112sxuh9puVT4yqQxVVbZTagi9fzUHNpzmCIEMj47fyqVvplUCEe2apKibSwYVTQEqbV1J00I8P/fHn31L2Nm/b8H68sWkF3xM8F8/4zBSeOfIyP6Hwg/07+PbCzPzsOUhFVLxow2RYlndxA6t70Azk5TkHNJGrqadNjCAyEygh9QtqzHTOgnAMtEbPn2sq9VtjfjJkLznKBRl5KYXMRvjjeNIoXN4gEEjTLmFauRA8IIyk/X2/3p2tNDhhBZNYpv+vdF3NTxrwS4zGw2z/s5swvziHnubX44rlv4qW2rXcqDJHfHL2FIbGd+PM2B6MTh3C6NQAJmdO8ZsRA2eAOQJLV3wsoAzDf7jlkCuhXGxAbVUn6qv60FSzkidWttSuQbkY1FkJ8iq24ukDn8Do1GHuXKzt+ileVplFD9gppl0nDuPTm+7FPS89C6ZDnDi0WvMcjx6Uelt5XgJzEqJH1fHiB+uAakRN5U9zJyqpK5pXOExSK9hGUQ2ZjDhZ5pQB6DQVvBmPOcqgxCpWvqgiFOQKyOxGpKpAZO0bvS8wwDej3L1yFAmlLXzrsGvJAFiPuSSJIPJdg679YdHpV89ZSNRm7zDFc8/Fv4BL6jp42G8pnyDXYBDf3rkF3939DK+dzi5fqvQIow+MxpmwrYX+Dr69oN7aKN4JKEF7MO3f6SHR5hro9AcZgtNUs5JJzsNMI5X7ddDZeIduKATvqpUj/VWbjEsCSfQD6UsDFP+KZaNH98eqZ9WFQJrlJgs3U7hjHNj3aa12SZVsHQEMHbDTBVfUdfGkvpubVvJW7BrkfSfvxu6Bb/AaCaxg0oaen8Wq9h/D5MwQBs5uwuDYToxNH8PUzBBvz3IJWIRAFxXwkaUsbSKHIVdEqViL2nIXGqv70dV0NXqbr+Ndbjv0KRwcfIDnM3Q2Xo3Llv0S2hsu4TkOI9MTuG3Hk/j0pvvwytlT3PHJQk8JdsZPzElY1oYyy0lgV2XTxxbZU2RVaOxARkxevl9Mt9J5GWXNSDhx9aV5WyG6IZ02sSxmGAo86iDE3B98oqHJ9GwWKAn5GKuzF0UAVaW/mFskyU7kjlDasdpHmKQRNSEOWKhHnWCpmaV0jRq8rC4r0xkCf/ciBpXBwAqVfGHtT2BldbN3XrPHZHkZ1Af3PY/Pb30QW4/tw5nJcZ5rwPOc09lbn+FkPWB5I8eKIq3tDRITteEf3V67Sh/zAIJ1OPVMxiBphYLG/HtxTI6aZ5tkUnqmcTOD9wJQgmRZ8cScp4scSDNMDO7jpEgDEadIelfFEb0eVXhSCiipxiYk1JFJlj61hV42dWSNWmp5wRSZiRNaWS4Cq6740+0XRxE+5hhse+VTOHLmUZ4nwG45rK/q4cmLzElgkQKeaFhhLZHUgmcxSCy6wU5fsK2QILLQw52Z2fkJflphfc/7eUllEWE4OTaMf336AXxx6w/40eeYVyuEih3prC2jtKIrKKZUKMRy6kFmlfLxYkI1tklv38RnvrrbpE5U0xWE0nSWPewhkptwNrQCsA4H6lSooiC2MFWSYqwfMyYnhkAY1JE3l6gOQsRp9EiUSiETrcNM6ui4FuUWikSzbdcwuqOxMtOMQyo6OcAq+/93tq7F36x8G3rLDRV76CyfgDkGO44fxOe3/oDXNWAFTlhiElsBSIkz3hRM1zCJzZjjc3XVKK7pQb6rKZGYqCc54R7ejZtWifPVvuATRg9GCYWc/6EbN6lWqGy7IY2lPHYPVBOn5h5opFGjtWSZ80MARW9uMTzdI4GjOPMOlKTVGzq9aIc8OYL6ja/iV8dh/bCjx1fXd+OXu67CGxr7wU42iIcZ//2n7uVHA8emjoanC3LhMcPKCoz5UauSVqLWAiuQNItCvgpdjdfgsr4geiB4nUUfB0bO4I4XN+Ebzz2G/adPYH6pKqsW8ig01/OkxWJnc3C9u99i36C/kxGmmJ+EC+GukOCLVSevRg0oRxIYye9qi4RYmRSJtJ4NHF3FQUgOblbOZnWl0S9aPFl7iK40JUovtxgciyZr85gHiObRrSJ1xl4csdYu9MksrFpBnq08J3+VTk1GNiUUw/Gr3Vfjf/bdiLZibSYHgRl+VqhlaHwEu08dxd27n8H9+5/DsdEzPKs6YsukQ51+ueshQSYsstAi31roawN44RT9Ex891altDwB05lzH5IoV5QVKCPDBR9P5oiQcSnd+gCpuowiX6nWl2eSqY0s8qdNmuoAIhZi/owndRvgJPziY31eiaB44BTeiAYeNAi3PWH1HUh8+Ci7sjv1TQB7d5Tq8o/kifKDjUqyqbuHFhYJnEbNzExiePIB9p+7mdxZMzw2npPX51ZwlOjbWrMCqjndiecsbUFfVw49O8tnyWilTePyVXfjKtkew+ZWXMDo9UXnuUhhFKHY0o9DWyP/LFU35VzEfyuzmIdSWbWOzNPnRRydWiTe1shePnOBb9eJPXRBClVO6aE4mKSaRFH8jIgfZTFgq9ewQwqSgK+RJagW5qIZG00hfaaeoUxvBrOJ1WdLz9GMP0Y9iY6140Icz/3bl2/BznZeiLu9/xJF596NTkxgYPctzDHaePIynDr3EtxJOjo9gnoc3w5n4amnPibNz3TXFMqqLJVQViiiwI1P8fLZQoYFiYeelZxZmMT03h8n8AhZ6mpFfHtZnNyYJxCH3uDdlAgYcGwWeAhba/ISGIy9Le3+R8+ovQ5WgW+8cxT2Kqh0JW+6fyWOlMt1FiCIo4o0IR2SGodNemRTpnC2bIIW/2TIi1Uvb1DnosJADqnNFrK9p47c6vrP1IrSX6iDMFjsSODp1BEfPPI5Xhh7EyCSrKDjjKTXne7Mc31roaLgcK9vfzq92rim3RlzFZJnVSvn69kfxnV1P48TY2SAimfXJAXm2YGhrQr6qxLcbC60NvPpkItdMGSO9fNE3RDQhVcBCO0svOFTdkwjhJpW0NX+Ke22ardNwHO8thmSCl9d0siPCwSiyg5CCqwjYogQl/yrDdNj1pqzMaUepll+OwuqdV+UK3DCX8sHlKIzpZxbnMbkwxy9EYbXPJxdmeUWyU7MT/Huqa1LMRHpPsAWD4bNrfhzsoibbHQyz87MYmhjD0eEhfgLh4NlTOHjmBPYODWDf0HEcGzsjJx7qFlspgC0XiuhtaEFHbSOaa+vQVdeM5uo61JaqUFuuQkO5GnXlatSUqgLccSchSBViOFxYWOQXPbG749mVuCOYw1RLFabLOZydm8Hx2TGMzE3j1Ow4jsyM8FKxeieSSoR9AhlYQvbyqD8ldebfs39L81xiPJgUsHmUiscXisbEP1GIpfKKiaqTIyjtli//Wfq3BN9CeH3DMnyw83Lc0LAcdYV4S4FFCY4Pb8WBU/fxWggzc6OvasJhCtGtqCmzG7XlTn4PA3MUWuvX8y0I8ZwaG8adOzfjy88+hJeHjmevn8IiCDVVgVNQLPDoQb6pDoWWeslJMPhxGeeY1DBuXnMPleQxl3NL+0zGRNwjGlqolRTJokdKq4oPifkrV1VYUy8+FZxQIy62GWILqWYc6ifMu1Swz/+0AMcYnBmqci6PrlI9r6W+JvyPVQ5jl5Q0Fqp54RMWNmROAdtrZPW92A1nrGtxYxorScr29GcW5/iFKGfnpnBmfgqHp0ewb+o0Dk0P4+WpM7ykqbhMxabS+W9i8ROaQ3Zj3N+tejturO9DfhGYnJnG6ckxHB05zb109pllEB8eGcTI1CTPJxD/TczNSJnFiXPFOkeK8KPAFcNXS0091rf3Ym1bDza29/FKcO11jWiqrkVduQpNVXWoL1ejXCxx/LJ68Wkf5jgwR2B0Ibhcht1GNzw3jZOzYxiYGcNLk0PRf1PsGNhCUGfe1xt0QpTw5kMEJdKF6YiUse0jOMdXEKaqETlp1hxOd+HdGw6NHhOL8mTRGpJ05aC99/hmPUeWSDpl66aDf7wnAIKdJHpz00r8avc1/LImVgOBqxoeqTvM8w0ODT3Eax8s9fFEFz1fi99ZMaaWurX8Loa+lptQU26L5JBtOTy0bwf+Zcv92HZsH9/eTP2wEuuNtcg31iHH6k6z/5UK/O9Cc114d0NsvkWODrV5yTFlixj8HnwnXANVqtLwiVJLK8UaVc/DpmigFpdeYsAuydJUUky+mz4pMTLGIcak1Xoq6guCBOH0uKSmsIyhcNPjjUlNGY8o4BGRFQ1FWXC7lM/zSMC6mjbc1NiPq+q6+akAdlMau0a1Pl/iEYP0mJEnLyIK4/OzGGc1zOcmsGdiCJtHj2Dr2ACOzIzym9aYITRdeBSrtxyaitW4YrYeC4dO4ezwCF91s7wBVt6UCd7M/BxfgZuEUCswJjlh97Xncrz0K9saWN7Yhh/pX4/r+9djXfsytNY2oL6qBo3lapQKxUxOQCpWCRszPE0vzPPb55gjxqIKz4wdw1OjR7Bl9BjGF2Ywu8BcBcX90hk4FQAVFzpeIzxWSRZnOsOoOh7B3Ij0GPbchYccuxOxGg0+SSKiUyzxQPF1CmLsqHhN+KLIBqb3LVAcGzRsOlxQVU63mPwjKKnHI+qIXc70E23r8JvdrwsShUMHiFUzPDmyHXuO34qTI89hdj7I5P9hedhRx9pyB/pb34TVne9EY83KsJwzeGRw86E9+Mym+7Dp0EtcR6V52OVNxZaG4Hp34nCyLYZCUy3yzSySEDhpqqTox7EovaiqyjlJuYpglOGi28kapaPTXTYnwLReCBEk+J84CHJvZnWRhmzJU2FWwRM/auQ4IpfQM9KJbhKepAqG7q3QgWk0M1LmOR4BYJ7/qupmvLPlIn4D2+qqFu4IsKtVmTE81w8Dh9UUmF2c58btxYlTuPfMy3hs5BCOTI9E2xTCuKk8wG9vW1jA3MFTmDt4EpgR3rgCu8mwCb+e0oK8yj4y3mAGv7pU4k7BG1dcgls2vA4bu5ajroptEQR5BOfTw/DJnAYWrbnnzB7cc+Zl7J86y7d7WFSHRmMiA2kyhsSCRomIZI+anfWnCXBclqITNv57NUvDbbojnskwJBUVoUQj+ll4RdK4mvLCvF8qvJGHb5+dqp7NrYOWNhD126N2OvgZkYQK57cqsuOLv91zHZqKQSidcRe7k+Do6Sewa+AbGJk8ENYwOJ8k5NWDpVSoRW/zDVjX/dNoq98QbTmwEw1PH3mZ32D51Cu7/Z0EFj1oqOFbCvz0gvLw69+bg+0GFGMnIUk9ezxA5YnUUXEvFMf8bG9OJSRoKV1lYnpZfY1OQvnMdX3Nk38pHWIPBJFeOBSweAiC1xSFglHHloTcpnwtvyVX7NJyLQFqdNWlghgBC8swrs4X0FWu51GC97Vt5BEDthI/n54zc1N4fOQQ7j69F8+Nn8CJ2TG+FcGrq/Oz0TL7LrIV8v6TmD80CMyGToLqMGkW0EnpCnpmSYOsHjzbFuiua8ZVvavwE+uvxQ0rNqKlpu5Viw4sBU2YQ8CiCnef2YvbBnfxbZ2R+WnumJl8StkQhlCoVlVIKb8MR0CqM13uWWRxDvRGUq1bosgyecloFF2OkqQdcojqkohJRHxG6sXrFJUy6Sw4iPWU7YpeQ5giVFz0ABWHQZ2HBh/MMW8t1XD98Ws91/ATRFxzLs7zy4teGfwB9p64nW8pnIurz90cdX61YCWeO5uuxsaeD6Cz8UqUCuxSuSDniEUQ/uHxu/i/k7OOpE3GUqyKKoseVIdJ2ZpSONxJaKnnjgJzElwOp87eZZNkPd7tDq1qQenfspTyv6KvmN4Jttu1HG5zDiIwZciiCELwNT0cFKwUfR/ThFWYpP5sWOKbSMJ3ieGywuQBhOiymMuhplDCqqpmXFPfi/e1bcDr65fx787nhyU6si2IB4cPYMvYUeyfOoMTs+NgWxRsuyJQPgHdFufmsfDKKcwfGWRF37VF1wSD8X+VPDG+1VIo8gTC7oYWrG7twg3L1+Mtay7DmrYeVBXPb1y56MgchSPTw7h9aDePKOwL8z+sWw9UJHSRLukUo87kWoyTZGhd0Jt/l6U2RWEkn+wMRcaofMvoYHklSv3y6IwygdCiYvy1j6zOaTwh6MNftVNfwDo+6ZLpJFZC+ZbW9fwypmXlBj4qyy1gNQ0ODH4f+0/dg4npE9mJ+p/0zbb6i7G+52fQ23QdyiV2NX1Q++Hxgzvx949/B88c2WvPSWD1Dxpqg+gBM44K0ST7U2JOQgPfctA7Caq8qgIed56WN13ki/qjDOh6SfJcY8uY0DBmIZWd33BsOjdli4GbFctVxdSddkKf8AX834hnFMcyCLGEVfPtUJp4DrX5IvqrmvAjjX14V/NafmfBubzUyBfMNO2YcTs2M8rzFJ4eO8ajCvunT+Msyy9YmIv21xdnZrFwZAjzR4aASeYkhHhUGDHCeA480bK2VI32ugZc1NqNK3tW4fV9a3H1stXoqGv6DxUt8MEp22bYOjqAfx/cyaM07EQEy/nQPpLG0bQQ6E1oELdKcXWtmrn4cK0uxkfHoyojjiAk+4vno4VWp7yUTngT7iTpSiqHjaN9B18nx4eKOl2nm6HdBZBMhA1BBKSmQhXe1boWrP7Immp2lI85B/M8GXHfye/i4OD3eDXEC48eA021q7Gu671Y3vpGfoOkuH/i4f078PHH7sL2Y/t57lTiYUcbq8rByYWqcLFiDw7xeikFdrqhqTY43WAU8sAWBk9SGlRRcEu3MhDhLZfcy29qWhNgEkcaVTWgm69GJPhX9tsc08QP7KyfGnkKWWSVZvjRBkIIQAl59JQbcH3DMp5jwBwDdkRx6Wb66qsAFjFgmfssY3/b+ABPxntx/BSPKkRh8+k5LBwVTsKMNpLA8iuqCyU0VtdieVMbrupZhat6VuPynpVY09bNtxaynDR49TGSbUQWfdk/eQZ3n96De8/uw57JIZ6fkAgS6Iwk0SFmXrdLgd1s2Q2punMaKzXTCmgJoxgaIyqVehAKllaN8tCIWXWGXp2b8OcexdWCnU54W8sq/E7Pdfy0QrACZs7BEew5cQcODt6P6dkz2Zjyh+Qt5hCwy58u6vpJLG/9UX7CgW1BsEXQ9156Fh9/7E68ePKQdPMjRw2LHjTV8/wDsJML9DGxOHMqQich31iLXDGukxC/bpZGld1d/JGGhH59ybA59YbJQVBlkOCLviJtMSQ9lTTTsysx/a/68CcLTdKjjEkFGE5Bh1EdYyyCJwxdVtuJn2rbyI8f9Vc3oRwePVqaWb62vTBHYWJhDgPTo9g7OYRNY0exaeQIjs2M4fT8JMbHJwIn4egQMBHs6zH0sRMIjVU16Kpvxrq2Hryuby2uWbYGq1o60V7XxBMRf1ie+cVFDM6O4/HhQ7h9aBe2jB3DyMJ0XCBKIEKVSq1wib0G8ZLdKPspBx0lqKQHkpLsy8Mih11r4UgOIetSw1YLbxR59/4wpDHyVGGrn5NbC/49S3jQOEECAVfWd+NPl9/M85d43Y7FBYxNH8We47dh/6n7eHLihceNAXa5U1PNaqztfg+Wt96MqlILd7ZYmffbXngKf//4XTh05qRc+7KmjGJ7U3D3AiGtlHemDC2cVxZxYJGEfAOLJITva4oO0Qwe84aDe37aFqLKofF1jTvCvxJyHnCp0CzGvAOTCiIBEt6TpgPuIMSiG58OlYfOiACb0qHKVqNg6IgBLAYVqsMhSbtkBXdWVDXh7U2r8fOdl+Gi6lZ+UuE/88NWw6IewDNjA9zQvTQxyEsnjx8+gbkjQygv5tBUXYe+plZc3r0C1y1fh7VtvWira+TRglfjxMb5SAPGipPzs9g+dhzfGnwRDwzvx6m5CdlJ0FmlxF30Tt8+Mf00ToJqs9XSwqq86M5IqwCkGV8VX6liIr2NjeYSqaeAdAqpQqZInr5KahLXEL546C034i9Xvhk3N/aHNU8WMTl9CntO3I69J+7EzH/wkskuPC3176xEM6uVsKHnA/yUQ7lYx7eqTk+M4vNP38/rJJydGg+sAYsetDYiX1ctnyQ2+OERTcUHVnuFbU801yFfX82LK8VeBnW0Y0tIeX4p527nt1DSoxNCYWuiALQlBHTqR90xUXEV/h3DE9VBiDXeUoTbU68VIpcvRrtL4bkIxBLsGotVuLKuC7/UdSXe3ryaOwZLMT/X2OfL74zec4vzmFlY4PvqL4yfxMmJYcycGkYjiljT2o117b1oqK7lkYTz7Wjia4lHFt48NHUWXzu1A3ec3o2jM2NgmR3yEoZcvsQTPHVLTT9z49dKhxEquzaMudWQF75JbXepMq7QY8KXl5QRKWSmASOLKxUMJ6cj0uI35qMHejykxT+rh/J7vddz3cIqqjJopudGcODkfdg58FVMzgx6oTPZKCwaxo/eOlZOGUc4d68x7Rp4ykHZ5PTws+2GzoarcGnfB3mZ5kK+zPs6cOYEPvbw7bhn9zM8H4E5BsWOpmDh6EE8nYPAjhrx8swt9cjXVgEiEmFBkMdQjrdjnJj7UvUINdmGG0TUOxcEFFQOVQeBYY+ceOA/K+jM1T75l5wV9WeF07NSJgQS5aILlwTfqdsRykgEp+zYIrtS9U2NK/GhriuxobY9ulY1/YwuvPHDjAG25XD7qV341tBOfhxSyktQLFvwJ91a0EikAZmZ5MZU9IXLgtqjfYvDuTrS+T40rhfhgjT0vHeCdp0OD0mgIhpojZNdJRv5XBmGlTB/d8s6/Hn/zWgMj0PPzU/i2Nmn8Pzhf8Xw5MHUxpEVEWL1AaqKLfzI3/wCK2Z2FrNzY/8BKi3muCEvFxtRXWzmIsBKR7Ny0vPz0/z66jQPcxL6W9/MnYSmmlVR0uIjB17EX/zgm9h56gjy7Y2BUSePejma9JuIoAsW4LyZQ67AVslV/CZIVqo5uihDyDL/V5addDwaQ0Hfc284iktJQh3CzV9whDgu2hILIO/b5o9ZgLbJn1IHQT0znYasQdusyJPRqPOy3D0zmjcVqnFFXRd+sm0dP6HAkhJ/WMPl6al34Q0dBs7MTuL7p/fh34d2YvvECV7Aih+FJOetZe6khZHcOHVztrkP+7vpTG96OOL+E+8KJyXSXMnedT5HWhj0MxTf+s0/zZgsWnBlXTf+qO8mXNXQA3ainh1nHBrdiR1HvoATI8+kLoKUz5XQULMcXY1XobVuA6pLzZiZG8fZib04PrIVwxMHuMNwfj7sUqYGdNRfhs6mq9BQ3cdtwNjUAE6NPY9TozswNXM6tZPASjOv634v324QZZknZ6fxhWcexKc234sz5YVge0FTGMno7FJC8yORYbSmkEe+riYuyRxGhOjhemrb/FztJLX8HYTwXUlA9PIje0hKQoLDIPPuE9sK4qVwmyUolCRKVFDBysaOaYTNNkLcj1+PzAnoKdfjR5tW4j2tG/hJBZaY+MO0pZCNYhfe8sHA8OwUHj37Cm4d3IlN40dxlq2Mwoo6Mq9SN96Pd/1a2Z2EpNISvfqpMy8YFIvOFajAgXbadn1SubaR14hBmR1qHpY+gsN0zK93X4v3tW9EQyFYwbLiRy8e/QoODN4HFklI8zAcNtb0Y3Xnu7Ci7a2oLXfxFTNbDk7NnsGR04/jpeO38uug2emI8+1hFy+xfAFWy6Cj4VIwZ4c9zKE5M74HL5+4C4dPP4qZeXYZVbqHHXm8rO+Xsarjx3h0hT3sptm/+MG3cPferVhsqEautkZ7rXOCtyQGD5wD7uCzfwt5fuSR3+VQXyM5HamNumWKVCIdtlv2EISzLb61hUr8Ok5GGxI7NQEGwy2GqLROxTEAL0WjRaKsfeR+NL2S5qxE8kU1rbildR1+vHUdNtS0/4era5BOdC60fi0wMDo3jS3DR/DNUy/gobFDwQmHyAXVWUi3gcouL7ZonX+v3i0TzoFiiOnv0Weld4MYLxUtzXNxz9LdAlynsOPRv93zeqyuaQHLc2LRg73Hv40Xj34Jk7Pp8w6Y4etvews29Lw/CqdTfEzNnsXzR/4VB0/dh9n5IEHvfHmYc1NfvQyXL/9V9LfdHDkHAj52dfXA2c3YceTzOD2+J/W2C+unpW49rur/DXQ3XQ22DcPyEdjFTv/7vi/hlbEh5OuZUadJhga5iAgcWsJw+yt2EArIV1fxa6KDK6KTHOHDIzbaVPa+0yL6sYXqpUROh/517iAEP/mtNNRulsbDiqGmn+K+CWzUNVz8N7fhAAAgAElEQVQMhJaF/D7QcQne1ryaX47CCv1ceC5g4FxgYIKdcBg+ii+deA73jx3EGLuuO3FVoV8UoTKFEcxOn7WfrudEa8UZ0Mk81Rb8M72HgSpjDyJQkfZorm0SDKl6KaKp2VHzxRRrxxYhv997Pd7cvJrf3sqe02MvYdP+v+Kr5SxPXVUX1ne/H6s63sm3FnTPvpN347nDnw2LLdk2mrNAkP0dZrC7m67F1St+C821a7QdscjHjsNfwKHTD2WKgLCIxIr2t+CK5b+KuqpuPsbY9BT+6cnv4pNPfhcLhVzkJOSLBbMVE4SOzjmKCEI+iCAUmYNQDpwNVrJZcRB8+cSGTXsfqtAphk7ZvJf6csirBFP4YqSyHBMjDsLSOAlp2C2el/wphoS6O8pMckBtvoQbGvrw/3RcjpubVvBa6Myrv/BcwMC5xAC7XXPnyHH888BW3Dd2EBOL7K4Lu0Dr4FkKTk32YZGZEAjaQpjVtPjifWh1mohV+i04lgIHASiqm7G00Ruma97bvhG/1fM6vpXJxmNh9M37/hoHhx7IZPwY3GzPfmPPz2FF+1v5Xr7uOXz6EWw9+A8Y56Wazy8Hoa/1Jr7CZ/PQPaNTR/Hi0S/jwKl7Midb1pTacUnfB7G28xbk8yUeRXh5aAC/fsenseP4K3zFz7YGeMEkZux1N5AKu8B+JE4Cv9wpHzgIueoST3zkyYosPyGtUDja+/Wna6VZIJti/TpnweBA8K/JcLqRc7X8umdPlWEZqDJcyh0Hf5kJxH6vL5ZxY0M/PtR5Bd7Q1M/3A/0IUBmkF96+gAGGAXYMcsfwMfzjkc14cPIQxlPuDy8Fr+r7SKjHBMEyjR2JaJi6pRZ5kTrVw+CpZVIxmNlBcnfjxlTcx5rqFvxJ/824sXF5WGBtEYdOP4qn9v455hbS5R1QyGpKbVjb/V5c1HlLmIynwr2I3QPf4kaW5SScXw5CHu31l+Kalb+LtvqNGoQv4sz4Xjx3+HM4dnZTZicquNjpKlyz4nfRUsciFUEBpa9tewR/cv/X+LFHnkPAbnSsr+E1EiKTqvKluK+BJChyJyFyEKqRZ2Wbl9BBMPOZKhEWd12xvd4yrDZU/GZXP6GDIGjrap7kgWxvhBngZHMjRo1dbBl9G/JVuKmpH7/UeSXe0Lj8P33hI7equ9DitcAAcxI2DR7E/3dsC56cOoaJHDvOJVRT8K/Joc8Gr6xQYtmj3ytLAs2CU2vLfQDik2GZ36wxqUbG/w5PblA33aAc0usMM3CVYtgHllI+j/e3X8LrHnSW6jgwEzMn8cTeP8fJkWd9MGdsw0LovS038FsN2cVF7LigeFhSIrvsafuhz+Lo2acwvzBV0VhL/3IO1aUWXLLsv2B1xzv4Mcf4YVdcj+LQ0MPYeewrYJGESpwbFl3Z2PML2NDzMygWaqLaCL9z1+fw9OG9fNg8iySwRMO66vja54jASu4BK83MIgfsWnrmHJSL/D4HFkEQ5Zd9eEOH0/SOsMmKh3JFTvingknTOKp74NmREkHwZ6E03rfcK1WZ8WdKx+QZ7jieUp8v441NLHJw1QXnwJ9cF1qeIwxMzc/ikRMv4zNHt2Dr/BCm88wi650DT5nUQpo8gKxafp2SSY5YCQxcXaniG/oKHGjhKDhwXSkMYm9DPzvZQTOBkgYGdlSaVUxk18Cz8uzsIqZ9J+7EtkOfwuz8RMWcxbL1WXnhFW1vRkNNP4r5KiwszvIthUNDD/H7HCZnTp2XhZNYHkJr3Xqs7XoPOhuvQLkQOAkz8yMYHH0RB07di5Ojz4ElLFb6sMJJ167672ipXc9zXsamJ/HlZx/C3zxyB8Znp4ODCcUiL58cJC6KXDSSoi+ONwoHoVDgpZbZldG5mjLy1aXAcagU2PB9v35oK1r/IPje2QeVSQq3RiWEt0FrMhr0W1dKDoI/VrI6CKp3JSOA/ppES02+xJ0CdqXqGxrZtsJ/7pLJ/tS40PK1xMDozBTuOfICPn10C/YUxzGf5mx2CsD1ikKVxKXde1fBsyorTwfBS+llcjIURWtRrU6lS8b/qbYN+F99N/KaKuy90ckjePrg3+H48DOZw+bqoomtxFvr1qG59iJUFZswuzCB4Yn9GBrbhcnZoSUaJwWzpWjKoiDsqGZ7/SWor+rlXuTE9HEMje/G8MTBirZgKBjFQi0u6/sQ1na9lxeTmluYx7NH9+FP7/86/1c4sIGTEG43cCdBjR6wvIPweGMUPSgjX1MOSi4v8fZCClRqmsqcmoZv3Z6FzvmQbXBFDkLlEw+UmQKStltWvez6hj78Wve1+NGmFRe2FSpD/oW3lxgDgxMj+MKux/Evx7fhbFsVcuHtcq51fhowzMpBt6yPe9YtMFIpGgKk0UnhP7Bth2TpW3X8rGMLMOL3qXN0bk6OsEXIX618C97evIafmGKXMbErnNnRQ7aqX8qHbS+UCnXI51h54TnMzI+HBZLOn8RE03xZngA7ssmMOHvmFqYwNz+eumiUC58dDVfg+ov+EI3Vy/k2w4mxs/jMpvvw+acfwPT8bBTE4omLzEmoY3USAqMf1T3I58KthaD+AYsesMREtsXA5NbtYruglGVP39oklXJyr1FW1JW2XQVoQUj2nVy+Z9piqFTAObGiG6noAUt9z4VcHpfXdeE3e67l55BZHfQLzwUMnC8YYElSLx5/BV/c9hC+/cpzGO+sRWFFpwRexTJjDDVaom6KDvKGIaG7wi+kxET6BzXUMlV0eiw73UTisuoM2E9MZNCdEYg/0tiHv+h/Mz/iyPqZmDmBba98BodPP7QkYfPsuPjhfLOUr8W1q/8Aq9rfzusisOqK9730LP764dvwypmTxDLneF6BWvyI5xwwB0EkJjLngB1vDKMHfhtUCu51tj5sYpc5VUADuxh/K2fYJPqiX3j4x35yIDvdmSMIbP7eCkdagQQAiAvfkpMmtezDSa+sbsKHu6/hiUIdpbpM4/5witOFWZ9LDLAVzKmxYdz6wpO4d8827B48gqHJMSxUFVHo70BpVRcfvrIVCVUXdDYWx0BzAjGS1+QiIWnREwtWlphIb3WJHYa4Lnxw7ohcDbvkDpLoMJiCqpVVbSkffMxCAxYE+l/LbsQvdF4eLUqOnXmS5x6w0HnaOwbOJS/+8PSdQ1/rG3Dj2j9DMc/urFjAS6eO4K8euhX3792u8HKOH13k1zqLxEW2OBXHGln0gCUmMudgKU4uKGKht486vlXdkvBvmpwozKLqC1sYW+e38PoHEmCq2yB7GufWQYjGJlpJih6IS2gFJkhx+5DU7aVavK9tI36t5xqsrg6ql114LmDgtcQAcwxY1GDzoZfw+WcfxObDe3FqfJjviUbyWl1CcVUXdxSCWx6zP8mL1GRTGfesX0mnGl2jVRj8LODHnQTxSIqJjGBYzKeCwYAqs8JlSi/c3jCUyjG6UzotGo7Piq59bOVbcGNjPy++xo4z7j72Dew69nXMzI9lJ+iFNyvCQFWpGW+9+B+j4kxDEyPRNsP4jHLSg93YWBtexsRvbBSFkZhzUAyiB6wwEstFyAyV7MTb41mmQejKPW7DYSKXxlr9YiqbhskkvzY5LMHAqRwEdfFhRqhe6oJvA2dA6BoRUBGIiE4wsEJIuSJubOrHf++9Djc0LAcrqXzhuYCB1xIDc/PzODZyGre98CTu2LUZLw0ew9QcK5SUfHK1VSiu7ESht5XcN58e+thBoCuNUHNIFtuiFUi1k+gV7RIjeRotklsmvfReem05NrN61KtAOz7U9Y29Zot7qyEN9lll1v/ZdyPW1rTyhcnI5CvYfujTOHrmKX7K4MLz2mAgnyvi0r7/isv6fokDMDE7jXt3b8XfPHI7DtJthhA8tq3ACym11vObG/mpBRo9YCcYQic+k3FX5MhoF3k70phWH9UcD5aOJJrSUOz2XRJ1iVrWicYSn8lB8GaLEHiKMJGWmLxYRe61kM/houpWfjEK21q4cGLBG+sXGp4jDEzMTOO5gQP4+nOP4oF9O3B87CzmFy1X2bJs6LoqFPs7UOhp5Yopy6P3+mlP9shBlvC66D123Ml4uoiIJXKQbXzTqkx1GejAsQMljoVK8/BFfg4oIs9znj7YdSXai7U8IW5geAu2HvwERicPn5dHDn2n9x+9HaNtW/0leOsl/8TrRrBtBlZR8U/v/xq2HN7DaaWW3WZHHvONdSi2NiBXFxRDio41sqOOFSAlneNrClkJoxxAEuX6mhwDythUwIg4JHwHqyCqy/9gAZLKQVDXLBXglL8agKQnTXOxGu9r34Df770By6uaKiJgpXBeeP8CBoanJvDI/h342nOPYtPhPRienuTVFJ0PdRIyRBLsisut1twtzDOIFJ9kk8M/NKcVdMY4m3MgwxTPgSox3Wf9XLxwoGhTVhCJHW18V+ta1OVL/JbGl0/exa90npkbcZL9QoNziwF2FPTNF/8DPxrKnqMjp/HXD92Ku3Zu5lUWk0+OO+iF1gYU2xpRYJcy1VbzREZRetmLTxzTcvdhcBCE001UiuSc6+y3CotucOIrRf1p56CHy8tBSOchKa4NSbSQFYi5V3Z18+V1nfho/5v5/h+7g/3CcwEDrxUGhifH8Z3dW/CV7Y/i+ROvgEUSFtNcbkachOLydu1NcUmTKGJtqtkN9wrUIuoGXyWSHNPCxYBUvq0hYpwSCGG2lAYscdx8KZwCCpZJ+sWaS22roiLxvgcurq7rwe/3Xc+PVrPiSKwWwXOHPsuLFrE7GC48ry0GCvlqXNn/YWzo+VkOyNnJcXxp64P49KZ7cWaS3nopcyOLGjAHodjVjEJLQ+AgZE64l3Egp+UIOdEJJj2dkFzye1k72ogGTBSzKiUlaqN8qh1W8BXf5mgmeFh9PcUqXnV3YomUViU8+0IZNwe0FKvxy51X4X/0/Qi/kOnCcwEDrxUGmDPwzecfw7888wD2Dg3w5ESPuIFmAZPjIU223cDyEoLHZKkC+Qn+32Xu7NsLWrxRnWByLHibsKEonyicEqp1DFsLWZWubOxFErM6C3UCdpWqdRBMqA3x8e7Wtfxa5/U17XyBMjJ5CE/u+wucHtt9Xhcteq3k5NUel+UhLGu5EW9c/1d86Km5GXx/z3b8n/u/xqMJSfkKuSCfQ6G+BsX2JhQ6WCShLnN+ELVyus96nBCZirZC4pbSWpjKpk5mifr4/9n7Djg5jir9b6Yn7OzM5ryrvAoOspIzzmDgDo5sjI8M5rgzf8DAcRwcd2Sw4eDI8YADbM4YyxgbDgcc5CRbsmXLsixbspWstFqtwuY88/+96q7u6urqNDPSrqXu33HWTld8Xe/VV69e4BESHZziwZ/2smqhoNQgiGIr+MTtAk8BCcgJip2emEW0FLOeD5YmujTbgv9d+GZ2tRA9EQWmigLjkxP49bp78YNH/4IX+3owmSduK+F8TJqEdBKJ2U3Mw0END8SgyjJ3y5eNOs/ZbJ0k0VjM6Zm1agxOfehw36BVcwp0InKIdL0lZV03aeiyUIL2zw9CpMF8b/NSfLD1dJY+nu60u/vX45EXvozB0a6pWo5RvwIF6FtVV87Fqxb/BCktx6771u/djqtv/RmeP7jXkwsocJJWl4NWm0OisZrlb2BxEXweLzhv8Qn3xPPa3XW34YKoBbQjY3sGea9xyYtbYliTUz2BgrjLi/t4ABuEcADB3OYNAGDNzPCSFj6c6JpklWtIZPCxjrNxdfs5ITQWfp82eh9RIBwFWLa49ffjO6v/jJ1HespqlMY0CXOamTaBh3X11BOYp3lxDj5Hd6NB9QYr5ZSSSMPqqGSGC0fKgjPc+d75XfhGbQ3Dq0WbaLbpW4ICA3kEZP9E4ODtTYtRn8iwNMWUU2D9iz8xMiqGW0tR6aNBgRiy6VZcsPArZiZJSgH9b7f/Bg/teFayD7KvEcZzmRS0WoqPkEGiqQbx6oweXTHEI65TkWVUK1p5sGDLWh+byXN+WgPV+MSFrgAIusWjeA8hN6La5fWB2DQIbug/sJZCSVy1+DBdtwQiEXJfkWvF9QvfjI6UOjd6iO8XFY0oUBQFyG3q/557HN9d/Wc80/0idMWBkUSlqBblHZiQeQqJ2ZYLpEpr5y5o1FufuI1SXV++dZgZWKOwxXATAQrr2j+kcrGbsy4sZQsPGSBwyjh7kWng97nMGQsfYGaqGh9qPxOvq1/IAiRRoqGnd/8SW7r+gPEo/oEfSY/Re8okWY/T53wUcxpfyfrc3XsQ31h1M/6w8REWk0R/7GvEXB+JOLSqrB6OmYIpNdVAq6rUczQoHhVEFbdcz/UuugYbQ4oVaI3rtZS8LwN0cUxSBWELtY08GA+qOrJqWgBBhQ4CGG+4VDO+jT2ksjV69dAJuX+47UyWVjUVL84l7Bitzqib45QCdJf58I5N+P4jf8HqFzez+O4qQVPy9CmAS65Cd4FsrQMEF0gXkebepcCEtrqezKmCH0L4ZPMkI4dUVsOWkukhiTZ9HuorFbe+lII2zMCMBk6qbGT2B6+onctsoCivwNpt32CZFSMDxTAEPbplKb304vZ34eSOd7CODgz24adr7sDPHr2T2Qp5PSw1QwVpEXK6yyOFZW6sZqGZKdJimEedcpy3IGzAAhpl/zSDe/ntjIIIclM1GmiFKwrYn77XCrJWwRqrCYj8jBSDoRA7OTku0s8Bsng1WpSEF2kPFlU24Adz/xZnVrVzpUuY7xSVjShQEgXGJyexsWsnfrr2Dvx58zr0jw0fHXBgMkWMnWCYJqGlFkhQOB55m/PVA0hba0ASKMCDeZ6xopgZzKswJqY3CuFQjLzw2vDV77x7MYWbWDkIWDLKrMi14er2s/CyqplIxxMYzw/jgec+je6+J8qefCjg14qKKSiQ0DKY3/x6nD7navaWXJF/++T9TIugBy+T9fXSXqTF9VwNVboNAgVP0hqqdJAQwiahuDXvPAaE+sjyIudXikazIrR25yGvi03j6kMFEATME8AOwI3z7BETbYoUHT5ZX6sAZLQELms8BZ+feRFaktlQtIoKRxQolQJkiLan9yB+/cS9+PWTq7B/sFdo0p/diu4/HkO8NovEnBZ2gtHvQUVQIAMEflSwyz/lpiiic0EWWAcZS8Pn2O9ltmbsWsTG7EEYD8nhZgQRiMyhBbZIvALwsuqZ+Hj72SCgkIxpGJsYwD2bPoJDg1sUXiWBhhQVOgoUoKyXsxpejvMWfI61Th5HtzzzKD575/UYGeeuqNbHVe1rFFkxUZdlGR2ZbQLlUakLDhJMrlDxi7z/GjSQU47Z1qsXkFWdHYwB+B8rlAwtyTgnaGFXDG5VA59djAbE5g0TB8lYUSHGjJ+aUpUs7sFbGk9mfsfRE1HgWFKgf3TYtDt4rmcP8mR4EHqnCTdikxsIJDRUI9nZinhNVuhXHoDCAkkYZlgYI+2LpueCOQvuyiASwkUoyALKnxJWDbX88WrRGoSb7KLfKQss5VDg+VtIozlRKLDol3mFsyprKwZcUjMH/9z+MiyubAJpNodGu3Hvsx9H7/B2/2lFJY4ZBcjVsb3uPJy/4EvQ4kl2rXDXlifx0Vt/xsIvW4/FR/SvOK0LTWPrI67FGUAvVKZBmVQmkddBQn01tCrdcDH4RZcLSrAxmjEW8T8qIOFgTsVeLlwriEnSWNMOPlU1qNql7bzlGSjJiSdcIJFySTgFgC3pjHD/osXjODPbhmvnXIrTc23HbIFFHUUUIApQqNYN+3bgPx+4Bbc//yRo+1AJl6NJLYoFr7XWIDG/nWWesz9OYO13Hgg3VjkwsejnKLhtuQQsCw8O1LMzT2MckNjuaJ3IRO6XgABdCVQlUsy4cEaqGjPS1ajR0iC9zEB+HPvGBrBrtBcHx4cxkB/DSH7CDJfNpdurazvxyY5zsbCygV359A3twP1bPsNyMUTP9KEAAYTW2rNw/vwvIJnQXR3v37YRH1j5fehJm/QdjHgrGdeQTaWRS2XQUlWL2XVNaMrWoCKZwkQihsMYw86hw9g/1If+iVEMa3nkSbOQy+huxJJOq6izg0u0xNCmApxRBGWiAxOwd0E4U3UNo/scsm7EKwbF+d49lot1zHCo3RzAQmGMIS6zingCf9+0GJ+ZcT7aUrnpswKjkZwQFDg42IdfPn4PvvXwbRieUJ88jgohpF0+TqFgZzczF0jy1Q6qwrDJAVF4KHjUEUKAaSCkgTAGVkoDW4siTQJrGz0I6X4g8RbHpCWo1lJoS+awPNfOjAvpeoACrsk1SYvQPzmGTUM9uL93Jx7r34Mdo0dwZGIE4wXSKxTwN3Xz8S8dL2NJmug5NLgZa7Zeg/6RPUdlGUSNFkcBAgjN1ctw1rxPoSJZxzbxh7dvwnt+/10GEEj7k0mm0FhZjZOaZ+DCuafigrmnYk59M1KaHkFRfAhg7Bo4hNVdW3F/1xZsHjmIw7k4RlIx48ig84SdM+RNWHUlaPCTVNSWQV3F7V4sKKg1bM1yl0ZzGLLmgM9Y5Ay71oCXYL/yKwbbj6G+l1NTwKO06s14Cxp6Tb7Gn+k4Hx9oXc5UgtETUeBYUWBsYhz3bN2AL9zzOzzXQwFWwirqixupbUumu8+khngmzYwVWWKnTMrZsKw2EEqot1CPCkZdHVzw2sbcOUAwDxdOF88gZxP7BAKMxYWUlli2CuhDjDEvg86KWlxYPRt/V78QJ2ca2cYQ5CFAsGPkCO45sg339e7AlpGD6J0YwSuZBsECCJScacfBu6McDEGIegzLxBBHrqIDsxsuRTpZzXp+eMezePeN3wYFOWutqsOKjk78zaIVOG/2yWjIVgdeG31jw3i0exvuOrgV6/I92F8YcWiaHKvMXOKKPc/4SS5iYnGZbqqDPZVxUWWwdkKrOdzBjTkD0QbBO6SyG4OrfzeJ5xA2XDLp/40XYjipsgFfnn0JXlXbeQyXV9TViU4BMkzcdmg//uvBW3H9hgeOGTjgdGf7mKYhXplCvD6HeGMNs0HQsz4G2+Q8S3ntyYLAUjpO8MQKfLAeKoJgI/Vebd4Ax/mWfqlPVOLcqg5mt3Ru9UyWVMkabgEFdn0whoKRcTNGd86xBOIxSu9rHUTommHD4H7cdmgzHujdidOyLfhY+zmmBuFE55OX0vwf3vksPrjyh5hR04i/O/kMvHrRcsyrb0VCcJsvFCYxWRhHPk+ukHSdGNPXRTyFuGT/1jXUh7sOv4A/923F5uGDGC5Y7pPevGe89biV9+UbEWdw/hOuFdwwRLDv5Q/xqUQZNAjqg47+q/8gSGPw8to5uHb2K7Ag0xBsblGpiAJloMDA6Ahu3bQGX77v99g3cNiOXMvQvmcTFAchnUS8LgutuQbxuhzzyw4DDEoTEBaHKscZ8BQu1vUVeB4Eca+rfkNaRwpk9PdNp+Ikli9B3/AJDIxN9GNk/BCGxroxPNaD8ckhBv4owQ8F18mmm1GRakBKq2Lpgumhy4Udw0fwp4Ob2VXDZU2nYE5F7dFeBVH7ZabAut0v4NsP3oY3nno2Lpm/BA2VesA9ujqanBzB6MQRDI0dZGtjbLyXAQUCB6lEFSrTzahMNiKdrENSy5i8OJafwOre3bi++yk8NrgXw4XJAPCdr1s1sjbPzUFsocWm+LYq7a7CzwG5zD4u1VnCBAjBGvf7klYX+r/EmPJSXWHC6bjGQppeM+cVyBrM6tdT9D6iQKkUoPvGLQf24JpVK1nMg4mCOvJaqf3I9dnSj8cRy1UwYKA11yKeTUt+18G22mClFJKEDYpzqTBCky8Nw0SXyfvD/qBUUxhHqtGK+Sv1ndVSeGvjKXhfy1LMSdeaBlUEBHqHtqO7bz16BjZiYLQLE5ODLBIiI3tMQzKRRSbVjPrsIjRXLUVddj7SiVqmUaA1sXukD0cmhjE7U4uahG4sSidOCpbENRFBZxeVO/oUiMU0JOIVpkaoq/8wnu3ejbNmLkA2pX8/+v4ECA4OPMvWBnmjjI4fMb7pJKtL4JEAY01mDpqrl6KxajGy6TYTQE4WCnisdxf+e8/jWDO8D+M8VojASy7xyW1EEHnWtkWL2gJeQz4B8BtAISyJqpo31Z0jcAMHTEpwI8UgwkbVkD4YOziwBujTqmF/cHXb2fh4x9lRcKSjz09RDwYFBsZGcOsza3DNAzdjV+/BAFkTSycd4xIKzlKbg9ZRr8c9SFI+es5DbDsKpEWwcZbMmF4cz40SWQOGxHGYXaj5Vv7Vf6TuEkOUEXriNrsccdOkkMaRbA3+uf0czKqoMV0YSVOw5/BqbO+5A71DOzA+OYh8gUfBtH87BhS0HKozs9BRdz5m1l+EqooO0GZDIIHcIJkLnKFF0dt+mGkmomf6UIA29sp0Czpqz0VCqzTAQJ6FWU4n9OsmAo2UgXPnwXuwv28dhsYOME2CGMRPXItaPI1Msp4ZP85ufCWaq5aAAjLRM5afxEMHtuJ7Lz6C5wq9jJetdSvu6t7btpK73Kq4mESx4sJ1gzkHX6YUTucGz+ld6xXlsYUCCPLS0BuzmhfFnMng4sQlIwriv9npWnx19svx+vqF02flRSM5rilAtgfbD3fjG/f/Abc8u0aKuhYEKhdHHmaI2FjNwiuT7zW5XzkFjHvbypO7zO9KJhVCnnMwwnhROKKwv9Xp11UjclLJHwx44RZnH+oeFmebWbyUJdlm41qhwIT+C91/wgtdt2Fk4mDgkz5tMHTlMLP+YixoeQM7PRJIkB86eT669SuRF0Nxy/6o1dK9GJbj7HmfRiYlX08XGEjs6n0SL3TfigN96zE+SZFRPYwCzJGSTYKGhtwpOKntbeioexkIONBDB4sbXliLn3etw+FsXOFtpNqhnb95ShkVo8vDNhoIz4fOxsWk6g6AkF39NUVW6iDfVDRp1EdvP9UIzqPC5MTUtCQgKRjJjzpfg2XZ1iCdRmUiCpRMAcq3cO8LTzPbg00HdoXapIvqnDT2qSS7UqCwythvhvAAACAASURBVPGcfiLRH9H6yMFFyu4CQRgZmDtmySWMoEVQBUZSjCBQ/6ZEsEs2GSSo21L/Srlarm4/G5c3nsLiHBDtRsYP4/n9t2JL18qiMy2SNoES/ixqeyuqK2bZDBhpGgcHnsHDz38R/SO7i/r8UaWjQwECCC01K3Bu578jk2q0dUJXQnSdsHnfTdjf90TROTTqsouwbOY/oq32TAYe6XCx9fB+XLP2T3hwYj/AtICiJsHYCxkmt69jMwxCELsDURQY5cXm3BQOwSmthhZy/VhwgGBnbfngIpHCaRGuEFgU2ORl1TPwv4vewnyWoyeiwNGmAKnSugd68ZM1d+AXj9+N3lGeb+Eo9UwujBVJJFrqoM1sQCzLffOV+gDfQXgKBmn3dTvTO0SD/w+2cQUHCOrpOOfgDxtIVlxQMwuf6jgPp1bqRom0Cbx48F48vet/MDBaWowC0iQsaHkT5re8HpVss7FmGQEE32U5JQXcAALZjBwZ3o7n9t6AFw+twgTTHBT/kJbizLmfQG2l7mU3PDGG/157F366cRWGW3JINNeyZE9+RvlslbtlXhaZSlY48KsEI4mq+hjhxu28tLtJs5dMYQChGNLp8+GJWVVJNV1aFUaTQAyvrV+I3yx8o3mXWMxYojoRBYJSgO4nKWri11atxD3bNuipnI/WQ8IgnYLWVofEjEbEKtOMUYJhd+egSt2YbYJFKRXceyhH33xGzsMEvRE1Kc7eqrQU/qn1dLyj+TTm3kiSh2wNHt/xXXT1PhZQdez+oUkfSqfFxTPeg7bas5nhG38igHC0GKS0dt0AwthEH7YduAOb9lyH4XGyLyrtoauohS1vwbJZVyGhVbCQzjdteBhff+APOIQxJGc1I9lSy3jdy4bIk4dUL1X2B0VnnVf37sfXRQMEneS6lFEzvMdHMYRThZbAVa1n4EuzLi7tC0a1IwoEpAAldPnzc4/hK/etxM7ebqOWH5sEbFwqRqeKRHs9tJkEDipsZjnqFv3H4V/CaxNUvJPDvyo6KKVPt9FYbYonH/eeFmUa8C8d5+KimjmgyKv5wgSe3/9HPPXizzA+OVDcB5JqpbQc5ja/Bie1XY5cuj0CCGWh6tFrRA0QCjg8+Dye2PkDdPWuKxk48tFXpppx/sIvoalqiQUQ7rsZB4b6Ea+qQGpGE5KtdUxbyPdGf72Yih8Vv0mHmCI8kBVyTm2UKPeuAAhuqgrOvM47RbNRlZGThSOsYsZny2pJFiDpH1pWHL1VFLUcUcCgAN0fdg8cwY/X3IEfrbkDo5Nk5X40tj/mU4dEe4MeNplyK9BVAxuHu6rP70OVMlKu8WP9sz8Mw8UQ0qaU/h2Cx3Wy6l5eUTuHhT/mMQ/IOv2hzf+OfX1rAxsl+tI3prENYMnMK9l/aQOiJ9Ig+FFuat6rAAK5NL546D48tv1bGJ8oD3Ck2VFfJ7f9PZbNvsoOEAb7GK9ruQySMxqQpCioFM/EYHMzj4PKyNBNe+mmTTD41vL68aJ7MODtx9MWQHDDBcIY3BERf+Nx/OAE4yIyBmZo9OPO1+D19YumZoVFvZ5QFKCkTM9278KX7r0Rd76w/uiBAxIojdVILeowk73YfaT92NL5WVxrKPlW+NH4pwUQOEiRygQASuFHrYIFssaRl3FvnVwbL2s8GR9vPwdtqSo20r6RF3H3xg9jeLynrGu4qmImTu14F2Y1XIKkpqedjwBCWUlctsZUAIGuFJ7dewP7XzCPhaDDiaG1egUuWHQt3RvqVwykQWBp4WOIUUbWXAWSpElor2dGyR67or1Tcem72CyH5z3xQG87Htj69ms31BWDrEOwGncORkl2w0CDG2rUJTL40ylXYEm2JehXispFFCiaAhSffdW2jfjY//0Cu/sOFd2OX0UKfJRcPIdFSbQzYDBUr9oyVdeR5jhESSQAcREKWGMWeNU4kfjNh977CRK3NqwZ6/8qRlRRvoV3tyxhNggNCd3ffffhh7D6+S8YURKDzCBYmUyyAQtb38KMFclwMQIIweg2FaVUAKFveBeefPGH2H2IQqeX9yEjxQsWfhUVqXYdIKy6GQcGdIDAHq5JmGmAhCRZ2SkeGdSrAAJnXoP5iuM/9Q6tki+u/BvGSFENEHxwkkJ4cUOtpkQWa5ZeicakzvTRE1HgaFKAMrzdsP4B/Otd12EiL6Z0Ll+vsXQSyUXt7HrB/shSweD8AF0HFg6OLiyOtbVh/uwdMVEcWuAxKGctR0yUZYbKd1xviEqSpvH9rcvwvuZloEMFPS/svw3rdnwXE/nSLNRl8qcS1Zjf/HosarsMdO9MT6RBCLBIp6CICiAcGdqKx7Z9E939T5V9ROQCe+78z6K68mQ1QKD1yjQJGSRnNyNFNgkUCM3vkZjLZE/Re8EIU6JuSt6Z3Tk3LB8rNQgqUWZ1qQqP6tOty8GJ0rNuXP5PSMUDENGPyNH7iAIeFCBe6xnsxdfuW4lfPnGPUTIsu3iTOJaIQ6PTw7xWIKkFyEQSrH/3UgpOFWQF41SGAQxJY4Ze89RHmBtz8AXlLTH0jV51bPIeB69BLtBXtizDuxlA0L0LNnetxPqdP2KujuV8kokc5je9DovaLkc2rWs2I4BQTgqXry0VQCADxbXbvo6egU3l68hoqapiBs7p/Axqs6eZAKFnoM8ZesnQJKRmGYaLKSuJmOugPESBt5SQ1Q/u4EDnw3BPqCuG0F4LXnIjBiyoqMe6Zf8QhVgO982i0kVQgAwUd/YewFW3/Bird20uglV8Oo3FoDVWIbGgHVpVJQqmUSKv535K9mo5MEO7YgXjhXjIYP+WArorBhG4bz/S+H4vbwhEAZKcAOEmrN/546MCEDqbXsc8GSKA4PvhprSAG0BYs+1alneh3A8BhLM7P4M6ASDoVwz8EdYxBwkzG5FsJcPFpD2TvJvRouIwreYO1eaq0iR485YfjQSAwDu0d+L8K5iRkS1iojEKRhOjQYrySi5LZIMQPREFjjYFKMb+s90v4g3XXcNck8r9UIyDZGcbtNZaM/GSvtRVDBocLCjZW5INbqLC6oVHZ5HDDQQ/mwShl3ocssTz117IfdUnKvB+hwYhAghBvsnxXGYqAcLKDQ/jWmaD0Kfrxrh9nUFw5hxEICEreDewOAkuaRgFtqC9Udf8BX0UqELIbyLzZfB2ASdAEHGCGRLSCoikKwtFJndheKEdPmHTw8qYNwU9+XHna4NSISoXUaBoClCApIe2PYM33/CfLBlPsY9yE4zHWfKlxLxWxDO6EFByhZsbsGIwnkysOigIUMQEBrZyxsjZb96nivBbuF3q2YOwB5QXLh+ERkrXCu9vWY53Ny8VrhgigFDsGj5e6k0lQLC8GAyAIOz7NhYjzSLZJJAmgVwgXa4bLG/jGAvnzIGExanSxmz7iO4AQXauDgMOGFcHMVLkDO+8YvDoThROgmxi8aQN4PHR9rPwldkvP17WazSPaUwByr9w3br78Mk7f13264VYVYa5NGr1VYCmSHjkeWxQ81BYRhZJb4kS+VhjHHXM/Vwdlk0lbsJ8WlGUWUcmowXxtOADVHifEUAIQ/0Tp+yUAYTK07Dy6Ydx7X03o2dQYYMgGhTSXq/FEM9WIEURFxlISDg9MAWGL5735U3XCv5cbJsOgKAzt1MpoXegujhxg/5WBjlRDojC47MzLsC/zjjvxFnR0UynjAIDoyP44j2/w88e/2vZxsB4QtNYjgXSHhDjO1jUoXJwsqqjiBeEkQrrJw9Bwyfu+VxPSScS84ji7THAiVOMFsE6SHBY4H6y8VOgilSKAELZluxx1dCUAYTsaRCvGPTtknZNaZcXmSimezek5rQg2VaHmKYpk6ea2N0mA3hQM9UxQP6N79N2SRQWIJj7tKhBsNjZ/i/WpXCN6crcKknHVS/GCK2BxvDFWRex4CfRE1HgaFOgd2QIH73tZ/jjcxS3v3wPC45yykzE63IsC6AV50S01eGLn3sT+PevZmgZHTgxu44XRHAuChdRu1Fg6aZVwdyCCRMXZueKAnOKbuW8exEPEhFA8F8vJ2KJqQQIYhwE8xLNtkcqvghdN1RXIjWvVU/wlOBZIO18bF7RmSzidoRwA/tOeB+Mp51jtmsQ2DhE5GGvIG7ujqbkaqJ2UwJWXCp9dc7L8ZG2s07EtR3N+RhT4PDwAN5+w7eweveW8vUciyExqxGJzjZBeyCyorj96r/bWN0DUIcepNGWjUdJnc9DKrPgI8GMI4sRJvJU3Nvwb10uEQGE0KvhhKgwLQAChVrmCjoyLpTjFYgsZ7zUarNIz2tDoqnaNGiWQzNzWRHuQ3pzoT/n+QEECf3r4k02MqLf/AWNY6jiD8ZIvz331biyZXk4GkSlIwoUQQG6K7z055/D9t4DRdRWV2FBkZbM1m0PDBW+EwYEY8tgpVzGIXOkG9APmHeh2LEEq+dfKgIIZVuix3VDUwkQ2BUDC7WsGynaHrczNv89FkOysRrJOS1MdsS0uLml+nOH3ye1t1Bqe665GPh+7uxOAQ5kgvDTjPC7/YpCP9j8av4b8ObGk/1mHL2PKFAyBboHerH0ex/D0MRYyW3xBihTY3Jhh5DBzaEjkCC3d9fFM7MqeJno1uDvM6XA76HopNcvPmIi70xFg0iDEOpTnDCFpxIgyF4MTuMj4TPIGn/SOKQ0lv0x2d4I0ihAi+tNMBdHF342Duzq1OjqQ3vxMkUfv7sXAw2SGTfx4wm/1/ToUo0q7EkrhHn84aTLcWntvBNmQUcTnToK7O07hFO+8xHlnXuYUZkbaSyG1PJ50BqrWXjVgGd71648GVm0KeCQQ4xzZDpNGw7UXMPHJY4pWJzdi/2G1wsaQsTm1imeFlQnh/AgKQIIYVboiVN2ygECj4Mgo2uVYY+MgMkeoaYSicZqJBproNUIIMHzE6qgvBx2QOe7ksGBCiBYTXuYL3mNUfLH5nkXVHO+85R34tzqGSfOio5mOmUU2H2kB6d+7+qy9U9GianFs1kqZwsXh7P9F9nIxtC2F1IpRSVmPc12d+ESlIN7MWKiJDW8tQZyRyLpnO9UsMAbjgTIb2k0WqdFgZLKtnCPo4amDCCQmyNP1kQ2CCpGlvdsie5kIByvzjCQEMukkWyqRjxXya4b/HUBqsZtPhTqOCwBvr1jKsyLwTyhiCoAyW3DbNzlikEYM7OFEqNLcQ2nVPWBxe/FslxrgGFHRSIKlEaBXYe6sfgHHy+tEaM2cUlyYTvLuxBLapKHD9+FnQp31879rJ+FijJ24JjAZoNouVIYthEW46m2/VJPGtaMec4Fxv2K0E12AOUNUKxJ6xoEORdDFCipLIv5JdzIlAIEioOw6mZQLgb2eOFpO4MYkRdj0KoyiBNA0DTEkwkkWuqg5Sp0njWZUqWFszG44OSsznii+sR+w+V19CsG1SGF/WZHJSYhOP/LhDHasQWM49EYFVLokSVX4tTKppfwEo2G/lKhQLk0CGwZpxJILp2jGxh5Gv6JgNvgeSk8SGCdg4KjWddi5DHOyKxREXXYmc9+DAimigwiUKxeZH2C+yztFFKvpgggvFS47NiOc0oBghFqmYyffTUInCy2A7IOEJgGIaHpW6sIElyvLc2tW4qbznGKznv+14Xqb6XWIPBca0aUMy53uCZAb8qjSwPw8AiRosGGAwgJ41qz5EqcHAGEY8tVJ2hve3oP4pTvfrQssye7g+SiDsRyGQMgeFzHufQYTCUvVVYAeVsJEzAY/KojCN/byFI1CP7nFheAIMzHawwRQCjLsj3uGplKgHDT0w/j61yD4IeepcWts6kegpkBhKQOEEyQ0FTDEr5RLgf3x8nbPKoJj8BSCl+brTtDLeuvzJMRTxHrNlIVcUTG95BR65Z+EAsy9cfdwo0mNP0osH/gCJZ892MYmRwveXCJua1IzGlGPO2WpvzYbMxMoPD/xzUJupgxpI2Lpp8Lo6IoYTG3pV9UmGk7kIu3qPMaSmSkWNSHOu4rTSVAoFDLBBAoWVOY6wUTCBiRFQkgIKFHVbSBBDJcrM4AcSGYksjbjq9rNwnwPxYEWx6x3OprDMsmc3iBTh0qE0k5DosZ4VUara6oiGH9sg9iXkVdsJFGpSIKlEAB8le+8Kf/hr0Dh0toxVADLupAorXOHgnNYm/P9kU8bW7uVMPP8ll6r8uTGAox47zArxXE3lkhp6gIBl+8ycT710uJgwvWepjTTQQQSlqyx23lKQUIZKR4vx4HwXzcbtIUNoXMSJFfMZAGQd4jUykkGnLQqrOGJkGWHO4QIAxvqRaHWN8WByFmRlGUq/ngEWPsvGFHqkqX6k8t+0fMjQDCccvA02lih4YG8Nbffh2P79tW0rDi1ZVILmiD1lCtUAEGZ81g26g+VDHHgVjPZCuT8YypGchDLiseAYojgqg94DJN2bnRvGi57BIWOsBAIoAQgEgnYJGpBAgUB+EbpEEQAYIMzt1Av8GfpCEQbRA4t/PQjLFkEomGKhae2bpusKB5YPulEtaGCRB0RwYxOaSo85D4XZY0ssGyV7hJweBz0/IPYUa6uoThR1UjCgSjQO/IIK665Sf4v+efCFbBpZTWXIPk/DaG/m16QbO8fesXcb++2bukgvYbFQfhtuaF1hgP8rwLAu+6gPPgUMYmtmzxYPh8nLPSRZdbuJcw4IjaiQCC3+I4Md9PJUBgVwxGJEUHU8iMLnwefpXAbBAkI0UHviAtQzLJYq1QWf26Qe0dFZan/FYMlw+x7OpraKx6BCe+sXupO73AAb3z8FqQCfD0sqswq6LGb6zR+4gCJVOgf3QY/3HXb/E/T95XdFvEJ+TamJzbglgmJbK9pyrfj2VsA5IRhSRczPAGNkBi/MG42lvbV4wgCaaJkCGHPo5gddWfhNeNAELRS/a4rjhlAMHI5shsEIxcDJ6EllhDVyAIVwyGF4PamCHG8rxQcictSyBB5woOvuUDR9lsD7gk4TYIrEtTW8gjKCrOGaJigVsvGL+ZcVqso4Un3XQbhMhI8bjm4mkyueHxMfz40dvxxft+H3pE5iaXiCMxpwWJWU2IpZIuhgMWgyiZ1wMAuA9MUB9QWln2p+A6ZLbJf7NUFWZRI8hiWM2B8zCkCqcsAhN/ERV2DBFACL1kT4gK0wIg8DgIqj3Pw3lHDRDkI7TBSwQmKpIs4mK8sgIw7RadADwsb7ktFFODkKM4CGY0ZR6/NYDNAbeV5tFdjUBurEMTaHh7WD2+9B+wMNNwQizmaJJTS4HxyUncteVJvOOm76BQZMDlWEUKyXkt0Nrqmc+yOia69zbva/HsUt0GO8RIZGZ5nlLOm87FCxDxzMIlhkqgeZ8Oiuk/AghTyzvTtfdpAxBU+x3fQoWt1Lb2jSsGFijJoUGQVQ468I9XkOEigYQ0C+/uD8WDfTmVVtHENhwgBAuXInTolf8l4MhXL3k/Flc2B5tFVCqiQAkUyBfyeGrfDrz+uq+hb3S4qJbiuQok57WB7BAg5nIPEfW8mA1SueXaNBH+yZi8t+3g5HDXj4ht2AWArEkJ3pteMgIIYSl2YpSflgBBPiDzTyGzqBIgyIBbOGCz6IoxaJUV0OpziGfS7O9i5YlqhajaYkaKym5UqlDpt6ARE93uVv566jtxdlXHibGao1lOKQUKhQK2Hd6P9930PTy1f2fosdDSj9dWItFJHgxVkn+ynbXYX0LEREFGFNUvq2TbZY0/GMwvb8TEIAPUZysLiGAwIJRAM5qMAEKQr3LilZk2AEFkB3mBKw7LunwQQi2bGgQHo1vndg4GEhoLx6zVVrFrzoAZ3EMtDnEKupGirbpzRibrGwXF+O+sKjdMFNGT75BiuOWkt+IVUTZHX0pFBUqnAF0rdPUfwef/+r+4cePq0A0ygFCfQ2J+G7S6nODBoD5Ti6AgoEJNOSb1hiqrIA0mVJwnVOrD0JM3KjjHohqdv5Fk2P4jgBCWYidG+WkDELxQr8QOZtEAAEHnXV1zwCOi0dUCGS2S6yNFW7SuJ8r3zZ0AwbHjC50pJIytuHFZERzJmNPG/yx4A97ccHL5Zha1FFHAgwJ9o0P41eP34HP33BjaDoEBhCbDxZH8krmagCNkY3OWz9WBMLOqkuAkaI93oLATknmU2zb5+jR4LRduACVGaBPdm0QxEgwChdIeCKCkliVrWo53Ny9l1w30bO6KkjWd6Mw+bQCCF5OXZINgMTIFVmKcSAAhoTF7BIqhwK8aSl0LbgeRWO6Ra3SbLSMPg6MjFUAwDixc9SBHUPQbLG/y23NfjStblvsVj95HFCgLBUYnx/HXLevx0T//HAeHBwK3yZlHa6lFYkE7yBZBf9zP92Lk41AbowAWbPXMvAo8QZME4g2eVEY4DTxTdUF9HDKK4aNTWGMJ1AkGHbwHGGkQSvyAx2n1KQMIPN2zHEmR8yAPSaJgUfOnYmwQTIAQZ0bS8WyGxUcoRovgxs22pULXGrqbo8fjARAcwiiENKBmvzTrElzdfvZxunyjaU03Ckzk89iwbzs+e9dvsXrX5sDDMwFCa50OELLpQAmQbOwg7qcBezaVFLaMjdy70mhQgT4ULBuwR/di7nkXvOqU3C1rIAII5aHj8dbKlAEEHgeBAiUNCaGWJYBgxhZSnSU8vRhEQK5fL5gaBNq0kwZAyKQRz2UQJ5frUKcQ50pwq+4PEOS2JEEX/GrBOajPzbwQn+x42fG2bqP5TFMKkKHi7r6D+O7Df8b/PHEPCDD4PSbjEEO31rEoirFiAIJfR9J7b353N0wUmylRZliHHeXYg7cevKTVkShmIoAQcvGcIMWnHCDwZE0qACB8A+X6dwUIio8n2iA4AEKFARCK4TInvzm2+0AaBAEZyWEliwMI+hnnE+3n4AuzLj5BlnM0zelAAYqo+HvK5f7AH9A92Os5JFnFHwQgmKd3WYcXaPJWJXd2V2sO5BvC0sSFm+AIr5sodhxce0JamDotskEItHxOsEJTDhB4qGURICiCI5UEEDgjMEWCbrDINAiJBIuHQNedugahOE7zO4joGgQvYWa8M4sIf4dVa8jdvLtpCX7Q+ZoTbFlH051KCoxPTmDtrufxlftu8rxmcDCOTYPAbRDUM+E8HTgek8RcdmCisDngAsnjSq84cSECA/EMz3+Xf/MTL8V/aZOGAGq1DN7fsiwyUiyenMdlzSkHCGK6Z8Uh2pM7TA1CVsoKK9ayIinqIQW4kaJ4xVA8QHAdH8/pQhepNg2CvIML8kBkWFPwhZBCzqZjuLh6Nm495YrjcvFGk5qeFKBrhj3GNcN16+/H8MSYcqCqpa211SExn2wQnABBXN9mXdUeq+pNYg69mniN4GGYKKkyQ5gBucybrKVVngv+zK6kQdHLwArpHHkxFE3E47rilAMEVbImgU2CAwTN+E4uXkLGFQPTIDAvhtIAQhhOtgCCGzgwhm5r1N1w2XVB8pS1oszsrKjDE8s+aKR0Oa7XcjS5aUSBgbER/GnTWnz9wT9i++H9jpG5MRB5MSQXtCOWy7iqDkyPHm/TX3fVgyrZmchvDDiIJ30rO6R8zi+O5LogMEEKa0TWm9p9t8QcLMUCFFeAVQAigFDclzzea005QBCTNQUFBiaTioGSKGw75zMrv4J5TjB4Xs+XVJ4rBn+QoI/IcnMUVxPnVhdBZBOCvj3ZoYHVdAEtqRw2Lr8KqRhHUMf7ko7mNx0oMJnP49nuXeya4e6tGzCRn7TdBrgCBIqDQAChSo+DwLVqPMOi4vrRNl0Zg8svzX5l9wfqgHGrBAEU8Q7CbNBe43Fna2+GV4gOa+wBQBOnqRlongGE6IphOvDNdBvDdAAIPQN9ZhbkMLxnRVLkVwxOvjL5k0ABZ4xjAhAsyWC7YrAJDOGorwypbBNYXkvHOpHo8sH6uymZBeVjaE5mp9vai8ZznFPg8PAAfvvk/fjuI39GN6VsFR5XgNBQxa4YtNos9Bzp1uOLkwPQU91GsKNJOfq3ww8ZPgTowajiKCncaSrJIHQl9splYm1kpBhg9Zx4RaYDQDgw0KfvaMHSoQgCg2sQRBsEnXN4GibzwEFBkriRIr9iKIORoj9Hi3EQZOgvo31+Jerg4HALUxxUXaISfzj5rViRbQvXSFQ6okCJFCCtwfq92/Gle2/EgzufRd44pXsxTbw2i2RnO+INOSkXg3VI9hyWvOe6AQxHOWNUKh4Nhh8CUotHO1BdKdjhg1uD/kLHqCnN0XE4EcK3R1cMAT/fCVZsOgCEnkFDg+CnPpS/jW+oZeGqQdQgFAkQioD7OlgxvRjoL0lH4hkhMaA+hV8w6MjIji6qtTR+0Pm3eEP9ohNsaUfTnQ4UIC3C9U+uwjce+CP6xvQMj14bXKwqgyQla2qqQUwzk7Lbb+h5A37qdMUGaUYr5EcSh1Cx/yDihYDs6INfVIOXEIg0LxmzlPxd+UlM6CcCCCVT9bhsYDoAhAOS9tFPhpgfQunFYAF0bgXE2hPiIJhGikVoEAKDd/HgInox2DSBkhF1+KiJlrBRDyyGrJbEl2ddEoVbPi7Zd/pParKQx9P7djBbhL9u3eDrtRvLpJCY1wqtrd4R3tSpVhds+7jUEOIvi5Y5bHMX92Yl3JfhtdN0sFiK28cugwR5YE4NgK2Eh5bEDe+oD19ca1KI3ByL/bDHeb3pAhBMI90wO7ANIFg2eErALQIEFxsEPdKi9xN0eLZDvQkQhJGxf9oNldnftmtXTx9svTHRFlovbq9UEU/gw21n4j9mXnicL+VoetOVAsPjY/jjM4/is3/9LQ755GeIJTUk5rZCm9HIMqqZ+75v4GWX2ZvXdnbNGittM0wUWFvmy2L7FrIrOAWHYjyKbAziackEOYqrSV1yqZGD2bfjtfFDLIqDMF15Z6rHNR0AAl0x8IfxQFBVnu2KgXsxWBS1AQUVQKBcDCzUcrg4CMFAglXKGQeBCScdDIjW2ayKR+t2/lYegQyAYDWkxWJ4Te0CX3BUHQAAIABJREFUXL/oTVO91qL+T2AKvHj4AL7z8G349ZOrQFoF1ycGJGY3IzGnBbGKlLfGQeRwLjSEo7LoGmj2x+pITOYhcVzO9srhqzhSHJYaJIhN6aXlafESQQSPOF5xzqxVDogcqMPwYmiOAiWdwCyqnPp0Awihvo8BELSaLJCwe/E5eCmABkEVSVG9C4sc66ZzsLjcboPAkzpKRyM2YBMZqU8CInH0EpY4cHN0jCOG86pn4qaTLkMmngxF36hwRIFyUYCiKz6wfROuWbUST+zbZhosqtpn4ZY72xhyJ08GMcmi13jMvd8GAAwuMVnKuIB3qO+sA7iMIYJszCqRYL/isIIS6WVV6MYTN/l/CqlJ27hl5GARiw0liqToT94TscR0AghBFQcWMLbHQZC167b2igQIwcG7C5SIFZxGirKskg0XHX8HWJl2ISagE8SwLNeCn3e+DvMz9QFaiopEFCg/BYgZDw314XdPPYgfPno79vYfdu2EeTJQRse6Kpab3TNMudyKufT1E7MFLgQXIRHUB1ARFA8QjNCtYsAB8VjP/u1vmh2mfyWtBBIyZQnHJ6x7nS51RqjldzUvZZkd6dncdRPW7/wxJvIjZV0QyUQOnU2vw0ltlyObbmFtHxx4Bg8//0X0j+wua19RY6VRYDoABObmGIoJ+Bp3BkpyZfcQVwzeWgMFvUUwruB/eyRFrzuU0BDJzuvW/YQlBWhsnRX1+ObcS3FJzdzSVktUO6JACRSg4EmbD+zBT9feiVs2PYq+Ud2rwbHHpxNILpoBraXO5slQTNdMIIgna3NPNkSFj+ApRi6J43SaPfIByIOyz04UQqWPwYNyhuRl2RyblyECCMWssuO3znQACKINQihKuxgpcpFga0vK5oiQyZqK41G9lsMGwcb8IihwBQhWDf1fRsPmrYQ7sqCS7akqZqT4902LQ9E3KhxRoNwUGJkYx+odz+IHj/4FD+18FmOTE3LyUuZylOhsQ2JWk2mo6AARkgODndndDJkMNubXC6LtgcFCxW7M8qlCF0LqX4NoDZRCjE9S1axEIFNgcRWKqTWRZ6hPvDaRxvtblkfJmsq94F/i7R2PAMGxmfNTBP2XAYXguRi8Yb7Xx7d0GXqoZa45ECJCcQPF0gwTRW9OtVjJxlP4p7YV+NzMi17iyzUa/vFAgYHREfzp2bUMJDx3YI/DaJFYh9khUMhlRdIm1ysHYe9zbM6mmk+goItxYjCmF0s5DZHsbVjCwMsK2bbvG384hZlkbMgVJMYNiuDlqRYrtoFZrbM4CJGR4vHAXmWdw/EGEJS8LQIE12RNKcPFUOd1mfsdfGp+BfGN/W7TTNnGAIJ098dzywdz2bD0BlbeaMsEyjK+UGsSkrE4rmg6Dd+ccynI7TF6IgpMNQUODfXjN0/ch589die6+o+A/BpEpqN4CMnT5kCry6nzsCtO0dwMkDGeV4wRbsQo7ttCnIQib/oMwaGzPdcf2NM8BRcrorLA91tJyML01rbUCMYwjNCJojbBKBMBBF8qn5AFjkeA4PiQMkDgcRA83BxdAYFXyHPzkGIHA2ayJrOuGMks2HHFcWiyD9D7hJKIxfGK2rm4dvYrMK+i7oRc6NGkpx8FuvuP4IeP/gW/eXIVekeGkDf8Ejm/Jk+ehURHAyBEVLQBc5HPBH9CizcERnO4NrrTw/00oKojhjzR3+v1VScHdz6VoQNLVOXmISUPwyF4jAI8tjwBFrktnvzF6KSOkjVFNgjTj0mmeETHB0CoRCyRcFfUSwCBRVUUbBA0Iw5CuNwwDo42j0AO7ybSINg1BUZlFwNmxeHIdjqxBFAgAwbEYzEsrWzGl2dfgguqZ0/xkou6jyhgUWD3kR5mtPj7px9Gz1AfJsnzwNhfKdxy8uSZiGXSgUjG90md10gVL97rib85mwt/tvcDGOFbDHhWCEwLE6eowAG9FOSP2khxJdbv/FHkxRCI4sdnITeAsHbbtegZeLbsk66qmIGzOz+DuuxpWLnhYXx91c0o1UiR4iDEpDgItoG7aRCMUMsEEGKpJLONUjlAeRPBHSjw4wTTILAxqACBQ5+pggfWyUN9uvHWINDb9lQ1Pj/rAlzeuNg33G3Zv3rUYEQBDwrsPNyNX627FyufWY29fYeRNwIpUVTF5NJ50BqqFNcMFp+YLMgDj6nYQbcCUlovihwXTnugBhqc1e2ahGAXF96c7AdK3N7LMsWiQ6ygR2PVczEsNYwUM6yhLV1/xJM7v1d2gJBKVKGzWXdzrEw1s74iN8fpKSJUAOHI0AtYu+0bONC/seyDrqqYiXM7/w012VOPHUBgosHKLc9cqxNxpnXQKvVIigQQRF/L4HJC1iTKNaU4CA4/5FAkthq3sEywoZKh4sfbz8ZH2s+K7BBC0TwqfLQpUCgUsONwN27c8CBufuYR7DxyAOOTk6xbFlWxs83Vm0Ecm40TuDqBF/A5nh+V07vzmBKIlEE4WnWMMCCQz4HG0KzwwgZuyWkpvKdpKT7Quhz1CR0g7Oy5F49u+xomJocCjTtooYpkHRa0vBkLWt6ITKohAghBCTcF5VQAoW94B9bt+B72Hnm07COqyczFeQu/iGx6TlkBAkVSdOUrSYNgAoRibBAcFLEfP/S/7IcFXYNA14Cy7UEA8srnJHsgVmrA28WRv03FNby18VT8W8d56EhXB+g5KhJR4NhRgLQGu3sP4k/PPoaVTz+M53r2gFwiY5VppJbMQZzCpRo+++beX+DcYFkWmyMWMzOZ2gPjrcQypYIDexRTmWZBtnu9TuCSEjpwACMuFmzgyKhkCENbEwUgFY/jbU2L8ZG2s9CSzLKahwY2495nP4bRid6yLoRsug0nt78dcxtfiVRCl0WRBqGsJC5bYyqAMDTajY17foXn9/+xbP3whhpzi3HRSV9HPF5VVoAQ6oqBp3u2AQTLiyEUnzJe1LlNjKVq0xTarhj8NA4+JBd1CHrRYKpLMlQ8t2oGvjr7EizNtpb9w0YNRhQolQL5QgGUHvru55/CDU89gMf3bsXgxBgS81qQmN0CunKwAABf+kbERHMzFLb7EBeGgZne6Md+LnCLmBgOeniGlJZVBny/F70e2c1BDHQasRk4mpMTkr9wOGKIDxJef1vXiX/uOBfz0nXMbmlsog/3bLoahwe3GKeeUr+wDoPqs4uwZOaVaK05C5oR/j0CCOWgbfnbUAGEiclhbDtwO9bt+A7yhYmydRqDhnlNf4uzOz+N8Xz+2AEEtiytKwY93bPG5A0la7JsECj9fFDLYRs6VzpGmtKhyoiDYIu4GlYi2U4YNvwR6APR1NrT1fjWnFfiVXWdoBwN0RNRYDpSgPI2PL77Bfzi8bvx4M5NOJLII37KDMSqMgIj23lVX83GmhazNJlqO++ZlsYNVo55ezRT/1b9SwT/QhYNZPcOjmoU1wucajFgWbYVn+w4F2dVdSAV0zBZGMPTu36JZ/fdgHx+PPhAPEpq8TRm1l+ExR3vQU2lFdk1AghlIW/ZG1EBBOqku28D1m77OnqHt5etz6SWxbnz/52tDwqgdsyMFJltksUIZIzIDiPJBLRMyrJBIOAQCh/IBwRDi8CvEwytQqxq9TX2aEbBDv3KCLFcFOlfxcUNwuWT1STS+NeO8/De5mXIalHiprKt7Kiho0KBrv7DuP6JVbhzxwbsqMpjpK0akxq/VjAUdqKzgpMfBb29eisudYO2a/RkfgzGn44rgoBCyH5M4CoF41PY2hDe8UhKYnB7I7NsY7ISH207C29sOAnVWpppDXr6n8EjW7+C/uFdRZye5GURQy7djlM63oHZjZcipeXMAhFAOCosVHKjbgBheKwHm/fdxPJ1lCNXRywWR1PVUlx80n8iqVUeW4DAGEkHCUyqSFcM3M0xWEIIWdUnaBJMYMABu24zzUIt8zGY+7pCMtmbdt5shjVMlLugIEmvr1+EL866CG2pqpIXT9RARIGjTYHxiQmmRfjLvmexPjOIPRjGQH6MuUPanBLMvVhY9WZIZfUoiwEHKvZ3D6kcnDrKsbjJGqFZ6/bAKMwPHw4lAteuSGMyrxhIORPDm+oW4cPtZ2FOuta4ZujHc/t+j81dKzFWoi0CnRBn1l+MU9rfbtMe0IgigBB8rRzLkm4AIV+YxIH+DXh618+ZN0O+UIqGiYBjG06f+wnMqHsZm97I+Biuf3IVvvvQn0BB1Yp6hHTPahsEDpxF3ojpCeLIi8GwQeBXDCwEs2ogIlI339t/1HtyOaQwDYIBUoqaqAU4VKJB2aQsW+hvLRbDaZUt+MG8v8Wp2ebokqGUjxHVPWYUIAPGrqE+PNq/B48O78WGof3YM9qPwxMjzrtxtvAlRnRBAsEAAuck9W4tvnVmhXKSSClLVAaKiu741PgNinA2cWa8FOvbTifCmARwwH+dmarBP3ecw64hK+NJkIcJWa1v3PNr7Dn8MMYnB4v67ol4Bk3VS3Fy29vQXL0cWjxlaycCCEWR9ahXcgMI1PHoeC92HbofW/bfjN6hHUWBBNpyM+lmLGx+EzNcjccTjKe7+o7g2w/eij9sXI3h8bHi5ukLEPjG6g4QtIzTzTGY3OAbvojYrZpiGzGHDULI6aqbDdaIPJmWZA5fm/1yvLFhEbQYWSZET0SBlwYFxvOT2D3Wh01DPXh8YC82DO7HnrF+9EwMYZjdkRurPaBxYnBGV230ZiR142WgICeu6ZsCfQEJNJhgQ/SOcj0uKFAIBwjClSc5g72qthOf6DiHZYElY0UyRDs4sAlbum7GviNrQ3o1xJBK5NBUdRo6m1+P1pozmApZfiKAEGgFHPNCXgChUMhjaKwbLx5chR09dzF7hMn8aOAxUtt05UTXTQta34RMUnd5JUBw15Yn8V8P3oqtB/cxkFrUUyRAICPFeCJu2CBYAIFFWPR8VPDfRWsgtOO0QQgxW3W62GANqIZG/s5vbzoNX5p1cRQPIRgZo1LTjALjhTwOjA9i92g/Ngx24f7D2/Fg706Mk5MDN0r0sfPxY3X/KVuZHyxPooDGRUbjpY7Bt76oOZBAky2yqzRssj94T9MSvK9lGeqSlQzUkJHi4eEXsOPAXdh3ZA36RnahUNBjVbg98VgS2XQLWqpXYFbDJWisWgy6ZqBHplQEEPxX3FSUUAEEvmGzyIKFSQyNHcC+3rXYdfABdlU0OtHnY68SY+ugPrsQMxsuxoy6C1CZJo12DJQSfmPXTnznoVuxautGZotQ9BMYIFAPsheDfsXANQhxKVCSc0xOcGB3a3SXDboGIbDssDpyCgBfkaCkpViLrhlOz7bj1wvfENkhFL3yoorTgQLkFnlwbAi/3fwIvr3jIUw0ZoGEkYyspEyN6tk5tPa2YqKA8OdT/xLuY3CnvdSqSQND+Eh2CV4HotZkFv/UvAJvaTwVVUk91DVtBsPjB9Hd+wT29T6Ow0PPY2Bkn3HtYCGQRLwClelW1FXOR0v1cjRXL0Ouoh3kwUBP38gQekeH0FBZhUqj7QggTAeOco5BBgi0kR0ZGkT3YC8WNnUYGrE8xiYGcWRoK/b3Po6e/qfRO7wTI+MUFdWyTSBDxHSiFjWZ2WjInYq22jNRl10EiqzJN9Ndh7vxw0f+glufWYP+0eHSiBIUIDB8oIikGAogyEMV93FdcnAbBBO3GywTGCBYYV/0xvX/H8wS2m14KgrPSFXjG3MvxWvqFpT2AaLaEQWmmAL7+g7hK/etxI07HmdRF7WWWkDTlCGV+VD5Rl/MJu1d112dKCtJlSWlKwQuA1QKVv+xCyVcsItfGzOTVfjHphV4bcNC1KYyzIiRHhL6dP98cPA5dvdMFu0T+SGmCk7E06hINaA6Mwt1lZ0MKBAwYBtAocCE/r3bnsaBgV68euFyzKptYm1GAGGKGcmlewdAKBSwft923Lj+QVyx7EKc2jILSeI3tlPlMT4xhP6RF3F48AUMjO5l2oR8fozZFiS1KuTSraitnA+KmJhMZBGP6XUJ7O/tO4T/XnMnfr/hIQYiS34CAwTJzdHwYtDdHOmKIQNdgxB2ROI+7r6TWzYIHu07FRRyVrjAKggBXKg7JBfHtzWeim/MeSUogFL0RBR4KVKAhMraXVvwoVt/ih29BxCvqjRAQg0otKoKNIfjInsL/uAgOJgPLWtEEwKVsJDRhHlMUX/ZIGnmqYlZiSq8reYkvKq+EzNz9UhL7tG0KUxMjjKAgEIBWryC2RjQaVF8SFW8v/8I7t+2ETdueAgdNY34xAWvx8LG9gggTGPmUwGEB3dswsdv+zlO75iPty07H8va56G2IgstLn7zAibzE2xdTObHQe0QINBidvd6Ao2DY6N47sBu3LThIdyy8VEMjo2UhyJBAQLnFeO/5MUQs9kgeAEElV7RaQTlJTt8AYI7OOBcr+OzoBDG5cBgEp2CJC3PteIX81+HOVH65/IsxqiVY04B2nR+uPov+Nr9K9ndJakJ4zUEEpoQb6phyVZE1F/spmzf9kVWdzNMFPnWSZaixuGImCgEZ+Nd8FCM3IvDOBiZoxRuGoKOgco151O4MNGKV9TOwyn1HWjJ1SCd8I+jQt2NTYwzN7XNPXuxauvTuHvrBmw7tB+vWrAM/3bJZRFAOOZcE65DN4Dwgd9/n+1IS9pm45ULl+OcWYswu64J1elKCSio+yNwPzA6zLQGa3c9z4wSH96xqTSbA8eJIAatKgP/bI7GSZ/FVLG7OVo2CBRqWTUXhdrPLOjcsx1NEI+aXgwu30buwt5IUFZ2nna8lkJ7qgqfnnEe3tW8NLzmJNwai0pHFDgqFOgeOIJ33fgdPLbneQs8kwVydSW0mY1INNcCKcMmwRhBcdykV7a8oGVgEBy8e0MHfzI5xy9eJQjjUgzRR6ng3nm+gMqRPOYNJbE81YQVLXMwp64ZTdka1GayyCRS5qZAgn90Ygy9I0M4MNgHytS5oWsn1u1+Ac9072KhtKnMa086IwII/p97yku4AYQrf/99dtJPaQm0VddjadscrJjRiZOaZ6C9uh71mRxy6Qy7fuB8Q15Ig6MjODQ8gK6+w9jSswfr9mzF+j3bsPNItw7yy/kE1iAYPGTTINgjKcbTBIiDSg91ZBQl71sAwYIBTqWEGALJqZ4IQrOgQ+dtZeIJvK5+Ib4++1LUJfXsbdETUeClRIHbnlmDD/3ppxgaI9cqbmQEMDel6kokOhoQb6mzZYIMyyciPdwDIgUHCMX2b9YTEzYwUWFIE8dBRgQO1iyK7R/5Agr9w8h1D6JpAJhV04jZtU1oqapFTTqLimSSbQRjk+PoGx1G90Avdh3pYZk59/QdYsBgwrBIp2H/3Uln4DORBmHas5sfQGArMBZDJplCY7YaM2oaMLuuWQcJlVXIptJIxDW2+Q+Nj7J1QHZDOw8fwO7eHuwfOILhsbEy5voQSBoSIBBrWRoEysXAQy1nEE/TQcOPe3QmFMMpeUoGzrqyBsEJEPRJ8aYle8dQi8hvCrwx8mZYUtmCL8++BOdXzwrVR1Q4osBUU4A2mytu+BYzeDMf8WI9Hke8OsNAgiaBhLBj5zxlMbsbB/u3HIQ/Wess8ZKQGsb42xFIwTE49x6C9O01g1i+gMn+IUzu7IbW3Y9MMs2uGugUSdliEYszEEBXP6OT48yffWR8HJOFvCNsPGkQ7ABhEx5+/gvoH9ntT8SoxDGjgAUQ/oOl5iabAbJBYBqE8RF77qIYkIxrDCxUJFJIJRJsbWgGQKAcK/S/4YkxtjZoragMcMs2OR+AIIJujrXZ5m4ka7JyMZANAl1XunGQ+LulunPKDfXMXK4Y7BoFvarjGOCKWnhJ8b9hCEv1mpJZfLB1Ba5uPxtJw5o0TBtR2YgCU0WBh7dvwhU3fssQUorTMvGpFodWnYE2o1EHCWI2yAADt1IwiacCr+sFNYQQuwq0SUtiwBJkvCWedMnoT0QSCiEWxCBRJocsiUw5kwfyg8MY274fE3t6jGoGpUQ7CaFBFZx67Umn49OXXIZFjR2s5KHBLXhoy3+gf4RyPkTPdKEAAQQKbnXu/M+hIlnLroce3PYMPrDyB0qAIJvK6WtX///WwfcYzS6QBiFm7vt6CBUOEMRASSJACLdH6/M2sIV8OWD8bQAEeUu37jTthCt2y/dXgMifJaMlcGnNPHx2xgU4qbLxGH21qJuIAqVRYGJyEv94yw9xy7NrjYb0jdJkXSP5EPvV0CRoM5uQIBdIhXeDanPkjG2JN7cxB+PXQMBAhSQEoWK14dOa4nXo/qUNnh9eGE0LBeQHRjC2rQsT+w4DBbo7lnuwK1dlKr1qwXJ8+pK34JTmmSxa48DIXqx67l/Kmh2wtFUW1SYKEEBorz0H5y38Iihc9kR+Evc8vwH/748/YVcGxs6v/9dlkbGfg9/ClY/wCoCg3N7ZAOOWa7TSi4FrEES9gMQkQoh3ByncEDeRjV8xyExiibXiaKLqM0xLdM0wv6KBaRAubzwlcnkMQ7yo7JRRYM2Lm/Held/D/sFepeSRoTi5LTGbhFnN0JrVLpCqydg3ZFFzEN5IMewG7YQdwh0DDz3LChktm3KLaxXsMyq2f7vcF0ZVyGOybwjj2/djsvsICpP+ymJxDOfPOQWfuuhNzFWODNnGJvqx6rlPoWfgaVAI3+iZHhQgt9W5Ta/CWfM+hRjiDBSQ7c9n77ieXRW4PopleMwxQlANAr/SYwtU0iBUphHPim6OKoDgfkgQTYZstBI2b+GKQf/VBYNIVtLBWFoECcFqWGCPZEu9lsFlDafgI+1nYWa6enqsymgUEQVcKEAC6kt334hfPXEPxvLeoX5tbMu9G2Y1QWuqDXTdoAYIfGDe3OYuMoJ9Wkd9k9GNf/CrBBtWIaMFYdRhBIJiWH5zKOQLyPcOYnxnNyYP9KIwQd/DvVPxzWmtc/DxC16Pl3eexqIpUgz/dTu+i+0H7sREvsQIesFIHJUKQIF0sganzbgSi1ovY6UPDvXjl4/dzdyLyYVV+bmFNVniEgwwQo8iAkCIJzRTicGBiu1CkAbqBhByFYgnKVASL6RnkmWPyW9O+BN07q5ujmoBFLRZizB+jOxFZbI9OCPXhk90nItLauZEWoTSlmRU+yhT4NGdz+FTd/yGuczp8cu9Hxs3cZDAbBIIJNhdIOWWPM4FXDoY/1XzbGhOFtG+MBhnO8IRg9XhFo36faqMGVhToQdjp4Zb9cJkHvneIYy/2I3J7l7Q326P2EZrVR0+8rLX4q2nncdcJSmM8/YDf8X6XT9ikRmjZ+opQJd2VZkZOG/BV1Cf1aPukjviV++5Cbc/9wQmOUAXP6y0T7JXx1x1wNkyWBwEMwlTIIDg9V3sO3rQL+hqpKg3pxJywbg5WCkfARqLoS2Zw3ual+L9LcvRlHRmWgs60ahcRIGjSYHBsWH814O34Rfr7maudCb7SIzgCZi5TQKBhOZamwukNXYxzQr/Vdy9/TnPv4SCUkIXbKMXDipOtaPRA6sjnYmEzosahwB71LJdpHCBXS8wTcKL3ZjoOmKMxxtgpLQk3rn8Ilx1zt+wcMskpCkbIGkR9vc+wTJIRs/UUoCSbXU2vxanz/kYS89N9geP7Xoe/37n9Xiue7e1c7kAgFLWXllmLl0xyBxsDptr42wAwYiDUJlCXKVBsCFuu/Whp/yxsItOP+Jx0QaBoDzP3GT9SxRCwUlT3AfQhV+BSyAAqZiGC2tms8BJK3JtoEiL0RNRYLpR4NEXn8Pn7/4dnti7DZMsk6B6nfquXtNw0QAJyYSD3fU27BuhTg939g8HIVwAAjMCVMVtl8Iiqj6OokixHgziXJ3mhrxz601hchL5/mGM7+jGxL5D5ui8vsVZMxfgUxe9mUXhI3e4ifwIth24HRt3/RLD49SGv4Zouq3R42c8MeTSbbhw0bWoy85n0+odGcRvn7gfP3rkdhYd02QHY6OT2dGXD482sZQ2CMb+J/TtpkEgDWOcbBAoFwPF+YgL2FdU1UmxD5TTEoWDWIAHSrLEihfZ/HUxJQshwZWStcW0kzHMTFfhH1tPx7ualqI6oWddi56IAtOFAv2jQ0ww/XjtHbr2QMEqnLNkE0LlHOi6oaoSGiV4aq5BPJEwryzsHOrB2SJeEAWOrFV1a0JyazZlhAqX8PbNSYqztbQJpcsHGXYFGYwxOLJJGBjG+PYujO895HvMyCbT+OcL34C3L7+YRd6jjzo42oWnd/8PdvT8ldklRM/UUIASbJ0575OY1/hqxGIJ5At5bDmwF1+55/csn4YZ9VBYcEqzmKkZvo5d4nEkGqqgZTM2W17Z3Jj5P9E8GBuRNwMQS4pujhUwIyma4cztDOk4Nqh4XmIl80/SIFi4Rf/Z3qD7qcSPvsWgNNVYtFgcl9bOxednXYSTMk2+zO03ruh9RIFyUYCCszy2+wV89s7rsb5rOwu843exGYgvYjHEqiuRnNsCramGxU3ge75z7P48KvfpD/etXiywLiINIbAAa9zowZRwCqPEEJ26yTBx7noECLsKVX8vXmvoTqa6yrSgaxLIBbKLXCDdtQDU//KOTnz5Ve/AivZ5LFwzJX861P8cntr1U+zvW29LF1yu9RS1400Bulo4uf3tWNzxLiQ0/cqZQmff+NSD+PEjt7OkW45HCGQaYgkevU9Bzgi5DBK1OcQ8XJt1trIAto4OYroRsxhJkWVzFGQA+6fNzFE9F1EouLCCwwZBr1Ms1rfqeQpBuXnb4KyJ6myttzQjVYUPt5/F7BEq4t4GXEfvy0YtRxSwU4BUmz965C/4yWN3YWB0SPADUm/joejHQcKCdmj1VSyKmh0kqIBBGItlxTas2plVEsHGw2JwJGOGBqqwaTuNK4pwCN85IG+A5QMt8nlM9g5hYsd+3bvBw3CRDibvO/MVzGCRDBf1tNB5HOh/Ghv3/Ar7e59EvuDhThfqY0eFvShAtE8la5ndwcltV6AiWc+Kj01M4PE9L+Cbq2482TZzAAAgAElEQVTBml1bWDRFG5OI7GDEIJkyw0Rjw6cTv1aXQ7wiJenp7EPX5yEBBCOSIrtiyJANgpzN0b6D63/p0YwcfMN/EPZfmXskGwTVJ/JmR7lGuNIuQlQ+nDDlShyvrJ2Hz8+6ECdX6nnaoyeiwFRSgFSblO3tU7f/Cs8e2KNrD1yuF4o9ucQ0DYlFHSwsc8zQIijEiK/Wwg4siqOazTjRJklEIWacXjgyUAgE9lOguxY+avvxJhhAUJdiw87nkT8yyGwSJnv6QDYKbk9VOsNsEa5Yej5qKrKmuO0bfhGb992Ifb1rMDjSFchrpTiqR7XoSqG2shPzmv4GsxsuRTpZy4hCkRN3HNqP76/+M0vFTGDBsQsajCdCaV9eZEA8BpQ9QRNdDySg1eagVaYd4ZHF/doMrWYCBGNMdMuQ0HMx2AGCuN4DaA/8lpVBMBcNglg73JYfrrT7KG14x7CMakhU4sNtZ+KqtjOQjrQIfp84en+UKUAZ477w1xvwu6cfwiCP3KbosxSeoCBKyYUd0BqqJIHiwPq+s3Udh4vWIDz4l3pQyKxiaSEO0dmG21sPbQppEgyQMNHTC3hoEjpqGvDx81+HN556DksZzJ+J/Cj2HXkU+46sQU//MyxXQxQnwXcZBi6QTtSgtnI+mqqXoqP2XNTnFoKuGHR8WcCBgV4W8+CG9Q+y9My2x2WhBVl/sXQS8Yok8oOjRvyMwEP22NDoaiABjbK5ZtNAXL8y9N1plRqEuAEQDCNFls2RHifDBZmvOQaFHIhVP3JtSea4IjIrAxldAjJZx43zqmfi32degLOrZoTTVJZjcFEbEQUECtyxeR0+e9dvseNIt8OmPdSJxY2qsRgSMxuZHUIsw41z3YCB+7koPI/a+7AirgWNmGjJq/B9W8Rwbvv2M5bTk8BdHLK2+KmId0EJniji4k6KuMiDKTn7p3DL8+pa8P4zL8WbF5+LukyOuT7qTwFjE33oG9mDwZF9zJBxdKKXeT2QzYLyKeTRO7wTBwc2ld3YkcIPV2dmoz67CJpWEZpfh8cO4kD/BoyO011+SVuDo++KRC3qcycjW9HmMq4Y4jENyXglKlINyKZakKtoRy7djoQwF9IckK3Bdx66Dbc+swZ9I0PW/ui08rPtf0EIQt4BWn0OhdEJtj4KY+OlkSIWY4BDq6pkp34VOJC3d/Oa3wYQ4rqdYkIBEOg60rA7UJJAJTbkz6sCCGI2R/stha8iRgk8wiAWi2ktMSIml7bra/Xx5LQU3t+yDB9pOwuNUVyEIOs9KnMUKNAz0Ierbv0xHtixCZRL3nWPD6T8V9eOZVJIzmuF1laPWILsbmSDPG8etW3ObloCD+2Boz5BcjGugU/ERCYLwggEBRmcZyK5kAga+Dtn8msZWpitkOHi4AjGd/VgYv9hFEZoM9DpLNaJx+JozdXirUvOwzuWX8RSB1OqYPGhU20+P4bJPKUIzrvaQBYKE9jRcyee2Xu9sRGXb4EmtUrMang5FrVdjkwy/FXswYGNeGrXz3BkcKs7wClquDHUVs7DKe3vRFvtOcoW9PWigwSKbUBgR1xA9FUo4+LGrp345v1/xKMvbsYID6nMWcHl6irMMmQAobEGFAa9MD7JQAIlAWMfNAxmIjytaYhXVkDLVehxTWgjl8xovcfGvRiMUq42COIe6sJIQQABlzIcTHMvBr1JNXXlCam+ru9JwUUQ6T9b/9+hJhGhP4u4HcNp2WZ8quNleHVdJ8iQKHoiChxLClBQlu8//Gf8aM0dODjc57sLhhFO4jzIeyHZ2Yp4TVaRztV76yy2T5XVlLMtSZNg2hvongu2iInBzxmeIMv9+6oBgpuMcmsnPzzGAAIZLpI7JG0MyNPg9U2BeqH/JbUkzp69EB8+5zVY3j4P2XSFLoMMwR9kHeYL49i6/8/YsPvnGBk/HKRK4DIEEOY2vRqndrwHlanmwPV4we6+9Xhix/dYBktXDUjoVnVPkrrsAiyZ8QF01J8fuAUCXbQvEzA4PNyPW59Zi188djf29R3S3RlVITgEu4Pgti7WkEyAoOlfnSUAG5vERN8AMDyu5+NgS0OBFmjx0/9RPJOKFLSqDGLkZWAYGIsTD8SjQa4YDC8GVXue7Oe2sQu/x6ofucZY/vLpJPA3tKFtb0Z2GhspgZ8JJtS4v0pL4/KGU/ChtjMwN1Orss8MN/iodESBgBQg9ea63c/j03dehw1dOw23Rntl19NqwD6oGJ02EpTlcVYT6E7UN7C8i2l2ICEkSy1J7uknO6EQe2/8wP5juDQyWyE7QGAlVScXT1o4TxNKkMLakA81/loVV5AwNIrJg/06QBgZQ2GU/jeBwgR3XdU3OmgxpKHhbzqX4oolF2BufQuyqQpkkikWVEk11ng8Zh5mjjVAoDWrxwZwbmh0VUIAh1+ZHEuAQB4HZNhreh4YH4ZGSQbAY5MTGB4bxaHhQTy+63ncsP4BPE08ZwADx3d02cLC8oAMEPhqZ82PTyJP64LWx/iEnizUeGIaqf8TiKVT7CrBy4VRbNMan+IU7RVJUfRiIAAiuDbKLGujleqwLgQnFA8JsapHri3YfYnN6QYSZ2GJrzdqHyGPfeC44pC0B3xAdCe4oKKeGSy+vmERqrUoeFKgjxUVKokCdJrZ39+Lbz14C25+5hEc4Xefij1JBOfFdEpaA3a90FhtxkAI637syZsqISFKFZ6W2hZS2ahkCmLx+CYRgb/irmXFECFQbMhgEihQKTopDo0if3iA/ZcMF/WpEvDR58c30sLoOCYP90Mbn8SpzbOwrL0TCxvb0ZyrQUUiCbqS4A+Bhvaaeha2mf59LAECbb49g3147sAejFICI+GhPYE8M+Y3tqHW8NA4lgChf3QYL/Tsw6HhARtIINBARod7eg+xsMlP7tuGXUcOIM80OuIEjH87l555uDdNRUKsPwsg0De0Ny6vIwZuWNxx2r2EgAsu/Yls55QR0pHeHLzQrnTFoOV0DYW5Lrlyz2u+Eu/LosCmAbQbKYbXBwZiPMdgnSGVddkktGaeTNRYqDKeZG6PpEVYnmsFJXaKnogCR5MC5LXwx2fW4EdrbseWg3uNhDDuZ9tix0InD621Dok5LSzWuv4oYb9nF8Xxpt6V49TPx+AGLPhIBMxgirvwYkWQBGHmLeoj7eeywN9CAgkUJ0EN9mLsJJk/MmCzWyAAkEmlrcRyMaChsgqXLX4Z3rHiYjRWVh9TgEDXYRRd8Kv33oT9A3oQIU6ZWCzOgkBdff7rsKKjk707lgBh0/5d+M5DfwKlSNcDjNFeW2Cag5FxsuUwjueqhRxA4V1MKG8agw4Qqpn9gAqPBF5LHgX5lNxZQwIbrAI3UtTdHDVDg8CuMBhAUZsIKEWH29hkjFKKF0PRAkgxOCc7+0uVjlQV3tu8DG9vXoy2VC66aijHyo3aUFJgIp/Hk3u2Mp/re7dvZLnn/Z5i+SOWrdAjKLbWuagp/Vv2L+E+ekdd+djDJLlRir2zeFW0WyxlDOJGpgZHAiLxiHyj3tx9vhyFZR42NAmDI4YtgrpOfnQchd5BkA2Dm1ViY7Ya71x+Ma4885VMw3AsNQgEEO7ash6fveM67Ou37B2ILqTloJwTn3n5ZThr5sJjDhA27NuBa+5biQe3kzeHpasPvG5cCgaur/qkFOWQjAobqmwAoaQ2Pfc7l0GIHQpqEDKchBEHQQYIdp7xQScK8wm5Bg1BsEHwE3fO975E8zxt6C/tNp28D/VJQB4B3Z2dkW3FR9rPwiU1c1GpcX/Q8HOJakQUcKMAnWr29h3Cr5+4F//71IPo6j/k5sDGmvDlCy/e1eIstHJiXisoBoL+BNvmQvUr3jn6CjCjf1P3KIB3+VWJ8xeH4j0fWbioS4eiiUhtDhIO0XWDDBL4pI3bh9Fx5MnSfXhUCSamG0DgNJkuAOGh7ZtAAFyEfLZlL7OA0nDNvoiL+e56n0Ya5rqczR2x6PaEYfE2fJUf8r0Iq6iHWSZjRwqYxgMl8SuGMEayYST90QUILoLHFC8xCl2qk0snnvwZ/LUImXgCb6pfhI+0n42FmQaQfUL0RBQoJwWGxkZx++Z1+MGjf8HG7hf1085RsDtgHFCRQnJOC7QZDYZrozwTf54olQOsuAfizYbQqinpuKGCk3XDGyY6v5hzHiIoEN8qAEuYYI1ui4WuG0bGkO/p020S2B4m34PrxmFkk5DvNUCCZN0eAQS1FwPXIBBAMA0P5ZOtvKvKXguCVr3YKwXb59fiSNRUIl6V1Tdj46WD65QA2/NEbGvLudsJnkEyOmIMGWMZGxkQoIiq0hWDFZcjpORzQy0GaxsAQbU5Wx2pph1eCAmtGLRgRGc/G60ZVtDKKbrQnn5uTGTwsfazcUXTaahPZkJSKCoeUcCdAmRN/fS+nfjWQ7finq0bMEx+1x57dHi+EI8YMWgN1UjOb0O8lsL6BjtzKGSofUKcd7zll14niJGT6VtmAQRbGGaDpUuihVIT4QYQ1N+vlP4tDKRv/pM9vcgPjunhd22aFA6iYsyyPd/nvG6YbgCBS/vppEEQrxg878wVZ0hlOI4i44+Q/Q9lWaTAZLTpurK6eBD1SPrlJlkca9PtYMsKGtoDw32SErdRwqZ4RdqIr6AbKTKspOLfgHzP3XlNGExtWW6OwbeJohjPNkhLYtnaMpPNc8AgHQMU9ya8/qmVTfj0jPPw8tq5yMSjq4bgXzMq6XqARAFd/Ufw32vuwvVP3Y+eIYp54HzE/bcUajLXxtktSMxuZtHSnHfv9p7KA9yNEQsow87fPtwuvS5KNogYyTw9mWJKeqsS2YINhLgxBBGMLt/T9nMByI8YLpCGd4M5TH64MSqoQMJ0Agji95m2AEHY6GzklW3wjM/OPrO7MisUS5IGL0EGikkrIaByTTs29OBBlIKBA8FIkcdWoP+S9kCLI052CBRnIUvJmvQATL66RRd+YD8LosXchnUbhOChlosVhHo9++iYSoR9cHFavlM0PzYHVuYPBeC1dfPxsfZzsCTXEnk1hGKLqLCKAhTClbwWfvjoX/D8oX2e4IC/LHqDpLvPhiok57cb2gO5O/+W/Ut4f2ervhgISQhkIBomCqwrYIui7S+cY/fa3d1nKgq7Yugh1rFJI7puGB5jro2FoVE9CyQ/shm2VLqQLTCvBqZJGCGNQwHTBSB0CUaK9PmmBUC4dyUe2iEYKYqfXfVvxWITz5XFfHNrU4lBq8lCq6k07Q9c27PFJzAQDdMkuAMF5Rp368Bs34qkSAaKFIBJT9akAwQyqCQwE3reIh1FsWCoAs3uwwAEgwwl7CZixAMRDpYAEoTRVGkpvLPpNFzZshyzK2qjKIslfKkTverw+Bge2P4Mvv/I/7E0stwNy40uoRlUaihWkdS1BxQYyTNro3MExQJ3VwhiCmZjVrIwkf52gPUiF48/Dd0GYnVYKljxHAMDCaMsyVOBEvmYCZ6kgw23STAMFxszVdPCi2FaAwQenVC1duSP4jQ5Cb9BKvphGryGahboyDekgahBYCd8IfAHxWswD7/i2vSPk6BPROQ7wzDR0B6QbGDag1RCBwgVKUDTipt/AAweWoNQJO87qukk8BcJYQQy0XB2qgb/0LICb2k8GU2pbOT6WK4PdgK1Q2FdyYDqx2vuwF0vrMfA2Ijn7ItfxUazFGWvsUbXHlRzG5rgrQYvKaMS6wrPvQ3hjWwjJFWyGSYWOSjvasEaDVZK/Ul96xqaBEoXTTkcKHU0e+QzjgASGuIVeMfSC6fczXFaAoT7VsI0UvSTMR5AobTdhKlTdO0BeQ4JmRZd14MMENjpnkrraaILDCTY78R915YJDrjWwDBKZN4Lcd17gSdqSicZkGFAwcsw3w8EKK7tGS2NekcZIDhH5wQGwa8V+PrxInQiFseybAs+1HoGLq2bh1wUZdGP7aL3AgXIKHHbof34zRP3YeXG1Sy4jAsPlQhxhZNFZRrJua3Q2usF7YGvODEbCF4yKEAQTkNesxQOOvwOuNTF5JwL/yWYnCiaFsbArfoqyWq8ZdcIY5ik+AcUlplH+CtIF6nGdUN9Pom3LzoHV55+6ZTGQXjJAwQJBXBAahrnFbv4WOyDNLTanJ43IcjR1QYQCGAYGzgFV6Lb84lJgEJ00xqgKyjhOkrdAWcmI5cDu4E3QAeFwtZi+tUCaQsoHTUBBIqgaNM2uhDAYymb4JbPWYjYTGMODBCKY7ygACHQJwksEMn18cLqWbi67WysqGpHSsq6Vuw6iuod/xQgQHDz06vx6yfuw7bD+11zLQTbrgLQi+IeNNci2dkmRE2U65XjXK0YCz8lOF4F2JSFIZn/LJIowWbn3Xhx8kkAacY/w0yhMDahXzdwkKBSkxcKaIhncMW8M3DlaRehaQoiKfJASdMeIIjbhbx18L/ldce1+QG0927cSBtuojbH8icUjI3fdz25AQSyBzBO9cz1ddTIDsqvHBx2d8bOLLTHNAL8f6bdAbc9oFwPOkAIfLUgsrO7GNBxizRxX4DgSyhf0GJ9aXtb4Vq2lVYhIj4Oo2BVPIU31Z+E/9d2JuZl6qF5qWECyPGoyPFPATJK/OsL6/GztXdh/b7tvmmciSKyYXVYKsVyGRY1MdFaJ+RcCA6Yw3GRfUP03AxZw9yQWO1QUWzffHbBNmPnTuF3IAr9DUJVEHYqIs/4JAp9Q5ikiIv0bwMkiLRpSGfx9/POwPsWnoemTNWURVKcdgChaweuISNFKZKiecJWMZforSAsoGBryfmh6RRORomkQSADwMCPbKTINQjJBAMa8UyaGahOEngkkMCMWikzpaiP5FoD47Kd2zGwtinegXi1YBgmplKIpxOOMNCBxy0UVPKRsHAZTclI0W+/LZb4+lgshjIdMcwOecvqHlQgUmpSiFtilBYm2JioxPsbl+A9rcvRmo5CMReziE6UOsPjo1iz63n8bO2duH/HMyAjRb+nlA2ScQYFO2mpZQCBwivbt2/33kP1a1gli60pDmP2vm0nDiHbksymJSZikjC9y4RFKeA+81A0UQhJK6Kr11cXCSP8e5KSPI2gMEQZ/sYNDwfjaFsAGiuyuGLemXjf/HPRVJGLAIKR7tkWKEnUvnh9TGMNBlsVHt+SAg6lEiwdM/MECKKqtzGRtbkzXiZwoYhwyLQIlABsdAyYmBS8X6SxMUygaw6YBoFrDmhc3O6ArhTIe0HKEeEnp1TvzdUr4l1zO7auGH01CHyLL2UQan/uYBHWfYWIz3FiZrIKV7WcgSuaF6MmmSnBLLIYCkR1XgoUIKPEjV078fPH78ZftqxDL8/S6LFllTyveAzx6qweNbG5Ggh5DRZ8Q3SH/+o2VL+6OJlzgKA4FIWhj/dcXN4K54FStTjBZZwTWvGDJNkhFMbGAdoQxsZRGM/rQZUKANMgzF6B93aeg6Z0BBA6RIAguzl67WbGu+Br32UVahRkKIl4toL9l1T1vvuM3JRNg2DYCpCHAdcg5CoQJ28I0jJO5NlVA60PliLasE2wGTEaAIESaOnggDQIGgMHoKBIlEaa/hcPEO/AjYYSn5o2x4rfWRN6oCTvOAglfwzT4ENoSQ6IZENmxh+SZZjnOGwnHvvxgF7NT9Xhw61n4o2NJ6EqKZ7UwoixqOzxSAGK4PZCz178ct09uGXTGtdgSKEFiA+x2L1nR6Pu1khCyicQq0M+ebXvjglstUJtzGJhngK6BOHgfQIM3nDwkt4fxNGOLw31GiZAIHlFRooEFCZoE5hkGwG5QjYmK3HFjGV4z6wzpg4g3HkduvqsZE009mkRB0H0YpAXRQDgGfj7U0G6BkglmGsgXQGwYEjM80B/Arcl+kCyShZAsHIkGACBLxDK7TE5qV9DcU0CAUgevttox6E5IJBAmgnSUAS1j/ASFop91UZmcS91AwhOnFz81mAFRBLbcNETSYN34AY3plUBBOM3BswQwykVjbiqeQXe1HQyKhI6soueE5sC5LGw43A3frXuXuax0GWkww1CleDCRNFaPI54fQ4pMkyszVk+RTZRdfSM8nzBNuNDqZTAT0HoIwpdFVvbxbIb47uPtKwyyndCktRUlDdHSv8wXNx0V7c8GrRKXN6yGO9pW85cr6ckm+N0BwhGumflpxBYgX13rtASthFlPQ4KeGAhUtGbanprww0HDixUyMbCtPH6lQBpIuJ0BZBJsRDITIMg274RgKQJMHBg/FtUgRlXDMxlkoMClsq5hEdVWeiTvTb/5m4MhoulmwahpAGZlgc8R7WiNa+8C8YXM91YZAtVWZ7IAMHIjS1aOCQRx2mZRny45Sz8XeMiJMpwj1PCJ4uqTjEFzAyN6+7F755+EHv6DlkaP9VyldL0lMIfFOc9MacFyY4GXYXoeLxbL6ZvEVvbNjObcDAYTxRYAq/xQ06YT6fC9P7jl2s5a/hv2f6j9B+HDHP0Gv6jE/suoCFRicubTsW7m5eiKVk5NQDhjusw7YwUjXTPzEiRAwRRaAvklwGhiRlIrV+RMtKiS0jCuMdn1v50j08ynzZeadMOBTZl7wXjAAoyKDQAAtNQMICQVoB/Y1KMrwTmModuuDkaK01mxeBr1ujHsTcKa1O0IZLv6QzLRM8rhtCDEfq26oqtiKciGRY6K/ObCPObuAguOeWW3eDIYudULI7TKprwybZz8YqG+dDCWK36y5uoxEuEAuSXfGCgF9c/sQrXrf//7X15sKVHdd+569vfm7fNm5k3M5oZNBptjMQikNjsYGOMwdiQeEsgxIGyQ9nJHyauylZJ5Z/YpFyO7VTicgypmBSuSrEEA8YILAEBWUgICW2gdTSbZnvLzNvXe2/qnK/7+053n16++x5blR4l5r17v6/79Omz/Pr06dNfg3OLs4DRhDxrPyL4O9ELDBdiYmLzhoNqa4EzbZeAga5yYqwKMoPk78G6QY0bavbSbtyYF+dfmgt22slfU79I6MQyM+E4jQUQ8oRPTCRzL3Z0rv5TjWcA4eYMINRfAghGDoLeYuAAgbPdArDOnDdqUNszkJ0asF1IniegQUE2IdnUFb8nmy0bIeu/cUGKOJ8AAp5iUPkNBBCk1n3CY6FxVdpcd0ORExuzhoi3wYHFIPpaQiDcNftOMcSV2KWsIF5dgZoXX2DHpSQIHhi0QYeNNXRbASZlrxQvIki4vXcv/NuDb4Q79xyCesnksGRheunBH0kOoGGYX1mGTz5xH3zkW1+G09dm1FWzflfRjS74Bo/HGpu3XkdGTbYeJeiIOMB8rcueE/WJjISFArLYqXytNY/gRZhTdG0SK78mdxgaZurc2G14hmZNm3qK/jHvGRbft4lRfBpvvAQQ0C2PDhyHkwc/AFGAwCdLR49xt0aqdYDlkUcH6Zhi+MdsFFP9qBBRGSslRA/y/AO2xYDHHPESJSq6lNSBAi1cqBQYiALYqA0oBpg/ysRapI86zR4SjzkmjSlhOkzuCEO1GJL7cqVYDh36AyccIm+Z2o9pkpuVGrymbz/87vRdcOeewy+BhDJK8mP8LG4rzK0uw2e/+yD8+UNfgufmLkbvWODYdadDx2RErJhYPzRpJEclWpGwrZEMhaBfYZ1iFpgvZtS2pF5Aly0pYpNR0JDmti1/Eb+1TpgoyaGHja+ikl7kK09zmRqMqOQRhL5ii+GlCIILEPCypvxei2IPh+QttqVjAATbQdiCYEp/ip8rnKr1rqp0mB1LxOhBtoVRaaprmPHoJN2y6Isg6OW77NSoX+7IU4yP5E89i2gut8RjyVl2KvIphhTGmfS61snBZkzRfAnb+ZaCbZX5ikWy2NaKxqXf/aSnUoNX9U3Bh/a/Ft4wevSlnIQUAfwxfgZFZHFtBT71xP3w5w99GZ6fuwjb9r5nNBK1AwbUq1DfNwaN49NUCc3Yf8ybDWteGb00NFL7OmeLTgYExiilQEJ0WSPzqfzo3I7K8EByD2nBD8toc2SkSDLK/LLTDNQn92oVgPG6ABCufB4eO/dRWN+a34FQua82agNwdPKtcMv0+6C/OQnb7RZQJcXUJMWlR+Hh038C88tPQydLsd+VnwpUswjCoffD9OgbqE2jDkK77eR2GHcW6eRE2+EFIgiSV+KDSZYlp7wgI4K2F7JrmLEUMl69TIWSECDUi+OTMX8pRfAkUCtOhoSgIwPlY8/LpBtoTOVC8CTFZIZFRMbFab61vL8how13ppMWXTG8iCDhZHMC/vm+V8NPTVz/0umGXTEFP5qNLK2vwl9+5//BR7/9t/ACllDGLGLuBzzLYuORbodWqUB1dBCax6ehOopbC9JPefdZhpy8dWmVkS9X3BbLRgskp1yGTq7YttrvxlxQG5I9KTknjn3S7wvgiQDCBE9S3IZTV74Aj537CKxtzZZjT+RpBAjHJn8Obpl+L/Q1JxRAeAT+zRf/N1xeuma8jccc7zh4PfzrN/8DeO3hE/TdzNIT8O3TfwTzy0/tOkAYG7wRTh58PxwYvYv6evTiC/B7X/kk3Hf6e5k+etxEPu9SYa5SWwzF8JN9naQAuRCp3AO6glmVQm428kqKcvEln/AVFCUDgwQ/bKyt9S3u6j1HVIWO8yRFG4SUl1rhxELeaGB7QesrI8AwZkiIL87Ems3HJq5u/OLQA1W4qTEG7584Ce+cugUGe16qk1B+7n+037i2tgIfefBuSki8sDSvwAHTBjI82Z5kedcdH3sFL2N62X6rnHKaGShlyITb47xGgC/P8veYkeJVlruMGJjmODNV8fH4n4i/65+LAlxkfHfbkuGIDnOjDcqfUL8YviMQmhit98K7x2+CX997O+xrYqGkbTg7ey88dv4jsLR+Pi5AJZ5o1ofghql3w00Hfg2a9WECCH/9vYfgX/3NXwDqAf+pVipwcv8R+Hc/9Svw+iM30VcLqy/Agy/8Z5hZejwrG71LP1gAaO/Q7fDyQ++HqeFXUKsPnnsGPvzVT8ODZ58xATuvv5JBl+MAACAASURBVKtkz3sZmLPFoLeDuD6bApwkR2xyjXnXUkx5jyr5UW8vYEEjvCcBayz0NgK3LHIKbOXKMiOSVK4QanmWrO957nKeZMuzbR2AprYY0kyVS0NYyVxEJBpfdnsUKWEMYIWCETr8l3ckiYLLejwCebw6BO8bvRV+6eDtMNLbv0tq8VIzP2wOzK0swX/9u8/TUcbZ1UVoo6XJs50sWbD+TDIksQHi1sKhvdA4ulfdFCfLpDYKdnPpNPgUJ2uxMAiqB9IjoXXJGOygYiKnSrYXSEdAqYVhpfOEczPjME2x06ZkaVkvtj23txQkGWBDGqo14Wf3XA//bP+r4bqeEeh0WnBp4SGKIMwuPxmToFLf9zZG4dbp98H1U++CWrUBG9tb8MnH/44AwjYW6mE/OKyjY1PwH97ya/CW47eTQ9vcXoL7nv2PcHHhAaJzt36qlRocHH0jnDz0ARjpP0bN/u2z34E/+Npn4InLZ+hGzFwkWZ2DaATLiSBwAZblKiw/nluf6CXm0/RxyfwyJcw/0EWY1LFLg3gJgLIKpcQRExwY5iis3nKdNRu0sr+z+kSc0douaPSr7IbeYuhO6VSj/IRUZo5U68oYC1aPyDDiH+oVSSLDVibvUbPXxYtxPFbrABxq98L7Rm6B9xy9A8b6h3ZLN15q54fEgZnla/B7X/0UVUhc3FjNjzaJ5HiCXDsiHbcWJoaheeNBKutqSjgPi8naF9RJyadZxl8bXHo0YCwyBTIzwnL7wRL4y/AibqZ1a65y+2xhtzaKH2zLrBMzWPmgbBSQJZ85NpSxSdl087SHMK2YFH3X8EH40PRdcHPfJE3GwuoZeOz8R+Hs3D1l2Bp8FlfpI31H4bZDvwEHx95Iz86tLsFHHvwS/NE3PiumvUwN7YHffdO74F0vvwv6G3gSoAMPn/5v8PyVz8Jma3nXaKtVmxTZePmhD0Cjli3APv7wV+FP7vs8nL82myfkSfW5gtY7ABD0SQU+CAn/Zn0GpCv/Svs1VQoZ/1TRA8D8gx7MP+iBSk8zy0sQ97IkoMD9ezFaL0UerGFMlqREfItBZIQ13TxJ0eCB4LiLV22FLjTCqJqorZK0UmEj1/WSjCxKDvxsw6YJybtVWaSGBYxMODPVRvPtDkxuVOE9Qyfg/SfeCFMDI4Ew0a7pzg+lIczop/9ZqJLEOgrbfygkJ3eKUYIzV6/A73/1U/BX33sANnHlZCtEroemQvrELblz7qQHe6F54yGoTQxLrptJoV+7wh7BdPy5ZnJlxvK/juUItGqe5ivejWJs2a1nfUtoxnXIGVXdwHvJBbhjlIGB9S4Ng9HA5MYx2IHAh937TX0T8DvTd8Ebhw9DvVKFje1FePbSp+HpS5+A9S2zBHI3sobv1Ko9cHDsDXD7od+Ewd6D1MzTMy/Cf7r3E/ClZx4Rm8Vo6Xte+ZPwT+94CxwYHqNnLi08CN869YewuH62W1Kc94b6DlP+wZGJt9B3eHPqf7//C/Cxb38Frq2zrQ/FU45XBbEo2ieAMGQdcxQmpkw1Qj+KyC5TUtEDnpyIlyhVe3uKok1RNKuSAMkOu5V7vIyX1Ux8nB615VfdIZZjIuZHSfcMtaxAZSRyF0OKhGSd6U1LAUJLmELCVxrhSPZEE8K/40DDCNBwo+QfgcjrdhtGVlrwC80j8Fs3/z04NjYF1R/jgkoIBFa3NkghV7Y2YHljnf5e3VinGws3W1sEFJq1Bq0gBnv6YKCnFwab6r+ePuipNwD3K38cfnDP9dELL8AffP0z8KVnH8kUBKWexFIZDmNpnX2sapLkQ9zpaDGDuXH8ANQP71VKF3aSkix2S4Nh3zhqyO9A4T5b9RJyhAkTb9Pv2tiQUvv11TYdCaTIj3DbIkVTcoI9NVusBC9HUCIAam9jAP7R5MvhPZMnYaTeQ3kIVxYfhSdf/Au4vPjILoTzK9DfsxduOfBeOD71i4DRBKxOeO9zj8HvfO6jMLuyKPKlUavBG4/eAv/yJ94Ft+8/SosDpO2B5z8MZ+bugVZ7vWuW6xer1QYcnXgrRTYwcRJ/Hr94mqIH9zz3GKzjzamCsNNHMWBqRRCkrbrcP5UZSU4P0w990yLKAvoESk7U1zA3MnCAVzF7baXkvNQAKx2oWEbIGDpXKGEBzdU8B1RKrfJX7YU/l3lngZ0xqyRAcM1AUXDCM5OiF2YzZRVwM9CiNCDj1axxvwy5ZipFRiqtNvQsbsDrt8cIJLz64PUw0IwV4khp+QfzDK6gVzfX4dT8ZTg1dwmemjkPT145B6evXoYXrs7A8ta6RxwAapUqjPYNwLE9U3BsfApunDwIJyam4frxfTA9Mk4g4kc1wrC2uQH3Pv84/Jf7PgvfuXgqyzfQymqXIYsYnm6dM81wtULAoHHDtLpj3quZokDsqG+e4KVbN3TQ2mP1GJuEbEKD9vIAh48yrMFBrQnYF7/988CZXFZ0jy5dtt+IOjDVVKNShTcNH4YPTb8OjveN0ZoRIwenZv4anr38f2Fl/ZKyZN3ZiHq1Fw6N/QTcft0Hob+5lxq5vHwN/vT+v4E/++YXg40eHdsLv/26d8A7bn4NDPf00bNzS0/CQ6f/GOZXvgftHeQiIFAZG7iRjjce2JOdXljf3oK/evKbRNtzsxehbVkjyY36BkBXNueFkiTNURvPKREEZ3LVwlcXYsRyiTo5UYED3FpAUFDrUfc8iNdG234oUzoDzLBBB/XfRsy2abEYZT+uOg48ZRZgKAkQinZd15tg1iLK7AhBCUlxew8bIIlxhjlotaG+sAa3rPbBPzn2WviZ47fD5MDIj+xKGmESJiFdWV6ARy6cgm+eewa+feE5+N6V83CVQnglmMkmol6twuTAMNw8eQhedeBlcOfhG+DkviMw2j8ItWqtrB/pzvpF3kIgcGlxnmoc4K2MZxdmsgtRMi00LyKJWPTuICUjsFKB2oExaJ44mBVKcdyo3/lwf94Vo9hY/drIvtHVUqywLrEtAs7L0Be2DHGOJ1gWkZycHaqBYkwCQAjYJt44NWWrUgKv8JUDzSH4wNQr6MhjT7VOxwgXV8/A05c+BWfnvwIbW3gMMWLxhZFWK3WYGLwVXnHdB2Fi6OX0xGZrG77+wpPw7+/+Szg1fyk4XX2NJrz9pjvgg3e+DU5MTlMJeowinJ65G5688HFYWj/XVYQDwcFQ7yE4se+X4Njk26Be6yMQ9MzMBfgfD9xNpyswN8j+KWOpXIDgmQwNEAxh4j3xiVUgWmNpfKxSzRZGuuaBqnsADQUOECAQOLDbdKRHTMrlWhALmiTrHiMlH3bYLbpzUX6LwdSkrL8uVDhmzIwsKdvQyywyqSgoi6mc10S12lC9tgqHFwDetf9W+Ps33wUvG98HjZpt+JOn7Pvy4FZrGy4vL5BB+PJzj8J3Lr4AZxdnYYuylndN3KC/0YQje/bCaw/eAG+74ZXwqoMvg9E+BArShUPfl6E6jW5ub8OTl8/Cxx7+Cnz+6Ydgfm0pAwfGpKbLZ/qTwvgQHEwOQ+PGQ9aeaJpWxl2lh6e2dZE00nGAVrIBU2N6VDpzHplSgQxlGQSHTDSGj5Z2I7k2D3mAJGw1rCc5yTzowony/W51pGcfcw/uHDoI/2L/a+D2wX20gkRHfG31eXjm0qfh/NVvwObWQqn6A5h3MD54E4XvJ4dO0tYCyj/eUvrH3/gcgebt1nZUGa/bMwm/edfPwi/ecifpNIGM7SU4Pfdlom1p7SzRmvqDoAXBwcumfh6OTPwM4OkKHO/C2gpVMv3oQ39L16y38cZLwYWk6qEJELKG9CFBY0Z1dEgdTRR3AfL55AChAh2Vd0AAAS9X41UT6XZIBQ4c8OHzPGbOAR8+keDoairX1XPqfacdH1N9ioY2QAQIPgLpcxsgWL1q60KxGEUwmyn6iCdKaO5wXsr2JGvMbqskQAk1nU8DfwhLgM4vw+jMGvzU2PXwntveBK84cAz6m73dwKKSMx1+HIHB1bUVwNvQPv3k/fDwxVMws7IEm21UZM3kNOeUShgqSW+tAYeGxymq8u5b7oSb9h6CvmazbGXz1C7F59AILm2swddOPQn/6+F74MHzz8IKbp1g5m2+1y6E0z1K0rVz1tThiYU9A9A4cRBqIwMs78An2CYhlj9iY5aVMadX/UK9sEfNhLw0c5ucGJYAFPyPcKPgpyuN4jIuX+9l8hMMku0SzJbXaHDmS3s7BX26iYFqA35h7AR8cN+rYV/PYObOOi1YXr8Az898Ac7O3Qurm1jIaysYTUAHjDUPpve8Hm488Ksw0nckAwd418jqMnzisW/An33zbiqOpA4QBqcEtxbvPHwCfvv176B/e+tZtc+t1ipcuPYgJVTOrzxFf4eiHFgxsV7rh7GB43Bs79thes/roFnPkr03WlvwrXPPwp/e/0W47/R3KcqRO0eWB5QnridYCDmCUMxr/psNEPQxRVHQVAKhTtjGBRDe1ojbChgl0CWVCRzU1YmFGLFZR4Uo6W0GfbjRUnnu64JNqxbVOPJ8KuX0vaXAk9B3iSTFYmD8N9usaarccqPSIYM8wqmTJ9lYDRxiWG+TEpN35c1KkmNotaE9twjVs/NwW+8kfOBVPw1vftlJGOsfpBLNJa/8iElS8HtUdowMYGVA3ErAlfPXzz4FC+ur0DL2CsvzogxhqPCNag1uGj8Av/Gan4E3X38bbcFk/Pj+/mDVtYtLV+EzT9wPH/vOV2m1tIVFXTBjn08o1TtgaDSH567UJOmLb1gIDgZ6oX7DAajjiQWKqHAu2CAha0hy/VHe5S+5b7tqYjtDHVnR1sQ6BRHtvKzbt7VL5oPNiySdFEhx/Dg7pigestczkCdYe+RCIiiw6vIm3Knmx2t98Kvjt8B7p07CaKOfti1Rr1vtTZhdegxOzXwBZpeehM3tRfosywFA2a5BrdKAWq2PjjMen3on7Bu5A5p1XPEj0OjA0uYaJSb+yTc+B0/NvFhstSWoJF5c946b74DfuuvttNWACYzkpzotWNm4DC/MfhHOzN4DG9vXoNXeoIgCFlNCYFKp1KFe7YG+5jgcGLkLjky+FYb7DgPWP0DaMHn4mdkL8OcPfAk+990HYXVzo1ACRVs3854BBH6KQZ/ayYS5CApomc8SCjJHX81PJDjsoS0JtaVAwABzizAhsQrVej0DBhhNSErelhQro8z4RjIImjD9oLCDYu0U5kNxwIEks9pGOtYo67BUDkIxgTw4WN6q5G8Yxty2mAwtsJmWe+Oc9dMTMshRB4EgYWYBWqdnYGSzAj9/w6vgl299PZzYOw0jvQPQU68Dli79fv3gdcQb2xgxWIanrpyHzzz5TfibZx+BmdXFbIWgB2BceRYdVVfk2oqMeQrvvuku+Mev/Em4ce9BGO7tJ/Cw28mMmJWNpzDwHoX/+dA9tKWwsKGOSPFiPiQC2jto9xPfbSkvyVk8sNLXA42jU1A7MA4VXGl49yHDstnNZDj1CvIIm3mIP/OBvDyi6o2JSOjioZDt4g7eHKFP43JhFbcno/MQIcaxL3w+ckPLeuEdMgwVzMMw4td85mTieBf4+3R9CH5l/GZ45/gJmOwZpAvj9DPt9iYsrJ2maoa4/bCG9zV02lQZcaj3MOwdPkmJf/VaUfUV83AW1leobDEm/+HiIc/DKSFYuF34yyffAL9+x0/D8fH9dIKJ6/HG1gIVeZpbeRpWNy7BdnuNgEF/cwrGBk/A5PBtMNCcyntEGjZa25QH8bFv3wufevx+WNlUJyNYnaAcx0cn3wJxLElRu1vR6tkRhFoFKuToa4CJhqTH9jTqUwu0paAiB3ilMwIDqnNge2/lqILyybcXBJDAm+QyFouwc5XSgMs21Nwm5sCAa68tKCUiCMzMWq1Y2qXZbDt/RrSRUC5Zl5wZTgUmO/czOflOwiIMd6Sp0HYrAwlnZ/AgLxwb2Qtvvf52eMORmwhx4woaE36atdBRl7SuNG2tVouOJc6sLMB3r5yjkPq9px6DM9dmCZUbe+2yZsQ9YzpJxpO5raXE/QocH9sP7775TnjD0Zvg2Ng+Ak59eERyhzkKaPzWtzfh/MIcbad8/NGvwROXz1IkpaNiarStoBUglym9xaC/85dULmmXcj5gYZTa4QmoH5ygVYX7E285/gS3Rbr0aGFJ8gqBop9SredGS4jyad3sSg64NSy0LNsH9v04lst5sBRPOHvU78U60rKyRrSAoyM3cm7s4XJh74I4+5UqVOBAbQB+bvAYvHXsejg6OAYDjZ7SiwwcAVZLvLJ8Db76/OPw8Ue+Bo9fOtMVONBsxIXOW0+8Av7h7W+C2w4cgz29A3k0IVVEkK5Wu0XlnZ+4dAb+z6PfoFoMeLSae2Lii1rf8F3p1H5AvM2xeLsAi1oPdARBAQS8O6G/Kd+8mB9rVJEGrJooRgxCiED6LqNF1IJAU/SV+t77mB4m9wVS4M6L0c2WkyIIYX3oQlt8iRg21vByMROAgs2SOIVXz91RDQAEEhYJJHQWVgGrpB3ZMwmvmr4eXrH/KEUUDo9MUrlmBAuIwHF1kPqDVONpBHSIyxtr8OLiPCXhfev8s/DA+Wfh9LUrgIl5BQPskXiXNqkkdPWcpgITGW+dOgx3HboRXr7vOrh570EYHxgmXvTVm6W2ZBAYbGxv0hnuxy+dhbufeZiSMC+tZNneGdBklttghS1M/hnvVhYqvU0CBvVDE+qGRttD87+zedl5SeWw282/5Q7NtsieDESDDyWDT9ysuPw0iElKau52TjSHiXzRitpmOdFOSGrGh2V9Lxp/a+oQ0462GvCa2gS8eeQInBw/CHsHRugocSzxV4NmTPrDk0pfef5x+OLT3yYQvfOfCgH+2/Yfgbfd+Gp43XU3wnWjkxQZxMVP6Ae5iblRWHfl3MIsPHDmafji0w/DIxdeoM+Z4Taa6Xa+Y8cc83Z9EYSeBtQGe6kCohkVUB7GU3k5nce27GsrEEkft2XXiwgKpMFP6ebRQCkK4dhJG8wX0psEEGxmhB0ze1rijfo6KhAyX4XtvWhL4lx295ZqarsN7dlFaJ+dhfbCCkCrRfUDJvqHqbY5Zvofn9gP1+3ZC4dGxikruL/ZAz21bDWNIXl8Hie01e5QQROMBqACLW9uwNzKIt04+MzMi/C9mfP038Wla7AtnUfOLaEe5g8GIMT4h0lOh0Ym4IbxA3Ty4/rx/XB0dIqOTA40e2lLpl6rQ08t25rJQuUd2G63qXjT+tYWVVjD0ORD55+D+848BU/PvggrmxvZloqIC9SHMeJsQ52u7YX/7W1CbXoCGofGqbSqK5iSRvtdZxckdGFgBS+m9bEkIJBsQtzVxjspOXVetvnbSeuBnkp7tAsa2CvtDjTWtmB6uQq3NSbglZPXwY2T0zAxMExAoUkLDIw3VOhCI0zsW9veoJX583OX4OEXn4eHzj0Lj18+C5vbmNi4ez8IEsb7h+G2A0fgjkPHqZDS9J5xGGz2kS3DHAV8BsEK6i2C+aWNdbiwOEdRjIfOPwuPXjgNV5YWyMYVyqN+Y8GsbqnmAIFfcuRIWgwg9CNAiG8RlxcJF0VyyxBsz0aZoaAc96t2B5L/T2A4ZWGUPeZYChwowhx67YqJSKxvENZMd2Ni00x1Asf4I9tt6MxlkYT2NQQJxQAQ/Y/2DhAwwEjCRP8Q7B8ahbG+IehtNGGo2UtZwtnlKC3KvkfHh6uB80tzVMsAj+thHfXlzfWikIgUNsoZUl50S464C4eUvYJVGRE8jfUNwsTAEEwPjZMBxBXJeP8gXbONgAlBEkZN5taWqcgLlks+uzALl5auwuLGmmFkaE7VxBYsEComspDgblVMxJwDihxgzkFvgzkSPgdSXK/LxEQB0DgRQp9RyO0TA08MQ5aVGluXbBsmj5B/ulPX7ZPaQhic1ZOUgMXttoB2nNLv7kDFJFONK2SYLlkiAMBFwtIq1C8uwNgywIG+ETgyOgkHRyZgfGCIirTh6QB0wJiDhFHF0/OXKVpwYXGeiqIl+I4Eddcykh0p0JlmCFCw7gnasOtG99ICaO/gCAz19tGRb4x4YnIk2q2zV2coaRh1dn51CbZwG1Qizq5MWVYQtUN0khQ9uC4IEPqyY8lGXoGLZ2QGSoJk2wFzcNGh+pRME8C+d8Qy3LUYtiias1vr+ACC+Yp5Yjk6vDii5jyVdEYYpHtylHeTTlP6k359ytvASEIOElYxHFCAZLZVjAqGpYybhLirFD6skcBmmceIrnF1sNXepkREyi3QloaTweOmDqDajZEl2JAdLqxw7Lj6wFAlbr0QT3BvT/ECVyJoVHA1hBXXDF4Y4bJMcPJRSxUTjYRNd2zdcEyDAyyGhKVViy58ghxfV6dxXabfaD0nQTtLNkIBFOS5QCUYIdmuMP22MkuCLYt7Gb5QL9IUFBppNsefVSRGkxIda5wtbDyHIAIBCIEn7Q60l9dh8/RlaF9ZgGanQltyuEqn7YYO4ogO6QbmHGB5YmNVXoZZcQttPdHJ8ms6HWh0qkRXs16nQmnoU1GO8AQV2i7cGtXHF4vEaSFvV4uoAvolRNCgTZ9iqPX3hCu+7DpACAqbN/k2aA1iTWpQ5KYhFYXNYurmLDKzY+H8+hEOjYoIAnfabApsX+4e34pPbX6+2l72iPsjMpfMXtLNlPfJxMmwdSmjg73cakNLbzdQJCF8h7rILdtYScuP/DOLcOdZd8Z2xXZo4SzZmI/NBh9KzAU9qo1L/p51O5/efDaO8OwQINBphSbUp8ez0wq92bZCMQ5pEv26EdcaCwDzexTCR+6zb3Mx0GG84hrCdO1Jm+zwWHRvNn9cf+30ligXeQ+5p7YNS4TbTGUcudRESZY9YO3jPJF424HO0jpsvHAJti9fA9hKL0yUNlOxp/hcmQOvDvfRkcD20rpp4+zp5QNnixh92iY3n/iL4l85XbDkpusIgrpHoacB1cE+qPU38y0GQ+zYH+Xo7EL3JRXhPlOaPtUN/WP7gvDaxPRjwrPYZsIWg51WxbTJmG2BeqtYmzdsp1+NzkD5FK+wWZIVRrJLRQRD+LbVyUDC+VloX81yEnxhtXzFYV2cJVLiUTa2bI5p/Pft++hUMUAR3BmREFggXppLHw9RcpGk6WHUCYSm0p6ThuCgvwfqB8aojHIGDqTqFzYhYfkqTYe0LsnHy62xxQPCtIIF6NJA2xrgjsOndXLgXUNug1uSErIHwlbIAozFRBYtaMOqSKJ/fGFvJ1rnD1aYvLD5wBuSZj/7vr2wSpGE1swCdDZ/kCBB2PtVJNdGB6A61Aed5XXaDoFtrDtiKblkx/1THvMeSbYLIwj18SG6STHY1a5HELTUBoyVcE5BS4Qx+7LD8dej8uhG3may05Pks6AQfxMBgjgI8VBGGKJ4mcA7iKKcTE6MbHVJ4RPEqRuDXMi8j2g1gHYb2leXoXV+DjpzS4Zi28YsN4jiRKsPQzbWkIQu6+Im8Cv0yM54Genc4UvBE8PPObLDK+OoPqwQcGm6q1gEqY+AQW3fqMo5yFoJO0b5Cf+naRNi9mwZJ0lEiUeKUotfpXnB/AH+Whhkj8VybIas7F3RwZakzvs2OTyiZDkxXkfLASj8A+Z9pFwW213IY3IIk48g43bD4gpsnrnyAwYJsuXHaayPDRFAIACztAqtxTU60eX1yh5vLXEgTfLlpzBBuD4xBJUmVn4M5JV2CRC6kk2DkkLmuR+QT9h4OOFTL/64atzZJvMKptcrmWoQS1IsGFSeVdE3og+YU549nogo2DCTuolKKS/DYT+sDXCH0H/7xTk6CtnZ3KIEJGeOpAnnROohRtB3QcXujDDGgp30wofcbTvGEWSRN7IjFPQoNtTs+1oVqsP9UNs/BrW9I/lpBT/94W+SpzNCXdaLJUSOTKkP7HPbvBCQVqegZTWJKT938TfiT/gZkvautp6eKsHdHGXjgCFNmgJPCaPABcfCCmyenfkBgQQtQC4tWDGQAEJ/b1ZqBGlbWqOcCYpwGJ5PCHVzW8xLKu+Ub1jBFLf9Jkayqoih9roACEZ7ks0W+yu0M1MvE0bvaMj2ANmVM7pdLw/EL+JWObrF4AZS0xx0VHF9tKnm7fnotpyx5He7naRUx9BZXoPWxavQvnINOssbWQngFGgTEkJbCfNBRDnd7XCd94yeMDsJk6fwQ75CxeNMCIr0JSxC791Q7Jzxdbx+vNX4EwxyNWpQHR3MwMH4MGBBlqgSRtLS0jQnPF3pY2BPegzLzo7x+bb7bPrDFKePZycgIdJLCkCITN7OxiE4ZRxuuw2thRXYOjsL25evQgdX7KV+fAYlxdAUHVV7G1BDgNCTrdLJ8WFl2ZV1AgodnSshbMU45DI+7oxn2bXqNQTwo0NxUS4BEJJstTEwz/xpXql/dzxex+apJNmQynG5DS2qjDZY1MMXQTAH04WbtZUutlUTEXyZuXGWx58IGR5do84XuvK33lnbzKouvjgHnaU1cpji0yHWOhMqtbBb69LABOA57GYd0FBU0EhgHXJVy5zSmPkJAgQGmIOx1SLD0dnYhs76Zr7lsrP58KGNtFbTngIaY3V8mHIO8AKmSr1mpJSEzYHMx9S+pbeT3yXLpp721U3u4pZGl6ZUcIBvdqu5aZ7QzxvuBMNPOT0lM7zbUglhnhhYBEHC4hpsnbkCW5fmo0nQaVxLA3FEJa4DhvqgtmdQXWdcvEuRhGULJOQIwuMV2QKwO1rZW/UaNCaGsyJHsZ8oQHCTFP2zxJwZ17kMOhlHNnwZfDFyRZn0RZY1T0u7AgkomvAojyDwj91+NKvKrYGcqpTUMMsEEpqTSJbNzE5Ng25VRi5Z6xwghDkkTvjWNrTnl6F1bhY688u0IjDCcfwlc16yb0RELj1YWtyiL1BJUQQFmL081E/nhPFYH35GR544MLBBDp17auN9sdDeRICwAZ2VDegsrmRZ0KVXQpptauw2C0iOFBGKGt7blgAAErdJREFUZ/zoWbK9R9HEAkhTeyhygNnNOnRp6oTsfPS5cZ/aRZnuEckkQ6VPLujzSp4r8ZJ5ESE27uJ0Az9AgMBT5aW0eY2dlG55rVmXTIrDkLgFF9vodGilvvnCJdi6OF9E53zGMknQ/CDBUK96Deqjg1Ad7HHPc+J2Ax71Xl2nrdXOlir97rNduxk9QODS2wONvSNJBY5y+4ByoS5rQuCPi4HaoFkHIW36487VNu/dTIvRi2X+cleaRnBpjcZmCSAYeiU2Y3sA9rfAp/xb246G8IWBLPWN3poYW7HiQCXOs7h26ZMLZm+Rlu1m220qydw6N0Pnm/NjkDkaZLPOhxsbQE5U7MGSYolJeb1NqI4NUogdVw94vI+uOKWudMQgYQ6oxnonu1ARowkqJNmeX4LW1WWKMmQHcH0/GW90t+IxHgXkNPDixi1ujlm/WIsBb2TELYWpPXRqQdddd0dqC3bWjj318lOB8/oekcxm2NZBi2e2c/TIErUSnzqj8bCE+TiedeLTsp1IrfmubTW1jLLNbjY50hzlg00kqtyYdKMi2nfkxksC7totr8Hm8xdg69K1bLGx4x9pJAUFKFK4MKAQPl5qZP+o1zGSQKcbFlYIMIjPMblLZHN4dFiRdnIEsP5B0k9iBMFPmyTnvGc+z/xZK8rkEweJt1yHmQngVzrnttHzrF/XZSkuyMt018hBKF4puePPBp0z2MdPThcPTRtHIm2TWMrUG+Y01Rb62JVRwpU7IN4WHzjVlJdw6Rq0X5ylsDvt0dsylSTpIUnqqoHM5yMA6GtmoAD3GzFy0NsU7jrn449z11QVusEF2qsbVH2yPbtA/9IeppCzQO+GKq7l02LtZ3kiU17u1GuUjIg1DqoTw8a9Coa4OpKlWuTn71nowju9Pg8jEaiedfRKHIwlm5wtkgjHp08ccdjAFzNuD9ORhS7E1du3YW+snnz8lo7KckMbHqjh3P2PcimQHEr2WUJXZIZaSyuweeoytC5fgw5u5dlNcp3wI2otuGJGYc69Zg3qewZUcqIrW4ZZxO2GFQQJq06uhCQHXUx98QomJw72Qn18OP3GWAcgFHUQeAQhaR6CM1/km/Gzd2XGq+2eeEIkX1gymbFNsu7MUTjXmunVQtaETqksGpSTFDEEE1rYBUZrMNhPj7fko3bH7kSlTZ39VKINVJfoZIM2+SopuIcW9bHv6BRm/JJTfPEqdBZRkbb9JaYNSrwzXkbuZJeCYTbcPkBDgOeJh/szB0nVDb3WJ27SLKvgzEurnUUUri5TrkYb+YFAgcmd9rXeozsJSYFB44tyjglY48PZlsJIf3b1K/uRZ9rwRjIv1CPi+z6HJcxQ9DhUTorqycLShgqmKkOqfssSFZTJNC0Oi3XehmNfrA+kRbv6jNqwDah/ke9oo22T/eOyiZQnIZkvWHlV10nAJOgutuuYp/WGkzDHCBcJNYwg1pROcFMomUWkbXkN2otF4qLkAnZktBDU9fRAfXwQqupoY1J7uw4Q/L3a1053rXaMx8RHJq9eeeGdOetqv+Hh91hwH+xEEMxh2xoUsRxa+WIG0Bgde9jipMuEuBrFn0gSp9wguE8n8MRe9fJG0DHilsOVa9DGegkreMpBheUMAxWr2rLDkVartK9IEYNRHTFAYFBcWBIfaRoN4lP4IdZa2d6mJE4qNDW3SElPdjVKR1w0PyOllIPgAA0gJl9hvsHkCFTwCFepWuyStZSlJV3iQkZHQg96Aahoya+8lncknJygRMLSjDyXlh06wQhdhTz4DE1cLn0mKO9aaCKND1zqIohDdRan1mII3t2g6yRcEiIJifNqAgX2Ep4OwOqCGEW0rzCXgIF+tVKhI5C43UCnGza3yu5mRZEhLl7qI4MU7ZSvXvY0kQAQsFJk+R/ZDqRZh4g/1Z7axrJFUVS3WFVQSKUvCxQhjT7LQVArMdovFg/kpWGg3AAZsXVrdJGmMiJDCEOexLgzkyfD7qnIO/DVPfALkaQ7+dO8o3YHOutb0FlYAdyPx/86q5tFuM9BfkFXV06mVXiOthGwOpqOGOCpBA/f5TlJU6bgU5onyI+NzayGBJ78QOC0sVkU/5P4QXKkWmfANCqp+EpTRQ2m9mSnFHAlEiDU/cqeab9MGpPDhTQQoUvjrBq/vlAh54fFgV04tVDQ49NLW/v8s5A8Np+d55+7ypt9S7xVPbF/dLqLQ4P9gah/ZcCbjzDdhsmfrnhCIGEVts5eyRIXIyXeXeq5DBf7uxQ5GOwlgECnlfRjPiJzXrE9YtxuwG1EjCRgLZhgnlGi+cJoHyYU4rFGzDtAMBKPYzIMpAXBn6ToBwiSZc9RUTCpp6u5DWFMPmapcYcpXBZNubT/kpozTjFkQ7aVXWucf6hGGFSix3o1f4QNxg5xyIWlw44yPhmS4haWOntf56KnCYDtAHjJ/JwvNk80S/FGSETZi6tUohlX0J3VrG6C+SPNSaJi5cPI9u1qeCxobBAqg73kGCvVqlGZ2G5V84RZ3qBaSkM1xIrDEJ5Yh0PG6AoeD11YgRZuxWAiIxoY264ipKULRopN9phJzmio0LjxLgXiQ18PYBGYgK8WcENAD0LZKjaBgekze2Av2naK/parR+aawi+4LCFGcV2S9KNQaGm46W363Rmz+OGqR8Kk5ltWWv9kYU9SrDKXx4Wmfic8wbyd9soabJ2fg63zs0U9glzhrIEahHBhyvQIExGpaugA6kXdBM1cdiSFyVfoin0I+te2oL28Cu21jWBdlCjDcVGDyZK43dEj5UVFWygWE/kphgqNkZ9iCEcQ/BJdnF4qltgJFJmuQ1/A5POfBPQ9tzT5AlUGWJCMRxYQ4K/b8qgAgr1aThdb50mZjowZuUFTghtMTNTCvQNaEmYpmw99tWlGZNZjWnhQMpPebo2hsMlGZdLHAREsYLh9YZWOCeakGGgjYWA5YRWoDPdBfd8oRQzwNkLKSPbcfS47J9n90qce6xecNZ+uUd5mh4qwUIQFQ5V44gGBkzYyeqVsI2VhOWHQgGHTqVGoH5rMwBHyIBBzD0ud+jZHg9nfueir8aVLrjmfBeCW+hHkktf+1ZjJ1vouV8WlVmnWqQXJFJSQXNOAOi9K9y1ofqmHPSpMT3F+JPCG+8fCmPmAPCfWLwVdywdbs+JtsFhnZOvCHGxdmKcFBupPTiMRHnIBWcEhBMu05YgOmKKJ1g8nVgIIVng+c2bZFqK3VkKCMKCe1ob6s1NFmC/VzT6Z9jukpLi4qADUygIE29IbGp9rf7dzmh1ZrECH2RR9yyK3K8bpZa2cwaiBNJWFhyvolcFNZc/9v6/q/BX+O3TRUEhujAi1LVAezmnTmpGnnbXW4HR2uwrso9RnOXnshJ1o5/u6PoFmDk+DvCjlkpNERcZsfgILW9k+Hm5DLK3S3/RdTr7f+mFUAPqbVNyEthIGe7LEQ1R8S8E437IWOaa0iYyOKmLUBaNjGWrjYAvuZ2LBJUzuxLKu15az89Zr69BpaV4oqjlryEmqVRGeUBgdpOOLlRGVgJlgZJIAgiAPnGOGLNjeMmIcC12wvRf7m7fJCM5p0PdQdLnN4PLAlZbUozjlJMd2sPxab19EV/VgO36NI/g9RBIgiIAEUxOkQlGSBcostx2T5K4lwUd6H8l7xDoJG1uwdRnzmhahtbKeFSfbxv4lb662pxAYYFGwgV76l4ABjwTYDkhCixqws0HlThwLrFUrlEhJkUHcdljbyOolaNBi7PuoOcS5wlsa+3uzXANc6SsAUg6wapxUSB/RRgDBPcWQloNga2ZBkbHpIdl3ySUFMGbehGaLZAryoZUxMKashnSTAIKJiPWy3pwKabxGw74HBPAqGTAdXTADHmmqlG585FnTU56fuXfOH6aJpZcO+4v8vmJLYtSZPnJuBBba2bliXFFjHYH1TQCsTLjZyo446bPQqIj1KiUUVXrqKkpQz5XAl3xn9l4YPf9o45yWzKRk4QzhZzJiq18um8gLXBm1VIXG1a2sABOCKTQ4dP46OzqKqw7cPsHa8RUMl6LxU8Wd+Fxr6ZJMqDxSroR+XgTlwGOvCx4VFBqf8aMc1AY7wxhweBIWSrVdck5KgAdWw0HD43ddEZBpU8+sp95yEnhMT/HtFj75jn6au2i2feAuoTiOJRg6GolrR/UA06xKGELocdF2w/oWRdswN4HsBdoJTAKmS5VUb1QkqJLZCvwPV+W86JnuLiYkhqLjqpwFZXQYX5VjR+BBUcGNzQzwI2BAvUW6KNqhECzZsRpUsaw5ggJ04ggwtJ/vCk0xPVHMQpBAYMgqlEQLq+CGo+Th5cMwcUspry64b+S7/fk6lYN9B1zYAm5buIwqF7BqIOseLsyTFN0AQ1x8aTBsm8C4zlnrhuPjfZIXQuVxoNDVhOSCZ1dMZIrtu7pNnl+/CHOFslmrIRrPTrVBCio4/Yf/8OVyEfnJ0TEpaJo2ueZWWu9wq2HDiuxvn3lMo8J2j3qjx7oTmwsbRVMwDwFXl4ovej5xUGgEyPCp+yKChBRcMOxexFXJ5iKhDpGkAr6TL8a+I5vUnFBTuXOT0GXUgJsUV4Rk5+yTGD8v406PL17D2s9p0mAhx4q5bDpjEV6LKW+iSnnyuMJwq4yeaDpyx6nHgpGE9U1ozS9TUSUC1PQQsxcaUWgd0RBGmlp7EnzCoVBo1kQGFnL9o5V6HSrNGoF4rJVQABa++9ExC7Gx69Q5GelzwI1BbuiziA4CkRpeUakqKQ5klRTDSYocpmid60BRZVA738SZFPhNHwkXMOXWV5JZgzm2k+ETZsaGs2903N7vLlgEgTsBD2azBpVPlm0JEiAfF3L5KuewWeDTUFporDk0KybasxAHSg4tnKCQpWNN0ytevsVNdTq34gJc9JZmRW2x7GY+DBGy5UmTTPxSrQvT0k2/YamXxy+p4W7xPzoGnaDAowi23OwAHPjHYVs0zrmwa41LnPxElBdErF66BvQ0dOw4YeKS6HCGEH6ruzaLTkz7yTq3QULg0rSgDQ05I8NWsZGwrT2aF6ylggXYMPkRi671NCiXKKu4iEWeBC8piELXvLLDZ9hQJYtKUHQCadNbLEGAYHPKL2vd08oTSxigsdZIBnu8QiDRWwCEpNc0CcYWA81XxCGy1oPMMARM/aGjXLkvzFoo2nFRWsy4dD0h5hy4RWFjhseSbYcOUcHUh9bD2afF/xNp+TRwd2QaCD5T6TBGNvQuH/kn8dZlKmOzl31PPYWy7TUwiJORGjgRCQuPweIHi6lKU50PzA6teFYI1IZd2Y+/a1sGKTGRG26uWAl8049nXVqyGOGWZOYT1ghB4fCeEsgnSQAGfAJtvuOobIUJ8Mg2onrNKKN4m8FhO9aNzZK1VttO61sCCVvQwgRfvCiORxBSHLDUGcsJLURfjYQDA80KdMK0UsftvhpVZaUtvwpQDQequKhvgTS01hXWbvjlJCArI0PgACOLHCDgXQzeqrF8hSdoOvso6AMkaedCpr+3G5HAvk+5jLow5srUnNKskxS+Vvbc/2FuE9IsOnOujiGUNStvtyCqCHAUyhfv3p6isO1zJb04r8B+yx9Tv2hrzfcPJdlQkTvDsUhGijfLh6g/z7PZ1AeOp/Dzxeg7zj41XcWWiimXXGQEC+sTcub0kpQkH7cKqamXaC6pW1vrwqNM+zaVh3bgzTQQjkRZpIpT53X0Jk3iMSYdVuIyIhiInAw9F+m7TA5jUgyHu/Pq8jetHXlejHedCWZMz2+vNLf76Qm9+hJ013+IPnu4eMX8zZoxIewnW2+JhER1dYy524PdemaYMHGRQMLCimOmuZY5vMYvYzJLL6ntBG7d8XO9vcdyo6pYxh0BQqNOwKB1DUGCjiRkDWirxI+8J2Jb3YDhmfS4Mr+pUghV4iQBBMxV6mlCDZM0e7EWik9iHa0vUrkZqBdpjcmetIDAGg+4dSqcYBb3cnNgoBozCLGVR7v7bKwx/qotBm6xGY8Z8cY4eZ8SWBYNmDK8egxsLsxpSTMraU/J+37cKRbsspFimH0aRXtLUtsEas+R80YxUScm5jNlC6M80p0anMI4SbkftulyZygXDb6yCAAIy+27TokWhFjiWzHCcQphB1/W2CbCH354MYi5U+XRR6c4n7xRQ24821HqmYRDGhYZhVP075RzU+KalRLTFZwqDZLME9qWTnDlswGCpdxe5ydNmDUss2iaYMm5YzRMrX2+vPh7J3LiyIhkhy2a8N6X7bkFWrHzH3rVm/cihLs5X3kRKn0+Px+YOj2ESYAaIOCtsHiMUh1VJMu63crAC97FohMVVbs7kiUxKxdnEo8QIknF1gdQZKOH6j5UMYnZebeYLVMCXek0vIU9UTbYsk28bRy1O5Y+1/MQQiOOLzEFxa055FfJ/w9OPKY2MGm0jAAAAABJRU5ErkJggg==;" vertex="1" parent="1">
          <mxGeometry x="237" y="536.25" width="166.28" height="82.5" as="geometry" />
        </mxCell>
        <mxCell id="dMMbLSXunH8ZAwewC7_b-9" value="" style="aspect=fixed;perimeter=ellipsePerimeter;html=1;align=center;shadow=0;dashed=0;spacingTop=3;image;image=img/lib/active_directory/web_server.svg;" vertex="1" parent="1">
          <mxGeometry x="828" y="541" width="70.4" height="88" as="geometry" />
        </mxCell>
        <mxCell id="dMMbLSXunH8ZAwewC7_b-11" value="" style="endArrow=none;dashed=1;html=1;" edge="1" parent="1">
          <mxGeometry width="50" height="50" relative="1" as="geometry">
            <mxPoint x="7" y="486" as="sourcePoint" />
            <mxPoint x="910" y="486" as="targetPoint" />
          </mxGeometry>
        </mxCell>
        <mxCell id="dMMbLSXunH8ZAwewC7_b-12" value="" style="endArrow=none;dashed=1;html=1;" edge="1" parent="1" source="dMMbLSXunH8ZAwewC7_b-30">
          <mxGeometry width="50" height="50" relative="1" as="geometry">
            <mxPoint x="466" y="762" as="sourcePoint" />
            <mxPoint x="466" y="431" as="targetPoint" />
          </mxGeometry>
        </mxCell>
        <mxCell id="dMMbLSXunH8ZAwewC7_b-13" value="" style="endArrow=none;dashed=1;html=1;" edge="1" parent="1">
          <mxGeometry width="50" height="50" relative="1" as="geometry">
            <mxPoint x="725" y="764" as="sourcePoint" />
            <mxPoint x="725" y="487" as="targetPoint" />
          </mxGeometry>
        </mxCell>
        <mxCell id="dMMbLSXunH8ZAwewC7_b-17" value="" style="endArrow=classic;html=1;fillColor=#ffe6cc;strokeColor=#FF8000;" edge="1" parent="1">
          <mxGeometry width="50" height="50" relative="1" as="geometry">
            <mxPoint x="101" y="547" as="sourcePoint" />
            <mxPoint x="231" y="547" as="targetPoint" />
          </mxGeometry>
        </mxCell>
        <mxCell id="dMMbLSXunH8ZAwewC7_b-18" value="" style="endArrow=classic;html=1;fillColor=#ffe6cc;strokeColor=#FF8000;" edge="1" parent="1">
          <mxGeometry width="50" height="50" relative="1" as="geometry">
            <mxPoint x="410.00000000000006" y="559" as="sourcePoint" />
            <mxPoint x="543.04" y="560" as="targetPoint" />
          </mxGeometry>
        </mxCell>
        <mxCell id="dMMbLSXunH8ZAwewC7_b-20" value="" style="shape=image;html=1;verticalAlign=top;verticalLabelPosition=bottom;labelBackgroundColor=#ffffff;imageAspect=0;aspect=fixed;image=https://cdn2.iconfinder.com/data/icons/whcompare-isometric-web-hosting-servers/50/cloud-server-128.png" vertex="1" parent="1">
          <mxGeometry x="550" y="534" width="97" height="97" as="geometry" />
        </mxCell>
        <mxCell id="dMMbLSXunH8ZAwewC7_b-21" value="1.possMessage" style="text;html=1;strokeColor=none;fillColor=none;align=center;verticalAlign=middle;whiteSpace=wrap;rounded=0;" vertex="1" parent="1">
          <mxGeometry x="144" y="524" width="40" height="21" as="geometry" />
        </mxCell>
        <mxCell id="dMMbLSXunH8ZAwewC7_b-22" value="" style="endArrow=classic;html=1;fillColor=#ffe6cc;strokeColor=#FF8000;" edge="1" parent="1">
          <mxGeometry width="50" height="50" relative="1" as="geometry">
            <mxPoint x="103" y="572" as="sourcePoint" />
            <mxPoint x="230" y="572" as="targetPoint" />
          </mxGeometry>
        </mxCell>
        <mxCell id="dMMbLSXunH8ZAwewC7_b-23" value="2.ori request" style="text;html=1;strokeColor=none;fillColor=none;align=center;verticalAlign=middle;whiteSpace=wrap;rounded=0;" vertex="1" parent="1">
          <mxGeometry x="121" y="553" width="72" height="21" as="geometry" />
        </mxCell>
        <mxCell id="dMMbLSXunH8ZAwewC7_b-26" value="" style="endArrow=classic;html=1;strokeColor=#FF8000;" edge="1" parent="1">
          <mxGeometry width="50" height="50" relative="1" as="geometry">
            <mxPoint x="226" y="605" as="sourcePoint" />
            <mxPoint x="105" y="605" as="targetPoint" />
          </mxGeometry>
        </mxCell>
        <mxCell id="dMMbLSXunH8ZAwewC7_b-27" value="" style="endArrow=classic;html=1;fillColor=#ffe6cc;strokeColor=#FF8000;" edge="1" parent="1">
          <mxGeometry width="50" height="50" relative="1" as="geometry">
            <mxPoint x="624" y="557" as="sourcePoint" />
            <mxPoint x="826" y="558" as="targetPoint" />
          </mxGeometry>
        </mxCell>
        <mxCell id="dMMbLSXunH8ZAwewC7_b-28" value="" style="endArrow=classic;html=1;strokeColor=#FF8000;" edge="1" parent="1">
          <mxGeometry width="50" height="50" relative="1" as="geometry">
            <mxPoint x="821" y="604" as="sourcePoint" />
            <mxPoint x="650" y="604" as="targetPoint" />
          </mxGeometry>
        </mxCell>
        <mxCell id="dMMbLSXunH8ZAwewC7_b-29" value="" style="endArrow=classic;html=1;strokeColor=#FF8000;" edge="1" parent="1">
          <mxGeometry width="50" height="50" relative="1" as="geometry">
            <mxPoint x="550" y="601" as="sourcePoint" />
            <mxPoint x="407" y="601" as="targetPoint" />
          </mxGeometry>
        </mxCell>
        <mxCell id="dMMbLSXunH8ZAwewC7_b-30" value="3.web request" style="text;html=1;strokeColor=none;fillColor=none;align=center;verticalAlign=middle;whiteSpace=wrap;rounded=0;" vertex="1" parent="1">
          <mxGeometry x="420" y="536.25" width="86" height="21" as="geometry" />
        </mxCell>
        <mxCell id="dMMbLSXunH8ZAwewC7_b-32" value="4.proxy request" style="text;html=1;strokeColor=none;fillColor=none;align=center;verticalAlign=middle;whiteSpace=wrap;rounded=0;" vertex="1" parent="1">
          <mxGeometry x="679" y="534" width="86" height="23" as="geometry" />
        </mxCell>
        <mxCell id="dMMbLSXunH8ZAwewC7_b-33" value="5.response" style="text;html=1;strokeColor=none;fillColor=none;align=center;verticalAlign=middle;whiteSpace=wrap;rounded=0;" vertex="1" parent="1">
          <mxGeometry x="679" y="582" width="86" height="23" as="geometry" />
        </mxCell>
        <mxCell id="dMMbLSXunH8ZAwewC7_b-35" value="7.response" style="text;html=1;strokeColor=none;fillColor=none;align=center;verticalAlign=middle;whiteSpace=wrap;rounded=0;" vertex="1" parent="1">
          <mxGeometry x="111" y="585" width="86" height="23" as="geometry" />
        </mxCell>
        <mxCell id="dMMbLSXunH8ZAwewC7_b-34" value="6.response" style="text;html=1;strokeColor=none;fillColor=none;align=center;verticalAlign=middle;whiteSpace=wrap;rounded=0;" vertex="1" parent="1">
          <mxGeometry x="424" y="577" width="86" height="23" as="geometry" />
        </mxCell>
        <mxCell id="dMMbLSXunH8ZAwewC7_b-40" value="" style="rounded=1;whiteSpace=wrap;html=1;fillColor=none;dashed=1;arcSize=28;strokeColor=#FF8000;" vertex="1" parent="1">
          <mxGeometry x="97.75" y="520.25" width="132.5" height="36.75" as="geometry" />
        </mxCell>
        <mxCell id="dMMbLSXunH8ZAwewC7_b-41" value="&lt;h1&gt;Mobile&lt;/h1&gt;" style="text;html=1;strokeColor=none;fillColor=none;align=center;verticalAlign=middle;whiteSpace=wrap;rounded=0;dashed=1;" vertex="1" parent="1">
          <mxGeometry x="160" y="442" width="167" height="37" as="geometry" />
        </mxCell>
        <mxCell id="dMMbLSXunH8ZAwewC7_b-42" value="&lt;h1&gt;Knock proxy server&lt;/h1&gt;" style="text;html=1;strokeColor=none;fillColor=none;align=center;verticalAlign=middle;whiteSpace=wrap;rounded=0;dashed=1;" vertex="1" parent="1">
          <mxGeometry x="468" y="442" width="253" height="37" as="geometry" />
        </mxCell>
        <mxCell id="dMMbLSXunH8ZAwewC7_b-43" value="&lt;h1&gt;ori server&lt;/h1&gt;" style="text;html=1;strokeColor=none;fillColor=none;align=center;verticalAlign=middle;whiteSpace=wrap;rounded=0;dashed=1;" vertex="1" parent="1">
          <mxGeometry x="736.7" y="438" width="253" height="37" as="geometry" />
        </mxCell>
        <mxCell id="dMMbLSXunH8ZAwewC7_b-44" value="备注：只有post&amp;nbsp;和&amp;nbsp;put请求带有request body才会有第1步postMessage" style="text;html=1;strokeColor=none;fillColor=none;align=center;verticalAlign=middle;whiteSpace=wrap;rounded=0;dashed=1;" vertex="1" parent="1">
          <mxGeometry x="2" y="794" width="420" height="41" as="geometry" />
        </mxCell>
      </root>
    </mxGraphModel>
  </diagram>
</mxfile>
